<svg width="15" height="17" viewBox="0 0 18 20" fill="none" xmlns="http://www.w3.org/2000/svg">
<path fill-rule="evenodd" clip-rule="evenodd" d="M2.20422 5H4.00056C4.00056 2.23858 6.23913 0 9.00056 0C11.762 0 14.0006 2.23858 14.0006 5H15.7969C16.3161 5 16.7489 5.39731 16.7932 5.9146L17.9075 18.9146C17.9576 19.4984 17.4972 20 16.9112 20H1.08994C0.503957 20 0.0435479 19.4984 0.0935913 18.9146L1.20788 5.9146C1.25222 5.39732 1.68504 5 2.20422 5ZM9.00056 2C10.6574 2 12.0006 3.34315 12.0006 5H6.00056C6.00056 3.34315 7.3437 2 9.00056 2ZM6 8C6 9.65686 7.34314 11 9 11C10.6569 11 12 9.65686 12 8C12 7.44775 12.4477 7 13 7C13.5523 7 14 7.44775 14 8C14 10.7615 11.7614 13 9 13C6.23859 13 4 10.7615 4 8C4 7.44775 4.4477 7 5 7C5.55231 7 6 7.44775 6 8Z" fill="white"/>
</svg>
