<svg width="34" height="33" viewBox="0 0 34 33" fill="none" xmlns="http://www.w3.org/2000/svg">
<path fill-rule="evenodd" clip-rule="evenodd" d="M17.2614 0.479774C17.5585 0.633849 17.8351 0.835974 18.0768 1.07766L32.4215 15.4224C33.7243 16.7252 33.7233 18.8346 32.4215 20.1364L20.6364 31.9215C19.3346 33.2233 17.2252 33.2243 15.9224 31.9215L1.57766 17.5768C0.953879 16.953 0.601419 16.104 0.601563 15.2199V3.43483C0.601275 1.59369 2.09369 0.101275 3.93483 0.101563H15.7199C16.2623 0.102426 16.7895 0.233483 17.2614 0.479774ZM11.2083 10.7083C12.5101 9.40651 12.5111 7.29707 11.2083 5.99426C9.9055 4.69145 7.79606 4.69246 6.49426 5.99426C5.19246 7.29606 5.19145 9.4055 6.49426 10.7083C7.79707 12.0111 9.90651 12.0101 11.2083 10.7083Z" fill="#E4003F"/>
</svg>
