<svg width="20" height="20" viewBox="0 0 20 20" fill="none" xmlns="http://www.w3.org/2000/svg">
<path fill-rule="evenodd" clip-rule="evenodd" d="M0 1C0 0.447715 0.447715 0 1 0H4C4.55228 0 5 0.447715 5 1V4C5 4.55228 4.55228 5 4 5H1C0.447715 5 0 4.55228 0 4V1ZM0 8.5C0 7.94772 0.447715 7.5 1 7.5H4C4.55228 7.5 5 7.94772 5 8.5V11.5C5 12.0523 4.55228 12.5 4 12.5H1C0.447715 12.5 0 12.0523 0 11.5V8.5ZM1 15C0.447715 15 0 15.4477 0 16V19C0 19.5523 0.447715 20 1 20H4C4.55228 20 5 19.5523 5 19V16C5 15.4477 4.55228 15 4 15H1ZM15 1C15 0.447715 15.4477 0 16 0H19C19.5523 0 20 0.447715 20 1V4C20 4.55228 19.5523 5 19 5H16C15.4477 5 15 4.55228 15 4V1ZM16 7.5C15.4477 7.5 15 7.94772 15 8.5V11.5C15 12.0523 15.4477 12.5 16 12.5H19C19.5523 12.5 20 12.0523 20 11.5V8.5C20 7.94772 19.5523 7.5 19 7.5H16ZM15 16C15 15.4477 15.4477 15 16 15H19C19.5523 15 20 15.4477 20 16V19C20 19.5523 19.5523 20 19 20H16C15.4477 20 15 19.5523 15 19V16ZM8.5 0C7.94772 0 7.5 0.447715 7.5 1V4C7.5 4.55228 7.94772 5 8.5 5H11.5C12.0523 5 12.5 4.55228 12.5 4V1C12.5 0.447715 12.0523 0 11.5 0H8.5ZM7.5 8.5C7.5 7.94772 7.94772 7.5 8.5 7.5H11.5C12.0523 7.5 12.5 7.94772 12.5 8.5V11.5C12.5 12.0523 12.0523 12.5 11.5 12.5H8.5C7.94772 12.5 7.5 12.0523 7.5 11.5V8.5ZM8.5 15C7.94772 15 7.5 15.4477 7.5 16V19C7.5 19.5523 7.94772 20 8.5 20H11.5C12.0523 20 12.5 19.5523 12.5 19V16C12.5 15.4477 12.0523 15 11.5 15H8.5Z" fill="#3B4758"/>
</svg>
