<svg width="60" height="60" viewBox="0 0 30 30" fill="none" xmlns="http://www.w3.org/2000/svg">
<path fill-rule="evenodd" clip-rule="evenodd" d="M10.8325 10.8337V10.8337H9.33618C8.90353 10.8337 8.54284 11.1648 8.5059 11.5959L7.57732 22.4292C7.53562 22.9158 7.9193 23.3337 8.40761 23.3337H21.592C22.0803 23.3337 22.464 22.9158 22.4223 22.4292L21.4937 11.5959C21.4567 11.1648 21.0961 10.8337 20.6634 10.8337H19.1658V10.8337C19.1658 8.53247 17.3003 6.66699 14.9991 6.66699C12.698 6.66699 10.8325 8.53247 10.8325 10.8337ZM12.4991 10.8337V10.8337H17.4991V10.8337C17.4991 9.45295 16.3799 8.33366 14.9991 8.33366C13.6184 8.33366 12.4991 9.45295 12.4991 10.8337ZM14.9979 17.5003C17.2816 17.5003 19.1361 15.6631 19.1642 13.386C19.1653 13.3687 19.1658 13.3513 19.1658 13.3337C19.1658 12.8734 18.7927 12.5003 18.3325 12.5003C17.8722 12.5003 17.4992 12.8734 17.4992 13.3337V13.3337H17.4979C17.4978 14.7144 16.3785 15.8337 14.9979 15.8337C13.6307 15.8337 12.5199 14.7363 12.4982 13.3743C12.4988 13.3608 12.4992 13.3473 12.4992 13.3337C12.4992 12.8734 12.1261 12.5003 11.6658 12.5003C11.2056 12.5003 10.8325 12.8734 10.8325 13.3337V13.3337H10.8318V13.2594C10.8314 13.2841 10.8312 13.3089 10.8312 13.3337C10.8312 15.6348 12.6967 17.5003 14.9979 17.5003Z" fill="#586A84"/>
</svg>
