<svg width="10" height="10" viewBox="0 0 10 10" fill="none" xmlns="http://www.w3.org/2000/svg">
<path d="M0.565838 1.30218C0.582181 1.44788 0.64571 1.58875 0.757116 1.70016L4.05695 4.99999L0.757116 8.29982C0.621656 8.43528 0.556631 8.61447 0.56181 8.79159C0.567219 8.9556 0.631899 9.11741 0.757116 9.24263C1.01768 9.50319 1.43959 9.50296 1.69992 9.24263L4.99976 5.9428L8.29959 9.24263C8.56015 9.50319 8.98207 9.50296 9.2424 9.24263C9.50273 8.9823 9.50296 8.56038 9.2424 8.29982L5.94257 4.99999L9.2424 1.70016C9.50273 1.43982 9.50296 1.01791 9.2424 0.757347C8.98184 0.496785 8.55992 0.497015 8.29959 0.757347L4.99976 4.05718L1.69992 0.757347C1.43936 0.496785 1.01745 0.497015 0.757116 0.757347C0.608306 0.906157 0.544547 1.10802 0.565838 1.30218Z" fill="#586A84"/>
</svg>
