<svg width="12" height="12" viewBox="0 0 12 12" fill="none" xmlns="http://www.w3.org/2000/svg">
<path fill-rule="evenodd" clip-rule="evenodd" d="M10.667 0.666643H8.00013C8.00012 0.298464 7.70165 0 7.33346 0H4.6668C4.29861 0 4.00014 0.298464 4.00013 0.666643H1.33366C0.965469 0.666643 0.666992 0.96512 0.666992 1.33331C0.666992 1.7015 0.96547 1.99998 1.33366 1.99998H10.667C11.0352 1.99998 11.3337 1.7015 11.3337 1.33331C11.3337 0.96512 11.0352 0.666643 10.667 0.666643ZM1.33353 3.33342H10.6669V10.6668C10.6669 11.4031 10.0699 12.0001 9.33353 12.0001H2.66686C1.93048 12.0001 1.33353 11.4031 1.33353 10.6668V3.33342ZM4.66628 5.33345C4.29809 5.33345 3.99961 5.63192 3.99961 6.00011V9.33345C3.99961 9.70164 4.29809 10.0001 4.66628 10.0001C5.03446 10.0001 5.33294 9.70164 5.33294 9.33345V6.00011C5.33294 5.63192 5.03446 5.33345 4.66628 5.33345ZM7.33268 5.33345C6.96449 5.33345 6.66601 5.63192 6.66601 6.00011V9.33345C6.66601 9.70164 6.96449 10.0001 7.33268 10.0001C7.70087 10.0001 7.99935 9.70164 7.99935 9.33345V6.00011C7.99935 5.63192 7.70087 5.33345 7.33268 5.33345Z" fill="#586A84"/>
</svg>
