<svg width="160" height="45" viewBox="0 0 160 45" fill="none" xmlns="http://www.w3.org/2000/svg">
<path d="M20.9744 42.9635C22.9376 42.9635 24.1796 42.6029 24.7005 41.8817C25.2614 41.1606 25.5419 39.9385 25.5419 38.2157V26.5566H21.6956V25.2345H39.0039V26.5566H36.6601V43.5044H35.7586C35.0374 42.5028 34.0157 42.0019 32.6936 42.0019C32.1327 42.0019 30.4499 42.3625 27.6453 43.0837C24.8808 43.8049 22.5169 44.1655 20.5537 44.1655C14.023 44.1655 8.95467 42.4026 5.34877 38.8768C1.78292 35.351 0 30.0624 0 23.0108C0 15.9192 1.86305 10.4502 5.58916 6.60393C9.35533 2.75762 14.4036 0.834473 20.734 0.834473C23.178 0.834473 25.622 1.155 28.066 1.79605C30.5501 2.39703 31.9924 2.69753 32.3931 2.69753C32.7937 2.69753 33.0942 2.6174 33.2946 2.45713C33.4949 2.2568 33.7152 1.93628 33.9556 1.49555H34.6167L35.0975 14.5369H34.0157C32.0525 10.6506 30.0693 7.60557 28.066 5.40196C26.1028 3.15828 23.8992 2.03644 21.4552 2.03644C15.3251 2.03644 12.2601 8.02626 12.2601 20.0059V24.7537C12.2601 30.7635 13.0013 35.311 14.4837 38.396C16.0062 41.441 18.1698 42.9635 20.9744 42.9635Z" fill="#BAC4D1"/>
<path d="M55.6977 29.4413H57.4405V24.8138C57.4405 21.0075 57.2202 18.4634 56.7794 17.1813C56.3788 15.8591 55.5775 15.198 54.3755 15.198C53.6543 15.198 52.9932 15.3983 52.3923 15.799C51.8313 16.1596 51.5509 16.6804 51.5509 17.3616C51.5509 18.0026 51.6711 18.6637 51.9115 19.3448H53.4139C53.7345 20.1862 53.8947 21.2079 53.8947 22.4098C53.8947 23.5717 53.3939 24.5934 52.3923 25.4748C51.3906 26.3162 50.1286 26.7369 48.6061 26.7369C45.1604 26.7369 43.4376 25.0742 43.4376 21.7487C43.4376 16.8207 47.6244 14.3566 55.9982 14.3566C60.766 14.3566 64.0514 15.178 65.8543 16.8207C67.6973 18.4233 68.6189 21.3882 68.6189 25.7152V37.9152C68.6189 39.9986 69.1998 41.0404 70.3617 41.0404C71.7239 41.0404 72.5253 38.977 72.7656 34.8502L73.6671 34.9103C73.5069 38.4361 72.8458 40.8601 71.6839 42.1822C70.522 43.5044 68.6189 44.1655 65.9745 44.1655C61.1666 44.1655 58.4021 42.683 57.6809 39.7182C57.1601 41.2407 56.3788 42.3625 55.3371 43.0837C54.2954 43.8049 52.7729 44.1655 50.7696 44.1655C44.8399 44.1655 41.875 41.7415 41.875 36.8936C41.875 34.0489 42.9969 32.1057 45.2405 31.064C47.5243 29.9822 51.01 29.4413 55.6977 29.4413ZM53.2937 36.8335C53.2937 38.9169 53.3939 40.2591 53.5942 40.8601C53.8346 41.461 54.2553 41.7615 54.8563 41.7615C55.4973 41.7615 56.0783 41.2607 56.5992 40.2591C57.1601 39.2174 57.4405 37.795 57.4405 35.9921V30.4029H57.0198C54.5358 30.4029 53.2937 32.2259 53.2937 35.8719V36.8335Z" fill="#BAC4D1"/>
<path d="M74.2578 14.9576H88.7415V20.4867C90.0637 16.4 92.9684 14.3566 97.4558 14.3566C101.983 14.3566 104.728 16.5202 105.689 20.8473C107.092 16.5202 110.036 14.3566 114.524 14.3566C120.413 14.3566 123.358 17.7021 123.358 24.3931V42.4827H126.724V43.5645H110.076V42.4827H112.18V22.9507C112.18 19.9057 111.919 18.1228 111.399 17.6019C111.158 17.3616 110.838 17.2414 110.437 17.2414C109.275 17.2414 108.253 18.0226 107.372 19.5852C106.491 21.1478 106.05 23.131 106.05 25.5349V42.4827H108.213V43.5645H92.7681V42.4827H94.8716V22.9507C94.8716 19.9057 94.6111 18.1228 94.0903 17.6019C93.8499 17.3616 93.5294 17.2414 93.1287 17.2414C92.0069 17.2414 90.9852 18.1028 90.0637 19.8256C89.1822 21.5083 88.7415 23.5317 88.7415 25.8955V42.4827H90.9051V43.5645H74.2578V42.4827H77.5632V16.0394H74.2578V14.9576Z" fill="#BAC4D1"/>
<path d="M142.031 29.4413H143.773V24.8138C143.773 21.0075 143.553 18.4634 143.112 17.1813C142.712 15.8591 141.91 15.198 140.708 15.198C139.987 15.198 139.326 15.3983 138.725 15.799C138.164 16.1596 137.884 16.6804 137.884 17.3616C137.884 18.0026 138.004 18.6637 138.244 19.3448H139.747C140.067 20.1862 140.228 21.2079 140.228 22.4098C140.228 23.5717 139.727 24.5934 138.725 25.4748C137.723 26.3162 136.461 26.7369 134.939 26.7369C131.493 26.7369 129.77 25.0742 129.77 21.7487C129.77 16.8207 133.957 14.3566 142.331 14.3566C147.099 14.3566 150.384 15.178 152.187 16.8207C154.03 18.4233 154.952 21.3882 154.952 25.7152V37.9152C154.952 39.9986 155.533 41.0404 156.695 41.0404C158.057 41.0404 158.858 38.977 159.099 34.8502L160 34.9103C159.84 38.4361 159.179 40.8601 158.017 42.1822C156.855 43.5044 154.952 44.1655 152.307 44.1655C147.5 44.1655 144.735 42.683 144.014 39.7182C143.493 41.2407 142.712 42.3625 141.67 43.0837C140.628 43.8049 139.106 44.1655 137.102 44.1655C131.173 44.1655 128.208 41.7415 128.208 36.8936C128.208 34.0489 129.33 32.1057 131.573 31.064C133.857 29.9822 137.343 29.4413 142.031 29.4413ZM139.627 36.8335C139.627 38.9169 139.727 40.2591 139.927 40.8601C140.167 41.461 140.588 41.7615 141.189 41.7615C141.83 41.7615 142.411 41.2607 142.932 40.2591C143.493 39.2174 143.773 37.795 143.773 35.9921V30.4029H143.353C140.869 30.4029 139.627 32.2259 139.627 35.8719V36.8335Z" fill="#BAC4D1"/>
</svg>
