<svg width="160" height="30" viewBox="0 0 160 30" fill="none" xmlns="http://www.w3.org/2000/svg">
<path d="M10.7145 12.0742C10.6189 11.8542 10.485 11.6295 10.3129 11.4C10.1503 11.1705 9.95906 10.9602 9.73913 10.7689C9.5192 10.5777 9.28014 10.4247 9.02196 10.3099C8.76378 10.1856 8.49126 10.1235 8.20439 10.1235C7.81234 10.1235 7.4442 10.286 7.09996 10.6111C6.75571 10.9363 6.4545 11.3713 6.19632 11.9164C5.93814 12.4519 5.73256 13.0686 5.57956 13.7667C5.43613 14.4552 5.36441 15.1723 5.36441 15.9182C5.36441 16.3772 5.40266 16.8123 5.47916 17.2234C5.56522 17.625 5.69431 17.9788 5.86643 18.2848C6.03855 18.5908 6.25848 18.8347 6.52622 19.0163C6.80353 19.198 7.13342 19.2889 7.51591 19.2889C8.08965 19.2889 8.61557 19.112 9.09368 18.7582C9.57179 18.3948 9.97819 17.9263 10.3129 17.3525C10.3224 17.1517 10.3368 16.9127 10.3559 16.6353C10.375 16.358 10.3989 16.0234 10.4276 15.6313C10.4563 15.2297 10.4898 14.7612 10.528 14.2257C10.5758 13.6806 10.6332 13.0352 10.7001 12.2893L10.7145 12.0742ZM15.4621 20.7375C15.3665 21.6842 15.1514 22.5687 14.8167 23.3911C14.482 24.2134 14.0565 24.9641 13.5401 25.643C13.0333 26.3315 12.45 26.9434 11.7902 27.4789C11.14 28.024 10.4467 28.483 9.71044 28.8559C8.98371 29.2288 8.23308 29.5109 7.45854 29.7021C6.684 29.9029 5.91902 30.0033 5.1636 30.0033C4.76199 30.0033 4.35081 29.989 3.93008 29.9603C3.50934 29.9316 3.09816 29.8743 2.69655 29.7882C2.29493 29.7117 1.91245 29.597 1.54908 29.444C1.18572 29.3005 0.860601 29.1141 0.573734 28.8846V28.8702C0.573734 28.8224 0.607202 28.6551 0.674137 28.3682C0.750635 28.0813 0.836695 27.7419 0.932317 27.3498C1.0375 26.9673 1.14269 26.5705 1.24787 26.1593C1.36262 25.7482 1.45824 25.3944 1.53474 25.0979C1.57299 24.9641 1.61124 24.8732 1.64948 24.8254C1.68773 24.7776 1.73076 24.7537 1.77857 24.7537C1.83595 24.7537 1.86942 24.7585 1.87898 24.768C2.15628 24.9497 2.41446 25.0979 2.65352 25.2127C2.90214 25.337 3.16032 25.4326 3.42806 25.4995C3.70536 25.576 4.00657 25.6286 4.33169 25.6573C4.65681 25.686 5.03451 25.7003 5.46481 25.7003C6.13417 25.7003 6.72703 25.5713 7.24339 25.3131C7.75975 25.0549 8.20439 24.7202 8.57732 24.309C8.95025 23.8979 9.24668 23.4437 9.46661 22.9464C9.6961 22.4587 9.85388 21.9759 9.93994 21.4977C9.25146 21.9567 8.55341 22.3297 7.84581 22.6165C7.1382 22.9034 6.42582 23.0468 5.70865 23.0468C4.72374 23.0468 3.8727 22.846 3.15554 22.4444C2.43837 22.0524 1.84551 21.5217 1.37696 20.8523C0.908412 20.1829 0.55939 19.418 0.329897 18.5574C0.109966 17.6872 0 16.7788 0 15.8321C0 15.0863 0.0669356 14.3356 0.200807 13.5802C0.34424 12.8152 0.549828 12.0789 0.817571 11.3713C1.09488 10.6637 1.43433 10.0039 1.83595 9.39196C2.23756 8.77042 2.70133 8.23015 3.22725 7.77116C3.75318 7.31218 4.33647 6.95359 4.97714 6.69541C5.61781 6.42767 6.31585 6.2938 7.07127 6.2938C7.89362 6.2938 8.65382 6.47548 9.35186 6.83885C10.0595 7.20221 10.7001 7.65164 11.2739 8.18712C11.293 8.015 11.3073 7.88113 11.3169 7.78551C11.3265 7.68032 11.3504 7.59904 11.3886 7.54167C11.4269 7.4843 11.489 7.44127 11.5751 7.41258C11.6707 7.38389 11.8046 7.35042 11.9767 7.31218C12.0819 7.29305 12.2731 7.2548 12.5504 7.19743C12.8277 7.13049 13.1576 7.054 13.5401 6.96794C13.9226 6.88188 14.3433 6.79103 14.8023 6.69541C15.2613 6.59979 15.7251 6.49939 16.1936 6.3942C16.3084 6.36552 16.4136 6.35117 16.5092 6.35117C16.8056 6.35117 16.9538 6.54242 16.9538 6.92491C16.9538 6.97272 16.9538 7.02053 16.9538 7.06834C16.9538 7.10659 16.9491 7.14962 16.9395 7.19743L15.4621 20.7375Z" fill="#BAC4D1"/>
<path d="M26.736 23.0468C25.3877 23.0468 24.202 22.8269 23.1788 22.387C22.1652 21.9472 21.3142 21.3639 20.6257 20.6371C19.9372 19.9009 19.4209 19.0594 19.0766 18.1127C18.7324 17.1565 18.5603 16.1668 18.5603 15.1436C18.5603 14.1205 18.7276 13.1499 19.0623 12.2319C19.397 11.3044 19.8655 10.4773 20.468 9.75054C21.0704 9.01425 21.7923 8.40227 22.6338 7.9146C23.4753 7.41736 24.4028 7.08268 25.4164 6.91056C25.5694 6.901 25.6459 6.86753 25.6459 6.81016C25.6459 6.70497 25.6316 6.60935 25.6029 6.52329C25.5837 6.42767 25.5742 6.34639 25.5742 6.27946C25.5742 6.17427 25.5933 6.10255 25.6316 6.06431C25.6698 6.02606 25.7128 6.00693 25.7606 6.00693C27.587 6.00693 29.1409 6.2173 30.4222 6.63804C31.7036 7.04921 32.7459 7.61339 33.5491 8.33055C34.3523 9.04772 34.9356 9.89398 35.299 10.8693C35.6623 11.8447 35.844 12.8917 35.844 14.0105C35.844 15.4353 35.605 16.7071 35.1269 17.8258C34.6487 18.9446 33.9937 19.8913 33.1618 20.6658C32.3395 21.4404 31.3737 22.0284 30.2645 22.4301C29.1648 22.8412 27.9886 23.0468 26.736 23.0468ZM24.0825 14.9859C24.0825 15.5022 24.1351 16.0138 24.2403 16.5206C24.355 17.0274 24.5367 17.4864 24.7853 17.8976C25.0435 18.3087 25.3782 18.6434 25.7893 18.9016C26.2005 19.1502 26.7121 19.2745 27.3241 19.2745C27.7639 19.2554 28.1464 19.1598 28.4715 18.9877C28.8062 18.806 29.0931 18.5765 29.3321 18.2992C29.5712 18.0123 29.7672 17.692 29.9202 17.3382C30.0828 16.9844 30.2071 16.621 30.2931 16.2481C30.3888 15.8656 30.4557 15.4927 30.4939 15.1293C30.5322 14.7659 30.5513 14.436 30.5513 14.1396C30.5513 13.6424 30.4748 13.1547 30.3218 12.6766C30.1784 12.1985 29.9632 11.7777 29.6764 11.4144C29.3895 11.051 29.0309 10.7594 28.6006 10.5394C28.1799 10.3099 27.6922 10.1952 27.1376 10.1952C26.5639 10.1952 26.081 10.3673 25.6889 10.7115C25.2969 11.0462 24.9813 11.4622 24.7423 11.9594C24.5128 12.4567 24.3454 12.9826 24.2403 13.5372C24.1351 14.0822 24.0825 14.5651 24.0825 14.9859Z" fill="#BAC4D1"/>
<path d="M58.5639 22.8173C58.4587 22.846 58.32 22.889 58.1479 22.9464C57.9758 23.0134 57.8085 23.0468 57.6459 23.0468C57.512 23.0468 57.3925 23.0134 57.2873 22.9464C57.1917 22.8795 57.1439 22.7647 57.1439 22.6022V22.5161C57.2108 21.8181 57.2682 21.2539 57.316 20.8236C57.3638 20.3837 57.4021 20.0299 57.4307 19.7622C57.4594 19.4945 57.4833 19.2936 57.5025 19.1598C57.5216 19.0163 57.5407 18.8873 57.5598 18.7725C57.579 18.6482 57.5933 18.5143 57.6029 18.3709C57.622 18.2275 57.6459 18.0267 57.6746 17.7685C57.7033 17.5007 57.7367 17.1517 57.775 16.7214C57.8228 16.2815 57.8802 15.7078 57.9471 15.0002C57.9854 14.6177 58.0236 14.24 58.0619 13.8671C58.1097 13.4846 58.1336 13.1356 58.1336 12.82C58.1336 12.4184 58.1097 12.055 58.0619 11.7299C58.0236 11.3952 57.9471 11.1132 57.8324 10.8837C57.7272 10.6446 57.579 10.4581 57.3877 10.3243C57.1965 10.1904 56.9526 10.1235 56.6562 10.1235C56.4745 10.1235 56.2355 10.1617 55.939 10.2382C55.6522 10.3147 55.3605 10.4534 55.0641 10.6542C54.7677 10.8454 54.4999 11.1036 54.2609 11.4287C54.0218 11.7443 53.8688 12.1459 53.8019 12.6336V12.6909C53.6871 13.781 53.582 14.7277 53.4863 15.5309C53.4003 16.3246 53.3238 17.0083 53.2568 17.582C53.1899 18.1557 53.1325 18.6339 53.0847 19.0163C53.0465 19.3988 53.013 19.7239 52.9843 19.9917C52.9556 20.2499 52.9317 20.465 52.9126 20.6371C52.903 20.8093 52.8983 20.9718 52.8983 21.1248C52.8983 21.2013 52.8983 21.2682 52.8983 21.3256C52.9078 21.3734 52.9126 21.4165 52.9126 21.4547C52.9126 21.5312 52.8743 21.5981 52.7978 21.6555C52.7309 21.7033 52.5731 21.7655 52.3245 21.842L48.9538 22.8173C48.8486 22.846 48.71 22.889 48.5379 22.9464C48.3658 23.0134 48.1984 23.0468 48.0359 23.0468C47.902 23.0468 47.7825 23.0134 47.6773 22.9464C47.5817 22.8795 47.5338 22.7647 47.5338 22.6022V22.5161C47.6008 21.8181 47.6534 21.2539 47.6916 20.8236C47.7394 20.3837 47.7777 20.0299 47.8064 19.7622C47.8446 19.4945 47.8733 19.2936 47.8924 19.1598C47.9115 19.0163 47.9259 18.8873 47.9355 18.7725C47.9546 18.6482 47.9737 18.5143 47.9928 18.3709C48.012 18.2275 48.0311 18.0267 48.0502 17.7685C48.0789 17.5007 48.1124 17.1517 48.1506 16.7214C48.1984 16.2815 48.2558 15.7078 48.3227 15.0002C48.361 14.6177 48.3992 14.24 48.4375 13.8671C48.4853 13.4846 48.5092 13.1356 48.5092 12.82C48.5092 12.4184 48.4901 12.055 48.4518 11.7299C48.4136 11.3952 48.3419 11.1132 48.2367 10.8837C48.141 10.6446 48.0072 10.4581 47.8351 10.3243C47.6629 10.1904 47.443 10.1235 47.1753 10.1235C46.984 10.1235 46.7211 10.1713 46.3864 10.2669C46.0613 10.3625 45.7314 10.5203 45.3967 10.7402C45.0716 10.9602 44.7799 11.2518 44.5217 11.6152C44.2731 11.969 44.1297 12.4088 44.0914 12.9348C44.0149 13.6424 43.9528 14.2257 43.905 14.6847C43.8572 15.1341 43.8189 15.507 43.7902 15.8034C43.7615 16.0903 43.7376 16.3246 43.7185 16.5063C43.709 16.6784 43.6994 16.8409 43.6898 16.9939C43.6803 17.0322 43.6659 17.1421 43.6468 17.3238C43.6277 17.496 43.6038 17.7063 43.5751 17.9549C43.556 18.194 43.532 18.457 43.5034 18.7438C43.4842 19.0211 43.4651 19.2841 43.446 19.5327C43.4269 19.7718 43.4077 19.9821 43.3886 20.1638C43.3791 20.3359 43.3743 20.4411 43.3743 20.4794V20.7375C43.3743 20.8332 43.3695 20.9144 43.3599 20.9814C43.3504 21.0483 43.3217 21.1105 43.2739 21.1678C43.2261 21.2252 43.1543 21.2778 43.0587 21.3256C42.9727 21.3734 42.8484 21.426 42.6858 21.4834L38.9278 22.8173C38.8227 22.8556 38.684 22.9034 38.5119 22.9608C38.3398 23.0181 38.1724 23.0468 38.0099 23.0468C37.876 23.0468 37.7565 23.0134 37.6513 22.9464C37.5557 22.8795 37.5078 22.7647 37.5078 22.6022L38.7987 7.97197C38.8274 7.65642 38.8609 7.44127 38.8991 7.32652C38.947 7.20221 39.0569 7.12093 39.229 7.08268C40.0992 6.91056 40.9885 6.73844 41.8969 6.56632C42.8053 6.38464 43.6946 6.15515 44.5648 5.87784C44.6413 5.87784 44.6843 5.89218 44.6939 5.92087C44.713 5.94 44.7225 5.97346 44.7225 6.02128L44.5361 8.1154C44.8899 7.93372 45.2867 7.7377 45.7266 7.52733C46.1664 7.30739 46.6254 7.10659 47.1035 6.92491C47.5912 6.74322 48.0837 6.59501 48.5809 6.48026C49.0877 6.35595 49.5802 6.2938 50.0583 6.2938C50.7181 6.2938 51.3253 6.44679 51.8799 6.75279C52.444 7.04921 52.9078 7.54645 53.2712 8.24449C53.7015 7.96719 54.1557 7.70901 54.6338 7.46995C55.1215 7.2309 55.6139 7.02531 56.1112 6.85319C56.618 6.68107 57.1248 6.5472 57.6316 6.45158C58.1384 6.35595 58.6308 6.30814 59.1089 6.30814C59.7113 6.30814 60.2803 6.3942 60.8158 6.56632C61.3513 6.73844 61.815 7.02053 62.2071 7.41258C62.6087 7.80463 62.9242 8.31621 63.1537 8.94732C63.3832 9.56886 63.498 10.3291 63.498 11.2279C63.498 11.4574 63.4932 11.6965 63.4836 11.9451C63.4741 12.1841 63.455 12.4327 63.4263 12.6909L62.7665 18.8299C62.7187 19.2315 62.69 19.6044 62.6804 19.9487C62.6708 20.2833 62.6661 20.6754 62.6661 21.1248C62.6661 21.2013 62.6661 21.2682 62.6661 21.3256C62.6756 21.3734 62.6804 21.4165 62.6804 21.4547C62.6804 21.5408 62.6422 21.6077 62.5657 21.6555C62.4987 21.7033 62.341 21.7655 62.0923 21.842L58.5639 22.8173Z" fill="#BAC4D1"/>
<path d="M74.2125 6.2938C75.1209 6.2938 75.9432 6.46592 76.6795 6.81016C77.4254 7.14484 78.0613 7.5847 78.5872 8.12975C79.1227 8.66523 79.5338 9.26765 79.8207 9.93701C80.1076 10.6064 80.251 11.2757 80.251 11.9451C80.251 12.5379 80.0693 13.1356 79.706 13.738C79.3426 14.3309 78.831 14.8663 78.1712 15.3444C77.521 15.8226 76.7369 16.2098 75.8189 16.5063C74.9009 16.8027 73.8921 16.9509 72.7925 16.9509C72.2187 16.9509 71.6163 16.8935 70.9852 16.7788C71.0235 17.19 71.143 17.5438 71.3438 17.8402C71.5446 18.1366 71.798 18.3805 72.104 18.5717C72.41 18.7629 72.7542 18.9064 73.1367 19.002C73.5288 19.0881 73.9304 19.1311 74.3416 19.1311C74.8005 19.1311 75.2404 19.0928 75.6611 19.0163C76.0914 18.9303 76.5026 18.8203 76.8947 18.6864C77.2867 18.5526 77.6644 18.4044 78.0278 18.2418C78.3912 18.0792 78.7354 17.9167 79.0605 17.7541C79.1466 17.735 79.2183 17.7207 79.2757 17.7111C79.3426 17.692 79.4047 17.6824 79.4621 17.6824C79.4621 17.6824 79.4573 17.7589 79.4478 17.9119C79.4478 18.0649 79.4478 18.2801 79.4478 18.5574C79.4478 18.8347 79.443 19.1693 79.4334 19.5614C79.4334 19.9534 79.4287 20.3885 79.4191 20.8666C79.4478 20.9144 79.4669 20.9623 79.4765 21.0101C79.486 21.0579 79.4908 21.0961 79.4908 21.1248C79.4908 21.2396 79.3856 21.3639 79.1753 21.4977C78.9649 21.6316 78.6876 21.7703 78.3433 21.9137C78.0087 22.0571 77.6214 22.1958 77.1815 22.3297C76.7512 22.4635 76.3114 22.5831 75.8619 22.6882C75.4125 22.803 74.9774 22.889 74.5567 22.9464C74.136 23.0134 73.7678 23.0468 73.4523 23.0468C72.4195 23.0468 71.4155 22.8651 70.4402 22.5018C69.4744 22.148 68.6138 21.6364 67.8584 20.967C67.1125 20.2977 66.5149 19.4849 66.0654 18.5287C65.616 17.5724 65.3913 16.4967 65.3913 15.3014C65.3913 14.0488 65.6065 12.8774 66.0368 11.7873C66.4671 10.6876 67.0695 9.73142 67.844 8.91863C68.6281 8.10584 69.5604 7.46517 70.641 6.99662C71.7215 6.52807 72.912 6.2938 74.2125 6.2938ZM74.0403 10.1091C73.6483 10.1091 73.2849 10.1952 72.9502 10.3673C72.6251 10.5299 72.3239 10.7689 72.0466 11.0845C71.7789 11.3905 71.5446 11.7634 71.3438 12.2033C71.143 12.6336 70.9804 13.1117 70.8561 13.6376C71.841 13.4655 72.6586 13.2838 73.3088 13.0925C73.9591 12.9013 74.4802 12.7101 74.8723 12.5188C75.2643 12.318 75.5416 12.122 75.7042 11.9307C75.8667 11.7299 75.948 11.5387 75.948 11.357C75.948 11.1849 75.8811 11.0223 75.7472 10.8693C75.6229 10.7163 75.4651 10.5825 75.2739 10.4677C75.0826 10.353 74.8723 10.2669 74.6428 10.2095C74.4228 10.1426 74.222 10.1091 74.0403 10.1091Z" fill="#BAC4D1"/>
<path d="M83.9803 22.301C83.789 22.301 83.5834 22.2914 83.3635 22.2723C83.1531 22.2532 82.9571 22.2197 82.7754 22.1719C82.6033 22.1145 82.4551 22.0428 82.3308 21.9567C82.216 21.8707 82.1587 21.7559 82.1587 21.6125C82.1587 21.6029 82.1635 21.5886 82.173 21.5695C82.1826 21.5503 82.1874 21.5312 82.1874 21.5121L87.2506 11.1275C86.8489 11.1275 86.3995 11.1371 85.9023 11.1562C85.4051 11.1658 84.903 11.1801 84.3962 11.1992C83.899 11.2088 83.4209 11.2183 82.9619 11.2279C82.5125 11.2375 82.13 11.2423 81.8144 11.2423C81.7188 11.2423 81.6471 11.2136 81.5993 11.1562C81.5515 11.0893 81.5276 11.0175 81.5276 10.941V10.8837L82.9762 7.42692C83.0527 7.16874 83.1962 7.0014 83.4065 6.92491C83.6169 6.84841 83.8273 6.81016 84.0377 6.81016C85.7206 6.81016 87.3701 6.83885 88.9861 6.89622C90.6117 6.95359 92.2612 6.98228 93.9346 6.98228C94.0397 6.98228 94.1449 7.01575 94.2501 7.08268C94.3649 7.14962 94.4222 7.2309 94.4222 7.32652C94.4222 7.33608 94.4127 7.36955 94.3935 7.42692L89.8467 17.3525C89.8467 17.3716 89.8706 17.386 89.9184 17.3955C89.9758 17.4051 90.0427 17.4147 90.1192 17.4242C90.2053 17.4338 90.2866 17.4386 90.3631 17.4386C90.4491 17.4386 90.5208 17.4386 90.5782 17.4386C91.1806 17.4386 91.7639 17.4242 92.3281 17.3955C92.8923 17.3669 93.4612 17.3525 94.035 17.3525C94.1401 17.3525 94.231 17.3764 94.3075 17.4242C94.384 17.472 94.4222 17.5677 94.4222 17.7111C94.4222 17.7302 94.4127 17.7398 94.3935 17.7398L92.5863 21.5121C92.5002 21.6938 92.3472 21.8372 92.1273 21.9424C91.9074 22.0476 91.6396 22.1289 91.3241 22.1862C91.0085 22.234 90.6547 22.2675 90.2627 22.2866C89.8802 22.2962 89.4833 22.301 89.0722 22.301H83.9803Z" fill="#BAC4D1"/>
<path d="M102.325 17.625C102.421 17.8163 102.555 18.0123 102.727 18.2131C102.909 18.4044 103.114 18.5813 103.344 18.7438C103.583 18.9064 103.841 19.0403 104.118 19.1454C104.396 19.2411 104.683 19.2889 104.979 19.2889C105.39 19.2889 105.777 19.1311 106.141 18.8155C106.504 18.4904 106.82 18.0601 107.087 17.5246C107.365 16.9796 107.58 16.3628 107.733 15.6743C107.886 14.9763 107.962 14.2544 107.962 13.5085C107.962 13.0495 107.919 12.6144 107.833 12.2033C107.757 11.7921 107.632 11.4335 107.46 11.1275C107.288 10.8215 107.063 10.5777 106.786 10.396C106.518 10.2143 106.193 10.1235 105.811 10.1235C105.189 10.1235 104.62 10.3052 104.104 10.6685C103.588 11.0319 103.153 11.4957 102.799 12.0598L102.325 17.625ZM96.9897 23.0038C96.8558 23.0325 96.7506 23.0468 96.6741 23.0468C96.3681 23.0468 96.2151 22.8651 96.2151 22.5018C96.2151 22.454 96.2151 22.4062 96.2151 22.3583C96.2247 22.3105 96.2343 22.2579 96.2438 22.2006L97.9077 1.90474C97.9077 1.87605 97.9077 1.84736 97.9077 1.81868C97.9172 1.78999 97.922 1.76608 97.922 1.74696C97.922 1.70871 97.9172 1.67524 97.9077 1.64655C97.9077 1.61787 97.9077 1.59396 97.9077 1.57484C97.9077 1.48878 97.9363 1.42184 97.9937 1.37403C98.0607 1.31666 98.2232 1.2545 98.4814 1.18757L102.512 0.226564C102.617 0.207439 102.756 0.164409 102.928 0.0974737C103.1 0.0305381 103.267 -0.00292969 103.43 -0.00292969C103.554 -0.00292969 103.669 0.025757 103.774 0.0831304C103.889 0.140504 103.946 0.250469 103.946 0.413027C103.946 0.432152 103.941 0.451276 103.932 0.470401C103.932 0.489525 103.932 0.50865 103.932 0.527774C103.922 0.575585 103.898 0.785954 103.86 1.15888C103.822 1.53181 103.779 1.98601 103.731 2.5215C103.683 3.04742 103.631 3.61637 103.573 4.22836C103.516 4.83078 103.463 5.39973 103.416 5.93521C103.368 6.46114 103.325 6.91056 103.286 7.28349C103.248 7.65642 103.224 7.86679 103.215 7.9146C103.913 7.45561 104.635 7.07312 105.381 6.76713C106.126 6.45158 106.872 6.2938 107.618 6.2938C108.603 6.2938 109.454 6.49939 110.171 6.91056C110.888 7.31218 111.481 7.85244 111.95 8.53136C112.418 9.20072 112.763 9.97526 112.983 10.855C113.212 11.7347 113.327 12.6431 113.327 13.5802C113.327 14.3356 113.255 15.0958 113.112 15.8608C112.978 16.6162 112.777 17.343 112.509 18.041C112.251 18.739 111.921 19.3941 111.52 20.006C111.127 20.618 110.673 21.1487 110.157 21.5981C109.65 22.0476 109.081 22.4014 108.45 22.6596C107.819 22.9177 107.135 23.0468 106.399 23.0468C105.51 23.0468 104.697 22.8508 103.961 22.4587C103.224 22.0667 102.541 21.5599 101.909 20.9384C101.89 21.1678 101.876 21.3495 101.866 21.4834C101.857 21.6173 101.823 21.7225 101.766 21.799C101.718 21.8659 101.642 21.9233 101.537 21.9711C101.431 22.0093 101.274 22.0524 101.063 22.1002C100.958 22.1289 100.772 22.1767 100.504 22.2436C100.246 22.301 99.9301 22.3679 99.5572 22.4444C99.1938 22.5305 98.7874 22.6213 98.338 22.7169C97.8981 22.8125 97.4487 22.9082 96.9897 23.0038Z" fill="#BAC4D1"/>
<path d="M130.367 20.5224C130.338 20.8379 130.3 21.0579 130.252 21.1822C130.204 21.2969 130.099 21.3734 129.936 21.4117C129.124 21.6412 128.273 21.8755 127.383 22.1145C126.504 22.344 125.648 22.65 124.816 23.0325C124.787 23.042 124.744 23.0468 124.687 23.0468C124.61 23.0468 124.562 23.0277 124.543 22.9895C124.534 22.9512 124.529 22.9082 124.529 22.8604C124.529 22.8412 124.529 22.8078 124.529 22.76C124.538 22.7121 124.553 22.6213 124.572 22.4874C124.591 22.3631 124.615 22.1862 124.644 21.9567C124.682 21.7272 124.73 21.4212 124.787 21.0388C123.716 21.7368 122.765 22.2436 121.933 22.5592C121.11 22.8843 120.379 23.0468 119.738 23.0468C118.141 23.0468 116.975 22.6643 116.238 21.8994C115.512 21.1248 115.148 19.9726 115.148 18.4426C115.148 18.1653 115.153 17.8832 115.163 17.5964C115.172 17.2999 115.201 16.9987 115.249 16.6927C115.354 15.5644 115.445 14.5986 115.521 13.7954C115.598 12.9826 115.66 12.2941 115.708 11.7299C115.756 11.1658 115.794 10.7068 115.823 10.353C115.861 9.9896 115.889 9.68839 115.909 9.44933C115.937 9.21028 115.956 9.01425 115.966 8.86126C115.985 8.6987 116.004 8.54092 116.023 8.38793C116.062 8.08194 116.095 7.86679 116.124 7.74248C116.162 7.61817 116.272 7.53689 116.454 7.49864C116.903 7.41258 117.329 7.33608 117.73 7.26915C118.141 7.19265 118.543 7.11615 118.935 7.03965C119.337 6.95359 119.743 6.86275 120.154 6.76713C120.565 6.67151 121 6.55676 121.459 6.42289C121.479 6.42289 121.498 6.42289 121.517 6.42289C121.536 6.41333 121.555 6.40855 121.574 6.40855C121.689 6.40855 121.746 6.44679 121.746 6.52329V6.55198C121.708 6.87709 121.675 7.18309 121.646 7.46995C121.617 7.75682 121.589 8.05325 121.56 8.35924C121.531 8.65567 121.498 8.976 121.459 9.32024C121.431 9.66448 121.393 10.0661 121.345 10.5251C121.297 10.9745 121.24 11.4957 121.173 12.0885C121.106 12.6814 121.024 13.3698 120.929 14.154C120.871 14.7277 120.814 15.3014 120.757 15.8752C120.699 16.4393 120.671 16.9652 120.671 17.4529C120.671 17.7207 120.69 17.9693 120.728 18.1988C120.766 18.4187 120.833 18.61 120.929 18.7725C121.034 18.9255 121.168 19.045 121.33 19.1311C121.493 19.2172 121.703 19.2602 121.961 19.2602C122.162 19.2602 122.435 19.2172 122.779 19.1311C123.123 19.0355 123.467 18.8777 123.812 18.6578C124.156 18.4283 124.457 18.1318 124.715 17.7685C124.983 17.3955 125.136 16.927 125.174 16.3628C125.241 15.4162 125.299 14.6273 125.346 13.9962C125.404 13.3555 125.452 12.82 125.49 12.3897C125.528 11.9499 125.562 11.5817 125.59 11.2853C125.619 10.9889 125.643 10.7068 125.662 10.439C125.691 10.1617 125.715 9.87007 125.734 9.56408C125.753 9.24853 125.772 8.85648 125.791 8.38793C125.82 8.07237 125.853 7.85722 125.892 7.74248C125.939 7.61817 126.049 7.53689 126.221 7.49864C127.092 7.32652 127.981 7.1544 128.889 6.98228C129.798 6.8006 130.687 6.5711 131.557 6.2938C131.634 6.2938 131.677 6.30814 131.686 6.33683C131.705 6.35595 131.715 6.38942 131.715 6.43723L130.367 20.5224Z" fill="#BAC4D1"/>
<path d="M135.502 22.301C135.31 22.301 135.105 22.2914 134.885 22.2723C134.674 22.2532 134.478 22.2197 134.297 22.1719C134.125 22.1145 133.976 22.0428 133.852 21.9567C133.737 21.8707 133.68 21.7559 133.68 21.6125C133.68 21.6029 133.685 21.5886 133.694 21.5695C133.704 21.5503 133.709 21.5312 133.709 21.5121L138.772 11.1275C138.37 11.1275 137.921 11.1371 137.424 11.1562C136.926 11.1658 136.424 11.1801 135.918 11.1992C135.42 11.2088 134.942 11.2183 134.483 11.2279C134.034 11.2375 133.651 11.2423 133.336 11.2423C133.24 11.2423 133.168 11.2136 133.121 11.1562C133.073 11.0893 133.049 11.0175 133.049 10.941V10.8837L134.498 7.42692C134.574 7.16874 134.717 7.0014 134.928 6.92491C135.138 6.84841 135.349 6.81016 135.559 6.81016C137.242 6.81016 138.891 6.83885 140.507 6.89622C142.133 6.95359 143.782 6.98228 145.456 6.98228C145.561 6.98228 145.666 7.01575 145.771 7.08268C145.886 7.14962 145.944 7.2309 145.944 7.32652C145.944 7.33608 145.934 7.36955 145.915 7.42692L141.368 17.3525C141.368 17.3716 141.392 17.386 141.44 17.3955C141.497 17.4051 141.564 17.4147 141.641 17.4242C141.727 17.4338 141.808 17.4386 141.884 17.4386C141.97 17.4386 142.042 17.4386 142.1 17.4386C142.702 17.4386 143.285 17.4242 143.849 17.3955C144.414 17.3669 144.983 17.3525 145.556 17.3525C145.661 17.3525 145.752 17.3764 145.829 17.4242C145.905 17.472 145.944 17.5677 145.944 17.7111C145.944 17.7302 145.934 17.7398 145.915 17.7398L144.108 21.5121C144.022 21.6938 143.869 21.8372 143.649 21.9424C143.429 22.0476 143.161 22.1289 142.845 22.1862C142.53 22.234 142.176 22.2675 141.784 22.2866C141.401 22.2962 141.005 22.301 140.593 22.301H135.502Z" fill="#BAC4D1"/>
<path d="M149.558 22.301C149.367 22.301 149.161 22.2914 148.941 22.2723C148.731 22.2532 148.535 22.2197 148.353 22.1719C148.181 22.1145 148.033 22.0428 147.909 21.9567C147.794 21.8707 147.736 21.7559 147.736 21.6125C147.736 21.6029 147.741 21.5886 147.751 21.5695C147.76 21.5503 147.765 21.5312 147.765 21.5121L152.828 11.1275C152.427 11.1275 151.977 11.1371 151.48 11.1562C150.983 11.1658 150.481 11.1801 149.974 11.1992C149.477 11.2088 148.999 11.2183 148.54 11.2279C148.09 11.2375 147.708 11.2423 147.392 11.2423C147.297 11.2423 147.225 11.2136 147.177 11.1562C147.129 11.0893 147.105 11.0175 147.105 10.941V10.8837L148.554 7.42692C148.631 7.16874 148.774 7.0014 148.984 6.92491C149.195 6.84841 149.405 6.81016 149.615 6.81016C151.298 6.81016 152.948 6.83885 154.564 6.89622C156.189 6.95359 157.839 6.98228 159.512 6.98228C159.618 6.98228 159.723 7.01575 159.828 7.08268C159.943 7.14962 160 7.2309 160 7.32652C160 7.33608 159.99 7.36955 159.971 7.42692L155.424 17.3525C155.424 17.3716 155.448 17.386 155.496 17.3955C155.554 17.4051 155.62 17.4147 155.697 17.4242C155.783 17.4338 155.864 17.4386 155.941 17.4386C156.027 17.4386 156.099 17.4386 156.156 17.4386C156.758 17.4386 157.342 17.4242 157.906 17.3955C158.47 17.3669 159.039 17.3525 159.613 17.3525C159.718 17.3525 159.809 17.3764 159.885 17.4242C159.962 17.472 160 17.5677 160 17.7111C160 17.7302 159.99 17.7398 159.971 17.7398L158.164 21.5121C158.078 21.6938 157.925 21.8372 157.705 21.9424C157.485 22.0476 157.217 22.1289 156.902 22.1862C156.586 22.234 156.232 22.2675 155.84 22.2866C155.458 22.2962 155.061 22.301 154.65 22.301H149.558Z" fill="#BAC4D1"/>
</svg>
