<svg xmlns="http://www.w3.org/2000/svg" fill="none" viewBox="6.67 3.83 26.67 33.33"><path fill-rule="evenodd" clip-rule="evenodd" d="M20.0003 37.1668C12.812 34.9598 7.55078 28.2313 6.66699 22.1668V10.5002L20.0003 3.8335L33.3337 10.5002V22.1668C32.4499 28.2313 27.1886 34.9598 20.0003 37.1668ZM25.0003 30.5885V30.5002H25.0955L25.0003 30.5885ZM12.3213 21.8811C11.6699 21.2297 11.6705 20.1749 12.3213 19.524C12.9722 18.8732 14.027 18.8726 14.6784 19.524L18.2139 23.0596L25.285 15.9885C25.9358 15.3377 26.9906 15.3371 27.642 15.9885C28.2934 16.6399 28.2928 17.6947 27.642 18.3455L19.3924 26.5951C18.7416 27.2459 17.6868 27.2465 17.0354 26.5951L12.3213 21.8811Z" fill="#17B5BF"></path></svg>
