<svg width="160" height="34" viewBox="0 0 160 34" fill="none" xmlns="http://www.w3.org/2000/svg">
<path d="M0 6.43037V0.156738H9.24779V6.43037H0ZM0 33.8484V9.31159H9.24779V33.8484H0Z" fill="#BAC4D1"/>
<path d="M43.2652 33.8484V22.3236C43.2652 20.8984 43.3116 19.4423 43.4046 17.9553C43.5285 16.4372 43.6524 15.167 43.7763 14.1446C43.9003 13.1222 43.9777 12.4716 44.0087 12.1928H43.8228L37.921 33.8484H29.8814L23.9331 12.2393H23.7472C23.7782 12.5181 23.8556 13.1687 23.9796 14.1911C24.1345 15.1825 24.2739 16.4372 24.3978 17.9553C24.5217 19.4423 24.5837 20.8984 24.5837 22.3236V33.8484H15.15V1.87618H29.6491L34.4821 20.3253H34.668L39.4545 1.87618H53.4424V33.8484H43.2652Z" fill="#BAC4D1"/>
<path d="M81.1084 33.8484L79.7607 29.3407H68.5612L67.2135 33.8484H56.711L68.3753 1.87618H80.3184L91.9827 33.8484H81.1084ZM70.6988 22.1841H77.6231L74.2771 10.7987H74.0912L70.6988 22.1841Z" fill="#BAC4D1"/>
<path d="M109.703 1.87618C120.887 1.87618 126.479 7.20489 126.479 17.8623C126.479 28.5197 120.887 33.8484 109.703 33.8484H95.8547V1.87618H109.703ZM106.125 26.1807H109.517C113.824 26.1807 115.977 23.8726 115.977 19.2564V16.4682C115.977 11.852 113.824 9.54394 109.517 9.54394H106.125V26.1807Z" fill="#BAC4D1"/>
<path d="M132.024 1.87618H159.675V9.54394H142.294V13.9587H157.165V21.3012H142.294V26.1807H160V33.8484H132.024V1.87618Z" fill="#BAC4D1"/>
</svg>
