<svg width="160" height="34" viewBox="0 0 160 34" fill="none" xmlns="http://www.w3.org/2000/svg">
<path d="M8.34996 3.69075C8.34996 3.93633 8.2681 4.12734 8.10437 4.26378C7.94065 4.37293 7.79057 4.52301 7.65413 4.71403C7.38126 4.95961 7.13567 5.21884 6.91737 5.49172C6.72636 5.7373 6.49441 5.98289 6.22154 6.22848C6.11239 6.33763 5.96231 6.48771 5.7713 6.67872C5.58028 6.84245 5.37563 7.01981 5.15733 7.21083C4.96632 7.37455 4.76166 7.52463 4.54336 7.66107C4.35235 7.79751 4.18862 7.86573 4.05219 7.86573C3.83389 7.86573 3.54737 7.79751 3.19263 7.66107C2.86518 7.49735 2.57866 7.3882 2.33308 7.33362C2.14207 7.30633 1.9647 7.29269 1.80097 7.29269C1.66453 7.2654 1.5281 7.18354 1.39166 7.0471C0.900486 6.93795 0.58668 6.77423 0.450243 6.55593C0.313806 6.31034 0.163725 6.06475 0 5.81917C0 5.71002 0.0409312 5.6418 0.122794 5.61451C0.204656 5.58722 0.272875 5.53265 0.327449 5.45079C0.600324 5.09605 0.832267 4.80953 1.02328 4.59123C1.21429 4.34564 1.43259 4.10006 1.67818 3.85447C2.14207 3.44516 2.57866 3.0222 2.98798 2.5856C3.42458 2.149 3.87482 1.73969 4.33871 1.35767C4.557 1.33038 4.72073 1.24852 4.82988 1.11208C4.93903 0.975643 5.10275 0.907425 5.32105 0.907425C5.53935 0.907425 5.71672 0.975643 5.85316 1.11208C6.01688 1.24852 6.15332 1.41224 6.26247 1.60325C6.39891 1.76698 6.5217 1.94435 6.63085 2.13536C6.76729 2.29909 6.91737 2.42188 7.08109 2.50374C7.27211 2.64018 7.53134 2.81755 7.85879 3.03585C8.18624 3.25415 8.34996 3.47245 8.34996 3.69075ZM2.74239 11.3039C2.9334 11.4131 3.06984 11.5632 3.1517 11.7542C3.26085 11.9179 3.41093 12.0407 3.60194 12.1226C3.76567 12.2044 3.94304 12.2454 4.13405 12.2454C4.32506 12.2454 4.48879 12.2726 4.62522 12.3272C4.73437 12.3818 4.81624 12.45 4.87081 12.5319C4.92539 12.6137 4.97996 12.6956 5.03454 12.7775C5.19826 12.9139 5.44385 13.0367 5.7713 13.1458C6.12603 13.255 6.35798 13.3778 6.46713 13.5142C6.65814 13.7598 6.79458 14.0736 6.87644 14.4556C6.98559 14.8377 7.06745 15.247 7.12203 15.6836C7.1766 16.0929 7.21753 16.5159 7.24482 16.9524C7.27211 17.3618 7.31304 17.7165 7.36761 18.0167C7.42219 18.6443 7.49041 19.2719 7.57227 19.8995C7.65413 20.4998 7.69506 21.1138 7.69506 21.7414C7.69506 22.369 7.66778 23.0103 7.6132 23.6652C7.55863 24.3201 7.53134 24.9613 7.53134 25.5889C7.53134 25.9164 7.51769 26.3257 7.49041 26.8169C7.49041 27.308 7.38126 27.6901 7.16296 27.9629C7.13567 28.0721 7.12203 28.2631 7.12203 28.536V29.8458C7.12203 30.0095 7.13567 30.1732 7.16296 30.3369C7.19024 30.5007 7.20389 30.678 7.20389 30.8691C7.20389 31.1692 7.12203 31.3875 6.9583 31.524C6.87644 31.4967 6.78093 31.483 6.67178 31.483C6.58992 31.483 6.50806 31.483 6.4262 31.483C6.12603 31.483 5.90773 31.5376 5.7713 31.6467C5.47113 31.6195 5.18462 31.5922 4.91174 31.5649C4.63887 31.5376 4.35235 31.524 4.05219 31.524C3.5883 31.524 3.08348 31.5922 2.53773 31.7286C2.42858 31.4557 2.37401 31.1692 2.37401 30.8691C2.4013 30.5689 2.34672 30.296 2.21028 30.0504C2.183 29.9686 2.15571 29.9003 2.12842 29.8458C2.12842 29.7639 2.12842 29.682 2.12842 29.6002C2.21028 29.2727 2.25122 29.0544 2.25122 28.9453C2.25122 28.8088 2.25122 28.6724 2.25122 28.536C2.25122 28.1539 2.23757 27.7719 2.21028 27.3899C2.183 26.9806 2.19664 26.5849 2.25122 26.2029C2.25122 26.0665 2.26486 25.9437 2.29215 25.8345C2.34672 25.7254 2.37401 25.6026 2.37401 25.4661C2.37401 25.3297 2.34672 25.2342 2.29215 25.1796C2.23757 25.125 2.21028 25.0568 2.21028 24.975C2.21028 24.8931 2.21028 24.7567 2.21028 24.5656C2.23757 24.3746 2.2785 24.2518 2.33308 24.1973C2.33308 23.979 2.33308 23.7743 2.33308 23.5833C2.36036 23.365 2.37401 23.1603 2.37401 22.9693C2.37401 22.5327 2.36036 22.0961 2.33308 21.6595C2.30579 21.2229 2.29215 20.8 2.29215 20.3907C2.29215 20.1997 2.2785 20.0769 2.25122 20.0223C2.22393 19.9677 2.19664 19.9268 2.16935 19.8995C2.14207 19.8722 2.10113 19.8586 2.04656 19.8586C1.99198 19.8313 1.95105 19.7767 1.92377 19.6948C2.03292 18.4942 1.99198 17.2935 1.80097 16.0929C1.60996 14.8922 1.51445 13.678 1.51445 12.45C1.51445 12.259 1.54174 12.1226 1.59632 12.0407C1.65089 11.9316 1.71911 11.8497 1.80097 11.7951C1.88283 11.7405 1.95105 11.686 2.00563 11.6314C2.08749 11.5495 2.14207 11.4404 2.16935 11.3039C2.38765 11.3585 2.57866 11.3585 2.74239 11.3039Z" fill="#BAC4D1"/>
<path d="M25.9504 0.989287C26.387 0.934712 26.7144 0.975643 26.9327 1.11208C27.1783 1.22123 27.4239 1.28945 27.6695 1.31674C27.8059 1.34402 27.9424 1.35767 28.0788 1.35767C28.2425 1.33038 28.4062 1.31674 28.57 1.31674C28.9247 1.31674 29.1976 1.35767 29.3886 1.43953C29.6069 1.52139 29.8252 1.69876 30.0435 1.97164C30.0981 2.02621 30.1663 2.10807 30.2481 2.21722C30.3573 2.29909 30.4119 2.38095 30.4119 2.46281C30.4119 2.68111 30.3573 2.87212 30.2481 3.03585C30.139 3.19957 30.0844 3.43151 30.0844 3.73168C30.0844 4.19556 30.139 4.65945 30.2481 5.12334C30.3573 5.55994 30.4255 6.01018 30.4528 6.47407C30.5892 8.16589 30.6575 9.87135 30.6575 11.5905C30.6847 13.2823 30.6984 14.9605 30.6984 16.625C30.6984 16.8433 30.6847 17.048 30.6575 17.239C30.6575 17.4027 30.6029 17.5528 30.4937 17.6892V18.2213C30.4664 18.9308 30.4801 19.6539 30.5347 20.3907C30.5892 21.1001 30.6165 21.8096 30.6165 22.5191C30.6165 23.1467 30.5756 23.7743 30.4937 24.4019C30.4392 25.0295 30.4119 25.6708 30.4119 26.3257C30.4119 26.926 30.4528 27.5127 30.5347 28.0857C30.6165 28.6588 30.6575 29.2454 30.6575 29.8458C30.521 30.0914 30.4392 30.2824 30.4119 30.4188C30.3846 30.5552 30.33 30.678 30.2481 30.7872C30.1663 30.8418 30.0708 30.8554 29.9616 30.8281C29.8798 30.8008 29.8115 30.8281 29.757 30.91C29.6205 31.0737 29.525 31.2647 29.4705 31.483C29.4159 31.7013 29.2794 31.8787 29.0611 32.0151C29.0066 32.3971 28.8565 32.6837 28.6109 32.8747C28.3926 33.093 28.2289 33.3659 28.1197 33.6933C27.7923 33.7206 27.5603 33.7069 27.4239 33.6524C27.3147 33.5978 27.1919 33.5432 27.0555 33.4886C27.0282 33.0248 27.0282 32.6837 27.0555 32.4654C27.1101 32.2744 27.1374 32.0697 27.1374 31.8514C27.1374 31.5785 27.0692 31.3739 26.9327 31.2374C26.7963 31.101 26.7008 30.9236 26.6462 30.7053C26.346 30.5143 26.1414 30.3915 26.0322 30.3369C25.9231 30.2551 25.8276 30.1596 25.7457 30.0504C25.582 29.8321 25.4456 29.6002 25.3364 29.3546C25.2273 29.109 25.1045 28.8771 24.968 28.6588C24.586 28.0312 24.1903 27.3899 23.781 26.735C23.399 26.0801 22.976 25.4388 22.5122 24.8112C22.4303 24.6748 22.3348 24.552 22.2256 24.4429C22.1165 24.3337 22.021 24.2109 21.9391 24.0745C21.4752 23.3377 21.0386 22.5873 20.6293 21.8233C20.22 21.0592 19.7425 20.3361 19.1967 19.6539C18.9784 19.381 18.8147 19.0809 18.7056 18.7534C18.5964 18.3987 18.4327 18.0985 18.2144 17.8529C18.1871 17.9894 18.1734 18.1395 18.1734 18.3032C18.1734 18.4669 18.1734 18.617 18.1734 18.7534C18.1734 19.6812 18.1871 20.609 18.2144 21.5367C18.269 22.4372 18.2962 23.3514 18.2962 24.2791C18.2962 24.4701 18.269 24.6475 18.2144 24.8112C18.1871 24.9477 18.1734 25.1114 18.1734 25.3024C18.1734 25.5753 18.1871 25.8345 18.2144 26.0801C18.2417 26.3257 18.2553 26.5713 18.2553 26.8169C18.2553 27.117 18.2417 27.4035 18.2144 27.6764C18.2144 27.9493 18.2007 28.2222 18.1734 28.495C18.1189 28.8498 18.0507 29.1909 17.9688 29.5183C17.8869 29.8185 17.846 30.1323 17.846 30.4597C17.846 30.6508 17.8596 30.8281 17.8869 30.9918C17.9415 31.1556 17.9688 31.3057 17.9688 31.4421C17.7778 31.7423 17.5322 31.8923 17.232 31.8923C16.9592 31.8923 16.7272 32.0015 16.5362 32.2198C16.3725 32.1925 16.236 32.2061 16.1269 32.2607C16.045 32.3153 15.9632 32.3426 15.8813 32.3426C15.7721 32.3426 15.6766 32.3289 15.5948 32.3016C15.5402 32.2744 15.472 32.2607 15.3901 32.2607C15.2537 32.2607 15.1173 32.3289 14.9808 32.4654C14.8444 32.6018 14.7079 32.67 14.5715 32.67C14.4896 32.67 14.3396 32.6154 14.1213 32.5063C13.9302 32.3971 13.7119 32.2607 13.4664 32.097C13.2481 31.9606 13.0434 31.8105 12.8524 31.6467C12.6614 31.5103 12.5659 31.4012 12.5659 31.3193C12.5386 31.1829 12.5249 30.9918 12.5249 30.7463C12.5249 30.4188 12.5386 30.105 12.5659 29.8048C12.6204 29.4774 12.675 29.1499 12.7296 28.8225C12.8115 27.8947 12.8524 26.9806 12.8524 26.0801C12.8524 25.1523 12.8524 24.2246 12.8524 23.2968C12.8524 22.9148 12.8524 22.5327 12.8524 22.1507C12.8797 21.7687 12.8933 21.3867 12.8933 21.0046C12.8933 20.1042 12.8524 19.2037 12.7705 18.3032C12.716 17.3754 12.6887 16.4613 12.6887 15.5608C12.6887 14.9332 12.716 14.3192 12.7705 13.7189C12.8251 13.0913 12.8524 12.4773 12.8524 11.877C12.8524 11.4131 12.8387 10.9629 12.8115 10.5263C12.7842 10.0897 12.7705 9.63941 12.7705 9.17552C12.7432 8.87536 12.7432 8.56156 12.7705 8.23411C12.7978 7.87937 12.8115 7.55192 12.8115 7.25176C12.8115 6.89702 12.7569 6.56957 12.6477 6.26941C12.5659 5.94196 12.5249 5.6418 12.5249 5.36892C12.5249 5.2052 12.5522 5.05512 12.6068 4.91868C12.6887 4.75496 12.7296 4.59123 12.7296 4.42751C12.7296 4.20921 12.6887 3.99091 12.6068 3.77261C12.5522 3.55431 12.5249 3.33601 12.5249 3.11771C12.5249 2.89941 12.5522 2.69475 12.6068 2.50374C12.6614 2.31273 12.6887 2.10807 12.6887 1.88977C13.0707 1.69876 13.4118 1.60325 13.7119 1.60325C14.0121 1.60325 14.2304 1.7124 14.3668 1.9307C14.3668 2.42188 14.3941 2.8039 14.4487 3.07678C14.5033 3.32236 14.5442 3.5816 14.5715 3.85447C14.5715 4.01819 14.5579 4.20921 14.5306 4.42751C14.5306 4.64581 14.5442 4.86411 14.5715 5.08241C14.5988 5.27342 14.6534 5.43714 14.7352 5.57358C14.8444 5.71002 15.0217 5.77824 15.2673 5.77824C15.3219 5.91467 15.3901 6.03747 15.472 6.14662C15.5539 6.25577 15.6084 6.3922 15.6357 6.55593C15.7994 6.44678 15.8949 6.2967 15.9222 6.10569C15.9495 5.91467 15.9495 5.7373 15.9222 5.57358C16.0587 5.62815 16.1815 5.65544 16.2906 5.65544C16.3998 5.62815 16.5089 5.6418 16.6181 5.69637C16.6726 6.0784 16.7409 6.41949 16.8227 6.71965C16.9046 6.99253 16.9319 7.31998 16.9046 7.702C17.4503 8.11131 17.9142 8.69799 18.2962 9.46204C18.7056 10.1988 19.0876 10.8673 19.4423 11.4677C19.6333 11.7678 19.8516 12.0544 20.0972 12.3272C20.3701 12.5728 20.5747 12.873 20.7112 13.2277C20.9295 13.3641 21.1068 13.5415 21.2433 13.7598C21.3797 13.9781 21.5025 14.1964 21.6117 14.4147C22.1574 15.3698 22.7577 16.2976 23.4126 17.198C24.0675 18.0985 24.7497 18.9854 25.4592 19.8586C25.4865 19.6676 25.5001 19.4902 25.5001 19.3265C25.5001 19.1354 25.5001 18.9444 25.5001 18.7534L25.4592 15.0696C25.4592 14.8513 25.4456 14.6467 25.4183 14.4556C25.4183 14.2646 25.4046 14.06 25.3773 13.8417C25.3228 13.1322 25.3091 12.4364 25.3364 11.7542C25.3637 11.072 25.3637 10.3762 25.3364 9.6667C25.2818 8.92994 25.2409 8.17953 25.2136 7.41548C25.2136 6.65143 25.1863 5.88739 25.1317 5.12334C25.1045 4.65945 25.0772 4.19556 25.0499 3.73168C25.0226 3.26779 25.009 2.8039 25.009 2.34002C25.009 1.76698 25.0635 1.24852 25.1727 0.784631C25.2273 0.730056 25.2818 0.689125 25.3364 0.661838C25.4183 0.607263 25.5138 0.579975 25.6229 0.579975C25.7866 0.579975 25.8958 0.716413 25.9504 0.989287Z" fill="#BAC4D1"/>
<path d="M35.8557 32.0151C35.7466 31.906 35.692 31.7559 35.692 31.5649C35.692 31.4284 35.692 31.3193 35.692 31.2374C35.7193 31.1283 35.7466 31.0055 35.7739 30.8691C35.9103 30.2414 35.9785 29.6138 35.9785 28.9862C35.9785 28.3313 36.0058 27.6901 36.0604 27.0625C36.0877 26.6804 36.1013 26.2984 36.1013 25.9164C36.1286 25.5344 36.1422 25.1523 36.1422 24.7703C36.1422 22.5054 36.074 20.2542 35.9376 18.0167C35.8011 15.7518 35.7329 13.4733 35.7329 11.1812C35.7329 9.59848 35.7602 8.01581 35.8148 6.43313C35.8694 4.82317 35.9103 3.21321 35.9376 1.60325C36.1832 1.46682 36.4833 1.41224 36.8381 1.43953C37.1928 1.46682 37.4793 1.34402 37.6976 1.07115C37.8341 1.04386 37.9705 1.04386 38.1069 1.07115C38.2434 1.07115 38.3798 1.07115 38.5162 1.07115C38.8164 1.07115 39.1029 0.975643 39.3758 0.784631C39.6487 0.593619 39.9488 0.429894 40.2763 0.293457C40.44 0.348032 40.5492 0.375319 40.6037 0.375319C40.6856 0.348032 40.7675 0.334388 40.8493 0.334388C40.9312 0.334388 41.1086 0.429894 41.3814 0.620907C41.6543 0.811919 41.9545 1.03022 42.2819 1.27581C42.6094 1.52139 42.9095 1.75334 43.1824 1.97164C43.4826 2.18994 43.6736 2.32637 43.7554 2.38095C44.4376 2.89941 45.0379 3.47245 45.5564 4.10006C46.1022 4.70038 46.6343 5.31435 47.1527 5.94196C47.6439 6.56957 48.176 7.21083 48.749 7.86573C49.3221 8.49334 49.8815 9.08002 50.4272 9.62577C50.6182 9.84407 50.8092 10.0351 51.0003 10.1988C51.2186 10.3625 51.4232 10.5535 51.6142 10.7718C51.6961 10.881 51.7643 11.0038 51.8189 11.1402C51.9007 11.2494 51.9826 11.3722 52.0645 11.5086C52.2282 11.6996 52.4192 11.8633 52.6375 11.9998C52.8558 12.1362 53.0605 12.2999 53.2515 12.4909C53.3879 12.6001 53.5926 12.8184 53.8654 13.1458C54.1383 13.4733 54.2747 13.7189 54.2747 13.8826C54.2747 13.9918 54.2475 14.0873 54.1929 14.1691C54.1383 14.251 54.0837 14.3465 54.0292 14.4556C54.0019 14.5375 53.9882 14.6603 53.9882 14.824C53.9882 14.9878 53.9746 15.0969 53.9473 15.1515C53.6744 15.3698 53.5243 15.5062 53.4971 15.5608C53.4698 15.6154 53.4288 15.6699 53.3743 15.7245C53.2924 15.8337 53.1833 15.9292 53.0468 16.011C52.9377 16.0656 52.8558 16.1611 52.8012 16.2976C52.7467 16.3794 52.7194 16.4613 52.7194 16.5431C52.7467 16.625 52.733 16.7205 52.6784 16.8297C52.542 17.1298 52.3237 17.4163 52.0235 17.6892C51.7234 17.9621 51.4641 18.2622 51.2458 18.5897C50.9457 19.0809 50.6455 19.572 50.3454 20.0632C50.0452 20.5544 49.7041 21.0319 49.3221 21.4958C49.1584 21.7141 48.981 21.9324 48.79 22.1507C48.6262 22.3417 48.4625 22.5464 48.2988 22.7647C48.1624 22.9284 48.0396 23.1058 47.9304 23.2968C47.8213 23.4605 47.6985 23.6515 47.562 23.8698C47.2619 24.2518 46.9754 24.6339 46.7025 25.0159C46.4296 25.3706 46.1431 25.739 45.8429 26.121C45.5155 26.5849 45.1607 27.0488 44.7787 27.5127C44.3967 27.9493 44.0556 28.3995 43.7554 28.8634C43.4553 29.3546 43.1415 29.8048 42.814 30.2142C42.4866 30.6235 42.1318 31.0191 41.7498 31.4012C41.6407 31.483 41.5042 31.6058 41.3405 31.7695C41.1768 31.9333 41.013 32.0151 40.8493 32.0151C40.7402 32.0151 40.6447 31.9742 40.5628 31.8923C40.5082 31.8105 40.4127 31.7695 40.2763 31.7695C40.249 31.7695 40.1671 31.7832 40.0307 31.8105C39.8943 31.8378 39.7305 31.865 39.5395 31.8923L38.8028 31.9742C38.3662 32.1925 38.0524 32.288 37.8613 32.2607C37.6703 32.2607 37.4793 32.2744 37.2883 32.3016C37.1792 32.3289 37.0837 32.3699 37.0018 32.4244C36.9472 32.479 36.879 32.5063 36.7971 32.5063C36.6061 32.5063 36.456 32.4108 36.3469 32.2198C36.2377 32.0561 36.074 31.9878 35.8557 32.0151ZM48.1351 14.3329C48.1351 14.1964 47.9986 14.0054 47.7258 13.7598C47.4802 13.5142 47.2892 13.3369 47.1527 13.2277C46.9617 13.064 46.7298 12.9139 46.4569 12.7775C46.2113 12.6137 46.0066 12.4364 45.8429 12.2454C45.7065 12.0816 45.5701 11.9179 45.4336 11.7542C45.3245 11.5632 45.2017 11.3858 45.0652 11.2221C44.5741 10.6763 44.0692 10.1306 43.5508 9.58484C43.0596 9.03909 42.623 8.43876 42.241 7.78386C41.9954 7.62014 41.7635 7.42913 41.5452 7.21083C41.3269 6.99253 41.0676 6.81516 40.7675 6.67872C40.7129 6.84245 40.6856 7.01981 40.6856 7.21083C40.7129 7.37455 40.7265 7.53828 40.7265 7.702C40.7265 8.32961 40.6992 8.94358 40.6447 9.5439C40.5901 10.1442 40.5628 10.7446 40.5628 11.3449C40.5628 12.8184 40.5901 14.2783 40.6447 15.7245C40.7265 17.1435 40.7675 18.5761 40.7675 20.0223C40.7675 20.568 40.7675 21.1138 40.7675 21.6595C40.7947 22.2053 40.8493 22.751 40.9312 23.2968C40.8766 23.4605 40.8493 23.6106 40.8493 23.747C40.8493 23.8835 40.8766 24.0608 40.9312 24.2791C41.1495 24.1427 41.3269 23.979 41.4633 23.788C41.627 23.5697 41.7771 23.365 41.9135 23.174C42.3774 22.5737 42.8277 21.9733 43.2643 21.373C43.7281 20.7454 44.192 20.1178 44.6559 19.4902C44.9561 19.0809 45.2562 18.6852 45.5564 18.3032C45.8839 17.8939 46.1977 17.4709 46.4978 17.0343C46.5797 16.9252 46.7025 16.7341 46.8662 16.4613C47.0572 16.1884 47.2346 15.9155 47.3983 15.6427C47.5893 15.3425 47.753 15.0696 47.8895 14.824C48.0532 14.5784 48.1351 14.4147 48.1351 14.3329Z" fill="#BAC4D1"/>
<path d="M63.034 3.69075C63.034 3.93633 62.9522 4.12734 62.7884 4.26378C62.6247 4.37293 62.4746 4.52301 62.3382 4.71403C62.0653 4.95961 61.8197 5.21884 61.6014 5.49172C61.4104 5.7373 61.1785 5.98289 60.9056 6.22848C60.7965 6.33763 60.6464 6.48771 60.4554 6.67872C60.2643 6.84245 60.0597 7.01981 59.8414 7.21083C59.6504 7.37455 59.4457 7.52463 59.2274 7.66107C59.0364 7.79751 58.8727 7.86573 58.7362 7.86573C58.5179 7.86573 58.2314 7.79751 57.8767 7.66107C57.5492 7.49735 57.2627 7.3882 57.0171 7.33362C56.8261 7.30633 56.6488 7.29269 56.485 7.29269C56.3486 7.2654 56.2122 7.18354 56.0757 7.0471C55.5845 6.93795 55.2707 6.77423 55.1343 6.55593C54.9979 6.31034 54.8478 6.06475 54.6841 5.81917C54.6841 5.71002 54.725 5.6418 54.8069 5.61451C54.8887 5.58722 54.9569 5.53265 55.0115 5.45079C55.2844 5.09605 55.5163 4.80953 55.7073 4.59123C55.8984 4.34564 56.1167 4.10006 56.3622 3.85447C56.8261 3.44516 57.2627 3.0222 57.672 2.5856C58.1086 2.149 58.5589 1.73969 59.0228 1.35767C59.2411 1.33038 59.4048 1.24852 59.5139 1.11208C59.6231 0.975643 59.7868 0.907425 60.0051 0.907425C60.2234 0.907425 60.4008 0.975643 60.5372 1.11208C60.7009 1.24852 60.8374 1.41224 60.9465 1.60325C61.083 1.76698 61.2058 1.94435 61.3149 2.13536C61.4514 2.29909 61.6014 2.42188 61.7652 2.50374C61.9562 2.64018 62.2154 2.81755 62.5429 3.03585C62.8703 3.25415 63.034 3.47245 63.034 3.69075ZM57.4265 11.3039C57.6175 11.4131 57.7539 11.5632 57.8358 11.7542C57.9449 11.9179 58.095 12.0407 58.286 12.1226C58.4497 12.2044 58.6271 12.2454 58.8181 12.2454C59.0091 12.2454 59.1728 12.2726 59.3093 12.3272C59.4184 12.3818 59.5003 12.45 59.5549 12.5319C59.6094 12.6137 59.664 12.6956 59.7186 12.7775C59.8823 12.9139 60.1279 13.0367 60.4554 13.1458C60.8101 13.255 61.042 13.3778 61.1512 13.5142C61.3422 13.7598 61.4786 14.0736 61.5605 14.4556C61.6697 14.8377 61.7515 15.247 61.8061 15.6836C61.8607 16.0929 61.9016 16.5159 61.9289 16.9524C61.9562 17.3618 61.9971 17.7165 62.0517 18.0167C62.1063 18.6443 62.1745 19.2719 62.2563 19.8995C62.3382 20.4998 62.3791 21.1138 62.3791 21.7414C62.3791 22.369 62.3518 23.0103 62.2973 23.6652C62.2427 24.3201 62.2154 24.9613 62.2154 25.5889C62.2154 25.9164 62.2018 26.3257 62.1745 26.8169C62.1745 27.308 62.0653 27.6901 61.847 27.9629C61.8197 28.0721 61.8061 28.2631 61.8061 28.536V29.8458C61.8061 30.0095 61.8197 30.1732 61.847 30.3369C61.8743 30.5007 61.888 30.678 61.888 30.8691C61.888 31.1692 61.8061 31.3875 61.6424 31.524C61.5605 31.4967 61.465 31.483 61.3558 31.483C61.274 31.483 61.1921 31.483 61.1103 31.483C60.8101 31.483 60.5918 31.5376 60.4554 31.6467C60.1552 31.6195 59.8687 31.5922 59.5958 31.5649C59.3229 31.5376 59.0364 31.524 58.7362 31.524C58.2724 31.524 57.7675 31.5922 57.2218 31.7286C57.1126 31.4557 57.0581 31.1692 57.0581 30.8691C57.0854 30.5689 57.0308 30.296 56.8943 30.0504C56.8671 29.9686 56.8398 29.9003 56.8125 29.8458C56.8125 29.7639 56.8125 29.682 56.8125 29.6002C56.8943 29.2727 56.9353 29.0544 56.9353 28.9453C56.9353 28.8088 56.9353 28.6724 56.9353 28.536C56.9353 28.1539 56.9216 27.7719 56.8943 27.3899C56.8671 26.9806 56.8807 26.5849 56.9353 26.2029C56.9353 26.0665 56.9489 25.9437 56.9762 25.8345C57.0308 25.7254 57.0581 25.6026 57.0581 25.4661C57.0581 25.3297 57.0308 25.2342 56.9762 25.1796C56.9216 25.125 56.8943 25.0568 56.8943 24.975C56.8943 24.8931 56.8943 24.7567 56.8943 24.5656C56.9216 24.3746 56.9626 24.2518 57.0171 24.1973C57.0171 23.979 57.0171 23.7743 57.0171 23.5833C57.0444 23.365 57.0581 23.1603 57.0581 22.9693C57.0581 22.5327 57.0444 22.0961 57.0171 21.6595C56.9899 21.2229 56.9762 20.8 56.9762 20.3907C56.9762 20.1997 56.9626 20.0769 56.9353 20.0223C56.908 19.9677 56.8807 19.9268 56.8534 19.8995C56.8261 19.8722 56.7852 19.8586 56.7306 19.8586C56.676 19.8313 56.6351 19.7767 56.6078 19.6948C56.717 18.4942 56.676 17.2935 56.485 16.0929C56.294 14.8922 56.1985 13.678 56.1985 12.45C56.1985 12.259 56.2258 12.1226 56.2804 12.0407C56.335 11.9316 56.4032 11.8497 56.485 11.7951C56.5669 11.7405 56.6351 11.686 56.6897 11.6314C56.7716 11.5495 56.8261 11.4404 56.8534 11.3039C57.0717 11.3585 57.2627 11.3585 57.4265 11.3039Z" fill="#BAC4D1"/>
<path d="M73.2259 20.8C73.2805 20.9364 73.4715 21.2229 73.7989 21.6595C74.1537 22.0961 74.5493 22.5737 74.9859 23.0921C75.4225 23.6106 75.8318 24.1154 76.2139 24.6066C76.6232 25.0705 76.9097 25.4116 77.0734 25.6299C77.3736 26.0119 77.6601 26.3939 77.933 26.7759C78.2331 27.1307 78.506 27.5127 78.7516 27.922L79.4884 29.1499C79.7067 29.4228 79.8977 29.6548 80.0614 29.8458C80.2524 30.0368 80.4025 30.296 80.5116 30.6235C80.5662 30.8418 80.5935 30.9918 80.5935 31.0737C80.5935 31.2647 80.5253 31.4012 80.3888 31.483C80.1705 31.483 80.0478 31.5103 80.0205 31.5649C80.0205 31.6467 79.9659 31.715 79.8567 31.7695C79.7476 31.8241 79.5702 31.8514 79.3246 31.8514C79.1063 31.8787 78.929 31.8923 78.7925 31.8923C78.5469 31.8923 78.2331 31.8787 77.8511 31.8514C77.4964 31.8514 77.2099 31.8923 76.9916 31.9742C76.937 32.0015 76.8551 32.0424 76.746 32.097C76.6368 32.1516 76.555 32.1789 76.5004 32.1789C76.2821 32.1789 76.1184 32.1379 76.0092 32.0561C75.9273 32.0015 75.8046 31.9606 75.6408 31.9333C75.4225 31.6877 75.2315 31.4421 75.0678 31.1965C74.9314 30.9236 74.7676 30.6508 74.5766 30.3779C74.3856 30.1869 74.1946 30.0231 74.0036 29.8867C73.8126 29.723 73.6488 29.5456 73.5124 29.3546C73.1031 28.7543 72.6801 28.1676 72.2435 27.5946C71.8069 27.0215 71.3567 26.4621 70.8928 25.9164C70.6745 25.6162 70.4426 25.3433 70.197 25.0978C69.9514 24.8522 69.7195 24.5793 69.5012 24.2791C69.2829 24.0063 69.0782 23.7197 68.8872 23.4196C68.6962 23.0921 68.5052 22.7783 68.3141 22.4782C68.1504 22.2326 67.9321 21.9188 67.6592 21.5367C67.3864 21.1274 67.0862 20.7318 66.7588 20.3497C66.4313 19.9404 66.1039 19.5584 65.7764 19.2037C65.449 18.8489 65.1761 18.5761 64.9578 18.385C64.9305 18.2213 64.8623 18.0985 64.7531 18.0167C64.644 17.9075 64.5212 17.812 64.3848 17.7301C64.3302 17.5937 64.2756 17.4709 64.221 17.3618C64.1392 17.2253 64.0982 17.0889 64.0982 16.9524C64.0982 16.7614 64.1392 16.5841 64.221 16.4203C64.2756 16.3112 64.3165 16.2157 64.3438 16.1338C64.3438 16.0247 64.3711 15.9155 64.4257 15.8064C64.5621 15.5062 64.7395 15.2197 64.9578 14.9468C65.2034 14.6467 65.3944 14.3329 65.5308 14.0054C65.5854 13.9235 65.6127 13.8417 65.6127 13.7598C65.6127 13.6507 65.64 13.5552 65.6945 13.4733C65.7491 13.255 65.8583 13.0776 66.022 12.9412C66.213 12.7775 66.3631 12.6001 66.4722 12.4091C66.6087 12.1908 66.7315 11.9725 66.8406 11.7542C66.9771 11.5086 67.1135 11.2494 67.2499 10.9765C67.6592 10.2943 68.0822 9.63941 68.5188 9.0118C68.9827 8.3569 69.4466 7.702 69.9105 7.0471C70.2652 6.50135 70.6063 5.98289 70.9337 5.49172C71.2885 4.97326 71.6432 4.45479 71.998 3.93633C72.189 3.69075 72.3936 3.40423 72.6119 3.07678C72.8302 2.74933 73.0622 2.42188 73.3077 2.09443C73.5806 1.76698 73.8535 1.46682 74.1264 1.19394C74.3992 0.921069 74.6721 0.702769 74.945 0.539044C75.3543 0.511757 75.6272 0.607263 75.7636 0.825562C75.9001 1.01657 76.1047 1.11208 76.3776 1.11208C76.7323 1.19394 76.9643 1.30309 77.0734 1.43953C77.1826 1.57597 77.3054 1.7124 77.4418 1.84884C77.8238 1.84884 78.124 1.91706 78.3423 2.0535C78.5879 2.18994 78.8198 2.39459 79.0381 2.66747C78.9563 2.96763 78.8335 3.2405 78.6697 3.48609C78.506 3.70439 78.3559 3.93633 78.2195 4.18192C78.0012 4.29107 77.8375 4.44115 77.7283 4.63216C77.6465 4.82317 77.51 4.97326 77.319 5.08241C77.0461 5.54629 76.7596 5.99654 76.4594 6.43313C76.1593 6.84245 75.8591 7.25176 75.559 7.66107C75.3952 7.90666 75.2179 8.12496 75.0269 8.31597C74.8631 8.50698 74.7131 8.71164 74.5766 8.92994C74.522 9.0118 74.4675 9.10731 74.4129 9.21646C74.3856 9.29832 74.3447 9.38018 74.2901 9.46204C73.9626 9.9805 73.6079 10.4717 73.2259 10.9356C72.8439 11.3722 72.4891 11.8633 72.1617 12.4091C72.0525 12.6001 71.957 12.8048 71.8752 13.0231C71.8206 13.2141 71.7387 13.4051 71.6296 13.5961C71.5204 13.7598 71.3567 13.9781 71.1384 14.251C70.9474 14.5239 70.7564 14.824 70.5654 15.1515C70.3744 15.4516 70.197 15.7518 70.0333 16.052C69.8968 16.3248 69.8286 16.5568 69.8286 16.7478C69.8559 16.8842 70.0196 17.1571 70.3198 17.5664C70.6472 17.9484 71.002 18.3714 71.384 18.8353C71.7933 19.2719 72.1753 19.6948 72.5301 20.1042C72.8848 20.4862 73.1167 20.7181 73.2259 20.8ZM75.9273 13.3505C76.1184 13.7598 76.323 14.1146 76.5413 14.4147C76.6232 14.5239 76.7187 14.6194 76.8278 14.7012C76.937 14.7831 77.0188 14.8922 77.0734 15.0287C77.128 15.0833 77.1826 15.2061 77.2371 15.3971C77.2917 15.5608 77.3463 15.6836 77.4009 15.7654C77.4827 15.9837 77.6465 16.2293 77.892 16.5022C78.1376 16.7751 78.2604 17.0207 78.2604 17.239C78.2604 17.3754 78.2331 17.5255 78.1786 17.6892C78.124 17.8529 78.0831 18.003 78.0558 18.1395C78.0285 18.3032 78.0148 18.4805 78.0148 18.6716C78.0148 18.8353 77.9603 18.9854 77.8511 19.1218C77.7147 19.2582 77.5646 19.3401 77.4009 19.3674C77.2371 19.3947 77.0871 19.4629 76.9506 19.572C76.896 19.6266 76.8142 19.7221 76.705 19.8586C76.5959 19.995 76.4867 20.1451 76.3776 20.3088C76.2684 20.4725 76.1593 20.6363 76.0501 20.8C75.9683 20.9364 75.9273 21.0456 75.9273 21.1274C75.5999 21.1547 75.3816 21.1684 75.2724 21.1684C75.1906 21.1411 75.0951 21.1411 74.9859 21.1684C74.8495 21.0319 74.6994 20.9228 74.5357 20.8409C74.3992 20.7318 74.2219 20.6363 74.0036 20.5544C73.949 20.3361 73.8262 20.0905 73.6352 19.8176C73.4442 19.5175 73.2805 19.2719 73.144 19.0809L72.8575 18.7125C72.4482 18.1395 72.0662 17.5937 71.7114 17.0752C71.384 16.5295 71.1384 15.9292 70.9747 15.2743C71.4931 14.8922 71.8888 14.6057 72.1617 14.4147C72.4618 14.2237 72.7756 14.0463 73.1031 13.8826C73.4305 13.7189 73.7443 13.5688 74.0445 13.4324C74.372 13.2686 74.6721 13.0776 74.945 12.8593C75.1633 12.8593 75.3134 12.873 75.3952 12.9003C75.4771 12.9275 75.5317 12.9548 75.559 12.9821C75.5863 13.0094 75.6135 13.064 75.6408 13.1458C75.6954 13.2004 75.7909 13.2686 75.9273 13.3505Z" fill="#BAC4D1"/>
<path d="M95.8199 0.293457C95.8472 0.375319 95.97 0.470825 96.1883 0.579975C96.4339 0.689125 96.584 0.7437 96.6385 0.7437C97.0205 0.689125 97.2388 0.702769 97.2934 0.784631C97.3753 0.839206 97.4571 0.907425 97.539 0.989287C97.6482 0.934712 97.73 0.880137 97.7846 0.825562C97.8665 0.7437 97.9756 0.702769 98.112 0.702769C98.2485 0.784631 98.3303 0.907425 98.3576 1.07115C98.4122 1.20759 98.4804 1.34402 98.5623 1.48046C98.535 1.8352 98.535 2.06714 98.5623 2.17629C98.5896 2.25815 98.6032 2.35366 98.6032 2.46281C98.6032 2.87212 98.4804 3.32236 98.2348 3.81354C97.9893 4.27743 97.8119 4.71403 97.7027 5.12334C97.5663 5.25977 97.4708 5.40985 97.4162 5.57358C97.3889 5.7373 97.3207 5.88739 97.2116 6.02382C97.1297 6.2967 97.0069 6.54228 96.8432 6.76058C96.6795 6.9516 96.5703 7.18354 96.5157 7.45641C96.4884 7.4837 96.4202 7.57921 96.3111 7.74293C96.2292 7.90666 96.1337 8.08403 96.0246 8.27504C95.9154 8.46605 95.8063 8.65706 95.6971 8.84807C95.6152 9.03909 95.5607 9.16188 95.5334 9.21646C95.4515 9.35289 95.3833 9.48933 95.3287 9.62577C95.3014 9.73492 95.2469 9.84407 95.165 9.95322C95.1104 10.1169 95.0149 10.3216 94.8785 10.5672C94.7693 10.7855 94.6329 11.0174 94.4692 11.263C94.3327 11.5086 94.2099 11.7542 94.1008 11.9998C93.9916 12.2181 93.9371 12.3818 93.9371 12.4909C93.7461 12.7092 93.6369 12.9548 93.6096 13.2277C92.8729 14.6194 92.218 16.052 91.6449 17.5255C91.0719 18.9717 90.4579 20.4043 89.803 21.8233C89.7484 22.0688 89.7075 22.2189 89.6802 22.2735C89.6802 22.3281 89.6529 22.369 89.5984 22.3963C89.5165 22.5873 89.421 22.7783 89.3118 22.9693C89.2027 23.1331 89.1208 23.3104 89.0663 23.5014C88.9571 23.8016 88.8616 24.0881 88.7797 24.361C88.7252 24.6066 88.6024 24.8658 88.4114 25.1387C88.3841 25.3024 88.3295 25.4661 88.2476 25.6299C88.1658 25.7663 88.1385 25.9164 88.1658 26.0801C88.2476 26.162 88.3704 26.2165 88.5341 26.2438C88.7252 26.2438 88.8752 26.2438 88.9844 26.2438C89.1481 26.2438 89.3118 26.2438 89.4756 26.2438C89.6393 26.2165 89.803 26.2029 89.9667 26.2029C90.1305 26.2029 90.2805 26.2165 90.417 26.2438C90.5534 26.2438 90.6899 26.2438 90.8263 26.2438H91.8496C91.9587 26.2438 92.0542 26.2575 92.1361 26.2848C92.2452 26.2848 92.3408 26.2848 92.4226 26.2848C92.7228 26.2848 93.0366 26.2711 93.364 26.2438C93.7188 26.2165 94.0599 26.2029 94.3873 26.2029C94.5783 26.2029 94.783 26.2029 95.0013 26.2029C95.2196 26.1756 95.4379 26.1893 95.6562 26.2438C95.738 26.2711 95.7926 26.312 95.8199 26.3666C95.8745 26.4212 95.97 26.4212 96.1064 26.3666C96.352 26.6122 96.5021 26.7623 96.5567 26.8169C96.6112 26.8714 96.6658 26.926 96.7204 26.9806C96.7204 27.0897 96.7204 27.1852 96.7204 27.2671C96.7477 27.3217 96.7613 27.3899 96.7613 27.4718C96.7613 27.7719 96.7886 27.9766 96.8432 28.0857C96.6795 28.3313 96.6249 28.5087 96.6795 28.6178L96.4748 29.0681C96.4748 29.2045 96.4475 29.3546 96.3929 29.5183C96.3384 29.6548 96.3384 29.7912 96.3929 29.9276C96.2565 30.1459 96.161 30.3915 96.1064 30.6644C96.0791 30.91 95.9973 31.1419 95.8608 31.3602C95.6425 31.4421 95.4242 31.483 95.2059 31.483C94.9876 31.4557 94.7693 31.4694 94.551 31.524C94.4146 31.4694 94.2236 31.4421 93.978 31.4421C93.7597 31.4421 93.5414 31.4557 93.3231 31.483C93.1321 31.5103 92.9274 31.524 92.7091 31.524C92.6273 31.524 92.5454 31.524 92.4635 31.524C92.3817 31.4967 92.2998 31.483 92.218 31.483C91.9178 31.5376 91.7541 31.5512 91.7268 31.524C91.7268 31.4967 91.6995 31.483 91.6449 31.483C91.3448 31.483 91.0446 31.4967 90.7444 31.524C90.4443 31.524 90.1441 31.524 89.8439 31.524C89.7348 31.524 89.6393 31.5376 89.5574 31.5649C89.4756 31.5922 89.3937 31.6058 89.3118 31.6058C89.23 31.6058 89.1481 31.5922 89.0663 31.5649C88.9844 31.5376 88.9025 31.524 88.8207 31.524C88.6842 31.524 88.5341 31.5376 88.3704 31.5649C88.2067 31.5922 88.043 31.6058 87.8792 31.6058C87.7974 31.6058 87.7155 31.5922 87.6337 31.5649C87.5518 31.5649 87.4699 31.5649 87.3881 31.5649C87.2516 31.5649 87.1152 31.5922 86.9788 31.6467C86.8423 31.7013 86.6922 31.7013 86.5285 31.6467L85.9555 31.7286C85.5189 31.7286 85.0823 31.7559 84.6457 31.8105C84.2364 31.865 83.8134 31.8923 83.3768 31.8923C83.1312 31.8923 82.9675 31.8787 82.8857 31.8514C82.7492 31.7423 82.5855 31.674 82.3945 31.6467C82.2035 31.6195 82.0261 31.5649 81.8624 31.483C81.8351 31.2647 81.7396 31.101 81.5759 30.9918C81.4121 30.8827 81.262 30.7599 81.1256 30.6235C81.1529 30.296 81.1256 30.0914 81.0437 30.0095C81.071 29.5729 80.9892 29.2864 80.7982 29.1499C80.8254 28.9044 80.921 28.6724 81.0847 28.4541C81.2484 28.2358 81.3439 28.0039 81.3712 27.7583C81.5895 27.54 81.7259 27.3763 81.7805 27.2671C81.8351 27.158 81.8624 27.0352 81.8624 26.8987C82.0261 26.7077 82.1762 26.4758 82.3126 26.2029C82.4763 25.9027 82.6264 25.5889 82.7629 25.2615C82.8993 24.934 83.0221 24.6202 83.1312 24.3201C83.2404 23.9926 83.3359 23.7061 83.4178 23.4605C83.6361 23.1603 83.7998 22.8465 83.9089 22.5191C84.0181 22.1916 84.1409 21.8642 84.2773 21.5367C84.4956 21.1547 84.632 20.8818 84.6866 20.7181C84.7685 20.5271 84.8776 20.3634 85.0141 20.2269C85.0414 20.1178 85.1096 19.9131 85.2187 19.613C85.3552 19.2855 85.4916 18.9444 85.628 18.5897C85.7645 18.235 85.9009 17.9212 86.0373 17.6483C86.2011 17.3481 86.3102 17.1571 86.3648 17.0752C86.3921 16.9388 86.4467 16.8024 86.5285 16.6659C86.6104 16.5295 86.6513 16.3931 86.6513 16.2566C86.9242 15.9019 87.1425 15.4653 87.3062 14.9468C87.4699 14.4284 87.6473 13.9781 87.8383 13.5961C88.0293 13.1868 88.234 12.7911 88.4523 12.4091C88.6706 11.9998 88.8889 11.5905 89.1072 11.1812C89.9531 9.5439 90.799 7.89301 91.6449 6.22848C91.5903 6.09204 91.4676 6.02382 91.2765 6.02382C91.1128 6.02382 90.9764 5.98289 90.8672 5.90103C90.6489 5.9556 90.4443 5.96925 90.2533 5.94196C90.0622 5.91467 89.8576 5.90103 89.6393 5.90103C89.1208 5.79188 88.6842 5.75095 88.3295 5.77824C88.002 5.77824 87.6746 5.77824 87.3471 5.77824C87.1834 5.77824 87.0061 5.76459 86.815 5.7373C86.6513 5.71002 86.4876 5.69637 86.3239 5.69637C85.9146 5.69637 85.4916 5.72366 85.055 5.77824C84.6457 5.83281 84.25 5.90103 83.868 5.98289C83.6224 5.92832 83.3632 5.90103 83.0903 5.90103C82.8447 5.90103 82.6128 5.87374 82.3945 5.81917C82.2853 5.40985 82.258 5.17791 82.3126 5.12334C82.258 5.04147 82.1898 4.97326 82.108 4.91868C82.0534 4.83682 81.9988 4.75496 81.9442 4.67309C81.9715 4.42751 81.9442 4.27743 81.8624 4.22285C81.8078 4.14099 81.7532 4.03184 81.6986 3.8954C81.6986 3.70439 81.685 3.52702 81.6577 3.3633C81.6577 3.17228 81.685 2.98127 81.7396 2.79026C81.685 2.68111 81.6168 2.59925 81.5349 2.54467C81.4531 2.46281 81.3848 2.38095 81.3303 2.29909C81.3576 2.16265 81.3576 2.0535 81.3303 1.97164C81.3303 1.86249 81.3439 1.75334 81.3712 1.64419C81.5349 1.50775 81.7123 1.41224 81.9033 1.35767C82.0943 1.27581 82.2444 1.15301 82.3535 0.989287C82.7083 0.880137 83.063 0.811919 83.4178 0.784631C83.7998 0.757344 84.1682 0.7437 84.5229 0.7437C84.9049 0.7437 85.2597 0.757344 85.5871 0.784631C85.9418 0.784631 86.2829 0.798275 86.6104 0.825562C86.856 0.825562 87.0743 0.866494 87.2653 0.948356C87.4836 1.00293 87.7019 1.04386 87.9202 1.07115C88.0566 1.09844 88.1931 1.11208 88.3295 1.11208C88.4659 1.08479 88.6024 1.07115 88.7388 1.07115C89.2027 1.07115 89.6666 1.08479 90.1305 1.11208C90.6216 1.11208 91.0992 1.11208 91.5631 1.11208C91.9451 1.11208 92.2998 1.11208 92.6273 1.11208C92.9547 1.11208 93.2822 1.08479 93.6096 1.03022C93.7188 0.921068 93.8006 0.811919 93.8552 0.702769C93.9098 0.593619 93.9644 0.484469 94.0189 0.375319C94.2645 0.375319 94.4282 0.388963 94.5101 0.416251C94.592 0.416251 94.6602 0.416251 94.7148 0.416251L95.2059 0.620907C95.3151 0.620907 95.4379 0.607263 95.5743 0.579975C95.7108 0.5254 95.7926 0.429894 95.8199 0.293457Z" fill="#BAC4D1"/>
<path d="M120.788 15.2743C120.733 15.3834 120.679 15.4926 120.624 15.6017C120.57 15.6836 120.529 15.7791 120.501 15.8882C120.611 15.9974 120.706 16.1202 120.788 16.2566C120.897 16.3658 120.952 16.4886 120.952 16.625C120.952 16.7341 120.924 16.8433 120.87 16.9524C120.842 17.0343 120.842 17.1162 120.87 17.198C120.761 17.389 120.638 17.5664 120.501 17.7301C120.392 17.8939 120.31 18.0712 120.256 18.2622C120.147 18.3714 120.051 18.4805 119.969 18.5897C119.915 18.6988 119.86 18.808 119.806 18.9171C119.669 18.9717 119.574 19.0672 119.519 19.2037C119.492 19.3128 119.424 19.4083 119.314 19.4902C119.287 19.5993 119.151 19.8586 118.905 20.2679C118.66 20.6772 118.387 21.1138 118.086 21.5777C117.786 22.0416 117.5 22.4918 117.227 22.9284C116.954 23.365 116.763 23.6515 116.654 23.788C116.599 23.9244 116.531 24.0335 116.449 24.1154C116.395 24.1973 116.326 24.2928 116.245 24.4019C116.19 24.4838 116.149 24.5793 116.122 24.6884C116.094 24.7703 116.054 24.8385 115.999 24.8931C115.944 25.0022 115.876 25.0978 115.794 25.1796C115.74 25.2615 115.685 25.3706 115.631 25.5071C115.358 25.8618 115.085 26.2848 114.812 26.7759C114.539 27.2671 114.28 27.7037 114.034 28.0857C113.898 28.304 113.761 28.5223 113.625 28.7406C113.516 28.9589 113.393 29.1772 113.257 29.3955C113.12 29.6138 112.984 29.8185 112.847 30.0095C112.711 30.2005 112.574 30.4052 112.438 30.6235C112.22 30.7872 112.029 30.9918 111.865 31.2374C111.701 31.4557 111.51 31.6467 111.292 31.8105C110.937 31.8105 110.719 31.6467 110.637 31.3193C110.282 31.2374 110.105 31.2374 110.105 31.3193C110.105 31.4012 110.105 31.4694 110.105 31.524C109.996 31.5785 109.914 31.6604 109.859 31.7695C109.832 31.8787 109.764 31.9606 109.655 32.0151C109.436 31.9606 109.245 31.865 109.082 31.7286C108.945 31.6195 108.741 31.5785 108.468 31.6058C108.358 31.4421 108.236 31.3057 108.099 31.1965C107.963 31.0601 107.84 30.9236 107.731 30.7872C107.676 30.6235 107.594 30.487 107.485 30.3779C107.403 30.2687 107.322 30.1596 107.24 30.0504C107.158 29.914 107.076 29.7912 106.994 29.682C106.912 29.5729 106.83 29.4637 106.749 29.3546C106.558 29.109 106.367 28.8771 106.175 28.6588C106.012 28.4132 105.862 28.1676 105.725 27.922C105.507 27.5946 105.289 27.2671 105.07 26.9397C104.879 26.5849 104.675 26.2438 104.456 25.9164C104.347 25.7527 104.238 25.5889 104.129 25.4252C104.02 25.2615 103.924 25.0978 103.842 24.934C103.788 24.7976 103.706 24.6339 103.597 24.4429C103.515 24.2518 103.406 24.129 103.269 24.0745C103.215 23.8562 103.119 23.6924 102.983 23.5833C102.846 23.4742 102.71 23.3377 102.574 23.174C102.383 22.9557 102.205 22.7237 102.041 22.4782C101.878 22.2053 101.714 21.9324 101.55 21.6595C101.005 20.8955 100.486 20.1451 99.9949 19.4083C99.531 18.6716 99.0671 17.9075 98.6032 17.1162C98.7397 16.6796 98.8079 16.3521 98.8079 16.1338C98.8079 15.9155 98.8761 15.7382 99.0125 15.6017C99.0125 15.4926 99.0398 15.3288 99.0944 15.1105C99.4491 14.5102 99.7902 13.9645 100.118 13.4733C100.418 13.0094 100.622 12.6274 100.732 12.3272C100.868 12.0271 101.005 11.7133 101.141 11.3858C101.277 11.3039 101.387 11.2084 101.468 11.0993C101.55 10.9629 101.659 10.8401 101.796 10.7309C101.85 10.4307 101.973 10.1852 102.164 9.99415C102.355 9.77585 102.478 9.51662 102.533 9.21646C102.778 9.02544 102.915 8.80714 102.942 8.56156C103.297 8.31597 103.515 7.98852 103.597 7.57921C103.815 7.36091 103.992 7.11532 104.129 6.84245C104.293 6.56957 104.443 6.28305 104.579 5.98289C104.907 5.71002 105.166 5.35528 105.357 4.91868C105.521 4.80953 105.643 4.65945 105.725 4.46844C105.807 4.27743 105.916 4.1137 106.053 3.97726C106.271 3.62253 106.435 3.33601 106.544 3.11771C106.68 2.87212 106.817 2.62653 106.953 2.38095C107.144 2.38095 107.267 2.31273 107.322 2.17629C107.376 2.03985 107.485 1.98528 107.649 2.01257C107.649 1.76698 107.717 1.54868 107.854 1.35767C107.908 1.33038 107.99 1.30309 108.099 1.27581C108.208 1.22123 108.263 1.16666 108.263 1.11208C108.208 0.784631 108.222 0.593619 108.304 0.539044C108.386 0.484469 108.454 0.429894 108.509 0.375319C108.809 0.429894 109.013 0.470825 109.123 0.498113C109.232 0.5254 109.409 0.620907 109.655 0.784631C109.928 0.784631 110.119 0.839206 110.228 0.948356C110.337 1.05751 110.46 1.13937 110.596 1.19394C110.705 1.30309 110.787 1.41224 110.842 1.52139C110.924 1.63054 111.033 1.7124 111.169 1.76698C111.387 2.06714 111.619 2.39459 111.865 2.74933C112.111 3.10406 112.342 3.43151 112.561 3.73168C112.861 4.14099 113.161 4.53666 113.461 4.91868C113.789 5.27342 114.089 5.66909 114.362 6.10569C114.444 6.24212 114.594 6.48771 114.812 6.84245C115.03 7.1699 115.276 7.52463 115.549 7.90666C115.822 8.28868 116.067 8.64342 116.285 8.97087C116.504 9.27103 116.654 9.4484 116.736 9.50297C116.818 9.63941 116.995 9.89864 117.268 10.2807C117.541 10.6627 117.827 11.072 118.127 11.5086C118.455 11.9179 118.769 12.3136 119.069 12.6956C119.369 13.0776 119.574 13.3232 119.683 13.4324C119.983 13.8417 120.201 14.1828 120.338 14.4556C120.501 14.7012 120.651 14.9741 120.788 15.2743ZM111.415 22.9693C111.715 22.56 111.947 22.1916 112.111 21.8642C112.274 21.5367 112.438 21.2093 112.602 20.8818C112.875 20.5544 113.038 20.3224 113.093 20.186C113.147 20.0496 113.216 19.9131 113.298 19.7767C113.516 19.4493 113.734 19.1218 113.952 18.7944C114.198 18.4669 114.389 18.1122 114.525 17.7301C114.689 17.621 114.812 17.4846 114.894 17.3208C114.976 17.1571 115.098 17.007 115.262 16.8706C115.098 16.2976 114.907 15.861 114.689 15.5608C114.471 15.2333 114.253 14.9195 114.034 14.6194C113.952 14.4829 113.871 14.3465 113.789 14.2101C113.707 14.0736 113.625 13.9372 113.543 13.8007C113.434 13.7189 113.338 13.637 113.257 13.5552C113.202 13.4733 113.134 13.3914 113.052 13.3096C112.997 13.1731 112.915 12.9958 112.806 12.7775C112.697 12.641 112.588 12.5182 112.479 12.4091C112.37 12.2999 112.274 12.1635 112.192 11.9998C112.083 11.8906 111.947 11.7405 111.783 11.5495C111.619 11.3585 111.442 11.1539 111.251 10.9356C111.087 10.69 110.937 10.4717 110.801 10.2807C110.664 10.0624 110.555 9.885 110.473 9.74856C110.419 9.61212 110.364 9.50297 110.31 9.42111C110.282 9.31196 110.241 9.20281 110.187 9.09366C110.05 8.90265 109.914 8.73892 109.777 8.60249C109.641 8.43876 109.505 8.26139 109.368 8.07038C109.286 8.12496 109.204 8.16589 109.123 8.19318C109.068 8.19318 109.013 8.22046 108.959 8.27504C108.768 8.62978 108.549 8.95722 108.304 9.25739C108.086 9.55755 107.867 9.885 107.649 10.2397C107.458 10.5672 107.267 10.9083 107.076 11.263C106.885 11.5905 106.694 11.9179 106.503 12.2454C106.367 12.4364 106.23 12.6274 106.094 12.8184C105.984 12.9821 105.862 13.1731 105.725 13.3914C105.589 13.5824 105.466 13.7871 105.357 14.0054C105.275 14.1964 105.166 14.3874 105.029 14.5784C104.811 14.8513 104.634 15.0969 104.497 15.3152C104.361 15.5335 104.224 15.7927 104.088 16.0929C104.17 16.2566 104.293 16.4886 104.456 16.7887C104.647 17.0616 104.838 17.3481 105.029 17.6483C105.22 17.9212 105.384 18.1804 105.521 18.426C105.684 18.6716 105.78 18.8353 105.807 18.9171C106.025 19.1082 106.203 19.3265 106.339 19.572C106.476 19.7903 106.653 20.0086 106.871 20.2269C106.98 20.4452 107.103 20.6363 107.24 20.8C107.376 20.9637 107.513 21.1411 107.649 21.3321C107.785 21.5231 107.963 21.8096 108.181 22.1916C108.399 22.5464 108.618 22.9148 108.836 23.2968C109.054 23.6788 109.273 24.0335 109.491 24.361C109.709 24.6884 109.887 24.8931 110.023 24.975C110.296 24.6748 110.514 24.3473 110.678 23.9926C110.869 23.6106 111.115 23.2695 111.415 22.9693Z" fill="#BAC4D1"/>
<path d="M136.874 0.989287C137.31 0.934712 137.638 0.975643 137.856 1.11208C138.102 1.22123 138.347 1.28945 138.593 1.31674C138.729 1.34402 138.866 1.35767 139.002 1.35767C139.166 1.33038 139.33 1.31674 139.493 1.31674C139.848 1.31674 140.121 1.35767 140.312 1.43953C140.53 1.52139 140.749 1.69876 140.967 1.97164C141.022 2.02621 141.09 2.10807 141.172 2.21722C141.281 2.29909 141.335 2.38095 141.335 2.46281C141.335 2.68111 141.281 2.87212 141.172 3.03585C141.062 3.19957 141.008 3.43151 141.008 3.73168C141.008 4.19556 141.062 4.65945 141.172 5.12334C141.281 5.55994 141.349 6.01018 141.376 6.47407C141.513 8.16589 141.581 9.87135 141.581 11.5905C141.608 13.2823 141.622 14.9605 141.622 16.625C141.622 16.8433 141.608 17.048 141.581 17.239C141.581 17.4027 141.526 17.5528 141.417 17.6892V18.2213C141.39 18.9308 141.404 19.6539 141.458 20.3907C141.513 21.1001 141.54 21.8096 141.54 22.5191C141.54 23.1467 141.499 23.7743 141.417 24.4019C141.363 25.0295 141.335 25.6708 141.335 26.3257C141.335 26.926 141.376 27.5127 141.458 28.0857C141.54 28.6588 141.581 29.2454 141.581 29.8458C141.445 30.0914 141.363 30.2824 141.335 30.4188C141.308 30.5552 141.254 30.678 141.172 30.7872C141.09 30.8418 140.994 30.8554 140.885 30.8281C140.803 30.8008 140.735 30.8281 140.68 30.91C140.544 31.0737 140.449 31.2647 140.394 31.483C140.339 31.7013 140.203 31.8787 139.985 32.0151C139.93 32.3971 139.78 32.6837 139.534 32.8747C139.316 33.093 139.152 33.3659 139.043 33.6933C138.716 33.7206 138.484 33.7069 138.347 33.6524C138.238 33.5978 138.115 33.5432 137.979 33.4886C137.952 33.0248 137.952 32.6837 137.979 32.4654C138.034 32.2744 138.061 32.0697 138.061 31.8514C138.061 31.5785 137.993 31.3739 137.856 31.2374C137.72 31.101 137.624 30.9236 137.57 30.7053C137.27 30.5143 137.065 30.3915 136.956 30.3369C136.847 30.2551 136.751 30.1596 136.669 30.0504C136.505 29.8321 136.369 29.6002 136.26 29.3546C136.151 29.109 136.028 28.8771 135.892 28.6588C135.51 28.0312 135.114 27.3899 134.705 26.735C134.322 26.0801 133.9 25.4388 133.436 24.8112C133.354 24.6748 133.258 24.552 133.149 24.4429C133.04 24.3337 132.944 24.2109 132.863 24.0745C132.399 23.3377 131.962 22.5873 131.553 21.8233C131.144 21.0592 130.666 20.3361 130.12 19.6539C129.902 19.381 129.738 19.0809 129.629 18.7534C129.52 18.3987 129.356 18.0985 129.138 17.8529C129.111 17.9894 129.097 18.1395 129.097 18.3032C129.097 18.4669 129.097 18.617 129.097 18.7534C129.097 19.6812 129.111 20.609 129.138 21.5367C129.192 22.4372 129.22 23.3514 129.22 24.2791C129.22 24.4701 129.192 24.6475 129.138 24.8112C129.111 24.9477 129.097 25.1114 129.097 25.3024C129.097 25.5753 129.111 25.8345 129.138 26.0801C129.165 26.3257 129.179 26.5713 129.179 26.8169C129.179 27.117 129.165 27.4035 129.138 27.6764C129.138 27.9493 129.124 28.2222 129.097 28.495C129.042 28.8498 128.974 29.1909 128.892 29.5183C128.81 29.8185 128.77 30.1323 128.77 30.4597C128.77 30.6508 128.783 30.8281 128.81 30.9918C128.865 31.1556 128.892 31.3057 128.892 31.4421C128.701 31.7423 128.456 31.8923 128.156 31.8923C127.883 31.8923 127.651 32.0015 127.46 32.2198C127.296 32.1925 127.16 32.2061 127.05 32.2607C126.969 32.3153 126.887 32.3426 126.805 32.3426C126.696 32.3426 126.6 32.3289 126.518 32.3016C126.464 32.2744 126.395 32.2607 126.314 32.2607C126.177 32.2607 126.041 32.3289 125.904 32.4654C125.768 32.6018 125.631 32.67 125.495 32.67C125.413 32.67 125.263 32.6154 125.045 32.5063C124.854 32.3971 124.635 32.2607 124.39 32.097C124.172 31.9606 123.967 31.8105 123.776 31.6467C123.585 31.5103 123.489 31.4012 123.489 31.3193C123.462 31.1829 123.448 30.9918 123.448 30.7463C123.448 30.4188 123.462 30.105 123.489 29.8048C123.544 29.4774 123.599 29.1499 123.653 28.8225C123.735 27.8947 123.776 26.9806 123.776 26.0801C123.776 25.1523 123.776 24.2246 123.776 23.2968C123.776 22.9148 123.776 22.5327 123.776 22.1507C123.803 21.7687 123.817 21.3867 123.817 21.0046C123.817 20.1042 123.776 19.2037 123.694 18.3032C123.639 17.3754 123.612 16.4613 123.612 15.5608C123.612 14.9332 123.639 14.3192 123.694 13.7189C123.749 13.0913 123.776 12.4773 123.776 11.877C123.776 11.4131 123.762 10.9629 123.735 10.5263C123.708 10.0897 123.694 9.63941 123.694 9.17552C123.667 8.87536 123.667 8.56156 123.694 8.23411C123.721 7.87937 123.735 7.55192 123.735 7.25176C123.735 6.89702 123.68 6.56957 123.571 6.26941C123.489 5.94196 123.448 5.6418 123.448 5.36892C123.448 5.2052 123.476 5.05512 123.53 4.91868C123.612 4.75496 123.653 4.59123 123.653 4.42751C123.653 4.20921 123.612 3.99091 123.53 3.77261C123.476 3.55431 123.448 3.33601 123.448 3.11771C123.448 2.89941 123.476 2.69475 123.53 2.50374C123.585 2.31273 123.612 2.10807 123.612 1.88977C123.994 1.69876 124.335 1.60325 124.635 1.60325C124.936 1.60325 125.154 1.7124 125.29 1.9307C125.29 2.42188 125.318 2.8039 125.372 3.07678C125.427 3.32236 125.468 3.5816 125.495 3.85447C125.495 4.01819 125.481 4.20921 125.454 4.42751C125.454 4.64581 125.468 4.86411 125.495 5.08241C125.522 5.27342 125.577 5.43714 125.659 5.57358C125.768 5.71002 125.945 5.77824 126.191 5.77824C126.245 5.91467 126.314 6.03747 126.395 6.14662C126.477 6.25577 126.532 6.3922 126.559 6.55593C126.723 6.44678 126.818 6.2967 126.846 6.10569C126.873 5.91467 126.873 5.7373 126.846 5.57358C126.982 5.62815 127.105 5.65544 127.214 5.65544C127.323 5.62815 127.432 5.6418 127.542 5.69637C127.596 6.0784 127.664 6.41949 127.746 6.71965C127.828 6.99253 127.855 7.31998 127.828 7.702C128.374 8.11131 128.838 8.69799 129.22 9.46204C129.629 10.1988 130.011 10.8673 130.366 11.4677C130.557 11.7678 130.775 12.0544 131.021 12.3272C131.294 12.5728 131.498 12.873 131.635 13.2277C131.853 13.3641 132.03 13.5415 132.167 13.7598C132.303 13.9781 132.426 14.1964 132.535 14.4147C133.081 15.3698 133.681 16.2976 134.336 17.198C134.991 18.0985 135.673 18.9854 136.383 19.8586C136.41 19.6676 136.424 19.4902 136.424 19.3265C136.424 19.1354 136.424 18.9444 136.424 18.7534L136.383 15.0696C136.383 14.8513 136.369 14.6467 136.342 14.4556C136.342 14.2646 136.328 14.06 136.301 13.8417C136.246 13.1322 136.233 12.4364 136.26 11.7542C136.287 11.072 136.287 10.3762 136.26 9.6667C136.205 8.92994 136.164 8.17953 136.137 7.41548C136.137 6.65143 136.11 5.88739 136.055 5.12334C136.028 4.65945 136.001 4.19556 135.973 3.73168C135.946 3.26779 135.932 2.8039 135.932 2.34002C135.932 1.76698 135.987 1.24852 136.096 0.784631C136.151 0.730056 136.205 0.689125 136.26 0.661838C136.342 0.607263 136.437 0.579975 136.546 0.579975C136.71 0.579975 136.819 0.716413 136.874 0.989287Z" fill="#BAC4D1"/>
<path d="M152.632 20.8C152.687 20.9364 152.878 21.2229 153.205 21.6595C153.56 22.0961 153.956 22.5737 154.392 23.0921C154.829 23.6106 155.238 24.1154 155.62 24.6066C156.03 25.0705 156.316 25.4116 156.48 25.6299C156.78 26.0119 157.067 26.3939 157.339 26.7759C157.64 27.1307 157.913 27.5127 158.158 27.922L158.895 29.1499C159.113 29.4228 159.304 29.6548 159.468 29.8458C159.659 30.0368 159.809 30.296 159.918 30.6235C159.973 30.8418 160 30.9918 160 31.0737C160 31.2647 159.932 31.4012 159.795 31.483C159.577 31.483 159.454 31.5103 159.427 31.5649C159.427 31.6467 159.372 31.715 159.263 31.7695C159.154 31.8241 158.977 31.8514 158.731 31.8514C158.513 31.8787 158.335 31.8923 158.199 31.8923C157.953 31.8923 157.64 31.8787 157.258 31.8514C156.903 31.8514 156.616 31.8923 156.398 31.9742C156.343 32.0015 156.262 32.0424 156.152 32.097C156.043 32.1516 155.961 32.1789 155.907 32.1789C155.689 32.1789 155.525 32.1379 155.416 32.0561C155.334 32.0015 155.211 31.9606 155.047 31.9333C154.829 31.6877 154.638 31.4421 154.474 31.1965C154.338 30.9236 154.174 30.6508 153.983 30.3779C153.792 30.1869 153.601 30.0231 153.41 29.8867C153.219 29.723 153.055 29.5456 152.919 29.3546C152.51 28.7543 152.087 28.1676 151.65 27.5946C151.213 27.0215 150.763 26.4621 150.299 25.9164C150.081 25.6162 149.849 25.3433 149.603 25.0978C149.358 24.8522 149.126 24.5793 148.908 24.2791C148.689 24.0063 148.485 23.7197 148.294 23.4196C148.103 23.0921 147.912 22.7783 147.721 22.4782C147.557 22.2326 147.339 21.9188 147.066 21.5367C146.793 21.1274 146.493 20.7318 146.165 20.3497C145.838 19.9404 145.51 19.5584 145.183 19.2037C144.855 18.8489 144.583 18.5761 144.364 18.385C144.337 18.2213 144.269 18.0985 144.16 18.0167C144.05 17.9075 143.928 17.812 143.791 17.7301C143.737 17.5937 143.682 17.4709 143.628 17.3618C143.546 17.2253 143.505 17.0889 143.505 16.9524C143.505 16.7614 143.546 16.5841 143.628 16.4203C143.682 16.3112 143.723 16.2157 143.75 16.1338C143.75 16.0247 143.778 15.9155 143.832 15.8064C143.969 15.5062 144.146 15.2197 144.364 14.9468C144.61 14.6467 144.801 14.3329 144.937 14.0054C144.992 13.9235 145.019 13.8417 145.019 13.7598C145.019 13.6507 145.046 13.5552 145.101 13.4733C145.156 13.255 145.265 13.0776 145.428 12.9412C145.62 12.7775 145.77 12.6001 145.879 12.4091C146.015 12.1908 146.138 11.9725 146.247 11.7542C146.384 11.5086 146.52 11.2494 146.656 10.9765C147.066 10.2943 147.489 9.63941 147.925 9.0118C148.389 8.3569 148.853 7.702 149.317 7.0471C149.672 6.50135 150.013 5.98289 150.34 5.49172C150.695 4.97326 151.05 4.45479 151.404 3.93633C151.595 3.69075 151.8 3.40423 152.018 3.07678C152.237 2.74933 152.469 2.42188 152.714 2.09443C152.987 1.76698 153.26 1.46682 153.533 1.19394C153.806 0.921069 154.079 0.702769 154.352 0.539044C154.761 0.511757 155.034 0.607263 155.17 0.825562C155.307 1.01657 155.511 1.11208 155.784 1.11208C156.139 1.19394 156.371 1.30309 156.48 1.43953C156.589 1.57597 156.712 1.7124 156.848 1.84884C157.23 1.84884 157.53 1.91706 157.749 2.0535C157.994 2.18994 158.226 2.39459 158.445 2.66747C158.363 2.96763 158.24 3.2405 158.076 3.48609C157.913 3.70439 157.762 3.93633 157.626 4.18192C157.408 4.29107 157.244 4.44115 157.135 4.63216C157.053 4.82317 156.917 4.97326 156.726 5.08241C156.453 5.54629 156.166 5.99654 155.866 6.43313C155.566 6.84245 155.266 7.25176 154.965 7.66107C154.802 7.90666 154.624 8.12496 154.433 8.31597C154.27 8.50698 154.12 8.71164 153.983 8.92994C153.929 9.0118 153.874 9.10731 153.819 9.21646C153.792 9.29832 153.751 9.38018 153.697 9.46204C153.369 9.9805 153.014 10.4717 152.632 10.9356C152.25 11.3722 151.896 11.8633 151.568 12.4091C151.459 12.6001 151.364 12.8048 151.282 13.0231C151.227 13.2141 151.145 13.4051 151.036 13.5961C150.927 13.7598 150.763 13.9781 150.545 14.251C150.354 14.5239 150.163 14.824 149.972 15.1515C149.781 15.4516 149.603 15.7518 149.44 16.052C149.303 16.3248 149.235 16.5568 149.235 16.7478C149.262 16.8842 149.426 17.1571 149.726 17.5664C150.054 17.9484 150.408 18.3714 150.79 18.8353C151.2 19.2719 151.582 19.6948 151.937 20.1042C152.291 20.4862 152.523 20.7181 152.632 20.8ZM155.334 13.3505C155.525 13.7598 155.73 14.1146 155.948 14.4147C156.03 14.5239 156.125 14.6194 156.234 14.7012C156.343 14.7831 156.425 14.8922 156.48 15.0287C156.534 15.0833 156.589 15.2061 156.644 15.3971C156.698 15.5608 156.753 15.6836 156.807 15.7654C156.889 15.9837 157.053 16.2293 157.299 16.5022C157.544 16.7751 157.667 17.0207 157.667 17.239C157.667 17.3754 157.64 17.5255 157.585 17.6892C157.53 17.8529 157.49 18.003 157.462 18.1395C157.435 18.3032 157.421 18.4805 157.421 18.6716C157.421 18.8353 157.367 18.9854 157.258 19.1218C157.121 19.2582 156.971 19.3401 156.807 19.3674C156.644 19.3947 156.494 19.4629 156.357 19.572C156.303 19.6266 156.221 19.7221 156.112 19.8586C156.002 19.995 155.893 20.1451 155.784 20.3088C155.675 20.4725 155.566 20.6363 155.457 20.8C155.375 20.9364 155.334 21.0456 155.334 21.1274C155.006 21.1547 154.788 21.1684 154.679 21.1684C154.597 21.1411 154.502 21.1411 154.392 21.1684C154.256 21.0319 154.106 20.9228 153.942 20.8409C153.806 20.7318 153.628 20.6363 153.41 20.5544C153.355 20.3361 153.233 20.0905 153.042 19.8176C152.851 19.5175 152.687 19.2719 152.551 19.0809L152.264 18.7125C151.855 18.1395 151.473 17.5937 151.118 17.0752C150.79 16.5295 150.545 15.9292 150.381 15.2743C150.9 14.8922 151.295 14.6057 151.568 14.4147C151.868 14.2237 152.182 14.0463 152.51 13.8826C152.837 13.7189 153.151 13.5688 153.451 13.4324C153.778 13.2686 154.079 13.0776 154.352 12.8593C154.57 12.8593 154.72 12.873 154.802 12.9003C154.884 12.9275 154.938 12.9548 154.965 12.9821C154.993 13.0094 155.02 13.064 155.047 13.1458C155.102 13.2004 155.197 13.2686 155.334 13.3505Z" fill="#BAC4D1"/>
</svg>
