<svg width="20" height="20" viewBox="0 0 20 20" fill="none" xmlns="http://www.w3.org/2000/svg">
<path fill-rule="evenodd" clip-rule="evenodd" d="M13.3327 3.33341H6.66602C4.82507 3.33341 3.33268 4.8258 3.33268 6.66675V13.3334C3.33268 15.1744 4.82507 16.6667 6.66602 16.6667H13.3327C15.1736 16.6667 16.666 15.1744 16.666 13.3334V6.66675C16.666 4.8258 15.1736 3.33341 13.3327 3.33341ZM6.66602 1.66675C3.90459 1.66675 1.66602 3.90532 1.66602 6.66675V13.3334C1.66602 16.0948 3.90459 18.3334 6.66602 18.3334H13.3327C16.0941 18.3334 18.3327 16.0948 18.3327 13.3334V6.66675C18.3327 3.90532 16.0941 1.66675 13.3327 1.66675H6.66602ZM9.99935 12.5001C11.3801 12.5001 12.4993 11.3808 12.4993 10.0001C12.4993 8.61937 11.3801 7.50008 9.99935 7.50008C8.61864 7.50008 7.49935 8.61937 7.49935 10.0001C7.49935 11.3808 8.61864 12.5001 9.99935 12.5001ZM9.99935 14.1667C12.3005 14.1667 14.166 12.3013 14.166 10.0001C14.166 7.69889 12.3005 5.83341 9.99935 5.83341C7.69816 5.83341 5.83268 7.69889 5.83268 10.0001C5.83268 12.3013 7.69816 14.1667 9.99935 14.1667ZM14.1657 7.00016C14.81 7.00016 15.3324 6.47783 15.3324 5.8335C15.3324 5.18916 14.81 4.66683 14.1657 4.66683C13.5214 4.66683 12.999 5.18916 12.999 5.8335C12.999 6.47783 13.5214 7.00016 14.1657 7.00016Z" fill="#7D8FA9"/>
</svg>
