<svg width="20" height="20" viewBox="0 0 20 20" fill="none" xmlns="http://www.w3.org/2000/svg">
<path d="M5.25014 6.3829V18.3334H2.05818V6.3829H5.25014ZM1.85938 3.26825C1.85938 2.80437 2.02137 2.42148 2.34535 2.11959C2.66933 1.81769 3.10376 1.66675 3.64864 1.66675C4.18616 1.66675 4.6169 1.81769 4.94089 2.11959C5.27223 2.42148 5.4379 2.80437 5.4379 3.26825C5.4379 3.73213 5.27223 4.11502 4.94089 4.41691C4.6169 4.71881 4.18616 4.86975 3.64864 4.86975C3.10376 4.86975 2.66933 4.71881 2.34535 4.41691C2.02137 4.11502 1.85938 3.73213 1.85938 3.26825Z" fill="#7D8FA9"/>
<path d="M10.9935 8.93425V18.3334H7.81255V6.3829H10.7947L10.9935 8.93425ZM10.5296 11.9385H9.66808C9.66808 11.0549 9.78221 10.2596 10.0105 9.55276C10.2387 8.83853 10.559 8.23107 10.9714 7.73037C11.3837 7.2223 11.8734 6.83573 12.4403 6.57066C13.0147 6.29822 13.6553 6.162 14.3621 6.162C14.9217 6.162 15.4335 6.24299 15.8974 6.40498C16.3613 6.56698 16.7589 6.82469 17.0902 7.17812C17.4289 7.53156 17.6866 7.99912 17.8634 8.58082C18.0474 9.16251 18.1395 9.87306 18.1395 10.7125V18.3334H14.9365V10.7014C14.9365 10.1713 14.8628 9.75893 14.7156 9.46441C14.5683 9.16988 14.3511 8.96371 14.0639 8.84589C13.7841 8.72072 13.4381 8.65813 13.0257 8.65813C12.5986 8.65813 12.2268 8.74281 11.9102 8.91216C11.6009 9.08152 11.3432 9.31714 11.137 9.61903C10.9382 9.91356 10.7873 10.2596 10.6842 10.6572C10.5811 11.0549 10.5296 11.4819 10.5296 11.9385Z" fill="#7D8FA9"/>
</svg>
