<svg width="14" height="14" viewBox="0 0 14 14" fill="none" xmlns="http://www.w3.org/2000/svg">
<path d="M7.49979 10.1753C6.95439 10.9798 6.38798 11.6445 5.84719 12.138C5.34505 12.5963 4.91595 12.8603 4.59562 12.9796C4.50998 13.0115 4.43943 13.0303 4.38234 13.041C4.3357 13.0502 4.29851 13.0537 4.26998 13.054C4.21205 13.055 4.18935 13.0451 4.18286 13.0421C4.17991 13.0407 4.17342 13.0377 4.16419 13.0305C4.15318 13.0218 4.13764 13.0074 4.11775 12.983C4.07795 12.9336 4.02097 12.8416 3.96545 12.6857C3.85092 12.3636 3.77731 11.8653 3.80564 11.186C3.83604 10.4545 3.98116 9.59338 4.24688 8.65844L7.49979 10.1753Z" fill="#7D8FA9"/>
<path d="M8.72236 10.7454C7.90181 11.9905 7.00648 12.9824 6.15142 13.6145C8.06036 13.8596 9.9832 13.2599 11.4127 11.9999L8.72236 10.7454Z" fill="#7D8FA9"/>
<path d="M2.47898 11.9021C1.0642 10.5973 0.287598 8.7388 0.333997 6.83384L3.0243 8.08835C2.59791 9.51729 2.41358 10.8407 2.47898 11.9021Z" fill="#7D8FA9"/>
<path d="M4.66905 7.38414L8.2046 9.03279C8.4154 8.65698 8.61923 8.26068 8.81293 7.84529C9.00663 7.4299 9.17919 7.01901 9.33158 6.61597L5.79603 4.96731C5.58523 5.34312 5.3814 5.73942 5.1877 6.15481C4.994 6.57021 4.82144 6.98109 4.66905 7.38414Z" fill="#7D8FA9"/>
<path d="M4.58467 4.40245C4.37399 4.78262 4.17134 5.17947 3.97929 5.59132C3.78724 6.00317 3.6135 6.41351 3.45769 6.81927L0.51573 5.44741C0.618513 5.01979 0.765387 4.59622 0.958262 4.1826C1.15114 3.76898 1.38121 3.38419 1.64271 3.03059L4.58467 4.40245Z" fill="#7D8FA9"/>
<path d="M6.50084 3.8248L9.75375 5.34166C10.0195 4.40673 10.1646 3.54557 10.195 2.81411C10.2233 2.13484 10.1497 1.63646 10.0352 1.31439C9.97966 1.15848 9.92268 1.06654 9.88288 1.01709C9.86842 0.999576 9.85614 0.987387 9.84629 0.978482C9.83107 0.964917 9.8216 0.959787 9.81777 0.957999C9.81128 0.954972 9.78858 0.945107 9.73065 0.946107C9.66719 0.947404 9.56013 0.962854 9.40501 1.02054C9.08468 1.13983 8.65558 1.40378 8.15344 1.86212C7.61264 2.35558 7.04624 3.02028 6.50084 3.8248Z" fill="#7D8FA9"/>
<path d="M7.84921 0.385568C6.99414 1.01767 6.09881 2.00956 5.27827 3.25471L2.58796 2.0002C4.01742 0.740164 5.94027 0.14049 7.84921 0.385568Z" fill="#7D8FA9"/>
<path d="M11.5216 2.09805C11.587 3.15938 11.4027 4.48282 10.9763 5.91175L13.6666 7.16626C13.713 5.2613 12.9364 3.40285 11.5216 2.09805Z" fill="#7D8FA9"/>
<path d="M10.5429 7.18083L13.4849 8.55269C13.3821 8.98031 13.2352 9.40389 13.0424 9.81751C12.8495 10.2311 12.6194 10.6159 12.3579 10.9695L9.41596 9.59765C9.62664 9.21748 9.82929 8.82063 10.0213 8.40878C10.2134 7.99693 10.3871 7.5866 10.5429 7.18083Z" fill="#7D8FA9"/>
</svg>
