<svg width="20" height="20" viewBox="0 0 20 20" fill="none" xmlns="http://www.w3.org/2000/svg">
<path fill-rule="evenodd" clip-rule="evenodd" d="M1 0C0.447715 0 0 0.447715 0 1V4C0 4.55228 0.447715 5 1 5H4C4.55228 5 5 4.55228 5 4V1C5 0.447715 4.55228 0 4 0H1ZM1 7.5C0.447715 7.5 0 7.94772 0 8.5V11.5C0 12.0523 0.447715 12.5 1 12.5H4C4.55228 12.5 5 12.0523 5 11.5V8.5C5 7.94772 4.55228 7.5 4 7.5H1ZM0 16C0 15.4477 0.447715 15 1 15H4C4.55228 15 5 15.4477 5 16V19C5 19.5523 4.55228 20 4 20H1C0.447715 20 0 19.5523 0 19V16ZM8 0C7.44772 0 7 0.447715 7 1V4C7 4.55228 7.44772 5 8 5H19C19.5523 5 20 4.55228 20 4V1C20 0.447715 19.5523 0 19 0H8ZM7 8.5C7 7.94772 7.44772 7.5 8 7.5H19C19.5523 7.5 20 7.94772 20 8.5V11.5C20 12.0523 19.5523 12.5 19 12.5H8C7.44772 12.5 7 12.0523 7 11.5V8.5ZM8 15C7.44772 15 7 15.4477 7 16V19C7 19.5523 7.44772 20 8 20H19C19.5523 20 20 19.5523 20 19V16C20 15.4477 19.5523 15 19 15H8Z" fill="#3B4758"/>
</svg>
