<svg width="17" height="16" viewBox="0 0 17 16" fill="none" xmlns="http://www.w3.org/2000/svg">
<path d="M7.92739 0.242097C8.05996 -0.0806993 8.51147 -0.0806988 8.64404 0.242097L10.6583 5.14667C10.7142 5.28275 10.8405 5.37573 10.9856 5.38751L16.2138 5.812C16.5579 5.83993 16.6974 6.27483 16.4353 6.50227L12.4519 9.95794C12.3414 10.0538 12.2931 10.2043 12.3269 10.3476L13.5439 15.5146C13.624 15.8546 13.2587 16.1234 12.9641 15.9412L8.488 13.1723C8.36381 13.0955 8.20762 13.0955 8.08342 13.1723L3.60734 15.9412C3.31275 16.1234 2.94746 15.8546 3.02756 15.5146L4.24453 10.3476C4.2783 10.2043 4.23003 10.0538 4.11951 9.95794L0.136163 6.50227C-0.126003 6.27483 0.0135242 5.83993 0.357621 5.812L5.58584 5.38751C5.7309 5.37573 5.85726 5.28275 5.91315 5.14667L7.92739 0.242097Z" fill="#DDE1E8"/>
</svg>
