<svg width="160" height="36" viewBox="0 0 160 36" fill="none" xmlns="http://www.w3.org/2000/svg">
<path d="M16.4796 5.33772H10.8031V35.2167H5.67657V5.33772H0V0.783262H16.4796V5.33772Z" fill="#BAC4D1"/>
<path d="M33.3993 35.2167H19.1199V0.783262H33.2673V5.33772H24.2684V15.3927H32.0132V19.8592H24.2684V30.6622H33.3993V35.2167Z" fill="#BAC4D1"/>
<path d="M53.8834 32.0704C53.8834 34.1679 52.8346 35.2167 50.7371 35.2167H40C37.9611 35.2167 36.9417 34.1679 36.9417 32.0704V3.95158C36.9417 1.83937 37.9611 0.783262 40 0.783262H50.7371C52.8346 0.783262 53.8834 1.83937 53.8834 3.95158V12.0044H48.7569V5.2057H42.0902V30.7943H48.7569V23.5555H53.8834V32.0704Z" fill="#BAC4D1"/>
<path d="M75.2475 35.2167H70.055V19.7712H63.0803V35.2167H57.9318V0.783262H63.0803V14.9747H70.055V0.783262H75.2475V35.2167Z" fill="#BAC4D1"/>
<path d="M96.8097 35.2167H92.2992L84.0484 13.5445C84.2684 14.6006 84.3784 15.4294 84.3784 16.0308V35.2167H79.3619V0.783262H83.8724L92.1232 22.0154C91.9032 20.9593 91.7932 20.1305 91.7932 19.5291V0.783262H96.8097V35.2167Z" fill="#BAC4D1"/>
<path d="M118.328 32.0704C118.328 34.1679 117.286 35.2167 115.204 35.2167H104.026C101.988 35.2167 100.968 34.1679 100.968 32.0704V3.95158C100.968 1.83937 101.988 0.783262 104.026 0.783262H115.204C117.286 0.783262 118.328 1.83937 118.328 3.95158V32.0704ZM113.179 30.7943V5.2057H106.117V30.7943H113.179Z" fill="#BAC4D1"/>
<path d="M139.626 0.783262L133.025 35.2607H127.899L121.32 0.783262H126.491L130.341 24.3916C130.37 25.0664 130.414 26.0491 130.473 27.3399C130.458 26.6652 130.502 25.6824 130.605 24.3916L134.477 0.783262H139.626Z" fill="#BAC4D1"/>
<path d="M160 35.2167H154.895L153.861 28.6821H147.415L146.381 35.2167H141.298V35.1287L147.965 0.739258H153.377L160 35.2167ZM153.135 24.2596L150.627 8.72606L148.097 24.2596H153.135Z" fill="#BAC4D1"/>
</svg>
