<svg width="160" height="36" viewBox="0 0 160 36" fill="none" xmlns="http://www.w3.org/2000/svg">
<path d="M26.1384 1.32994H0V9.86494H7.73484V34.6698H18.4036V9.86494H26.1384V1.32994Z" fill="#BAC4D1"/>
<path d="M52.3484 23.5565L58.1273 34.6698H46.3917L42.0353 24.7567H39.7237V34.6698H29.055V1.32994H45.8583C53.5042 1.32994 57.3272 5.227 57.3272 13.0211C57.3272 18.3555 55.6676 21.8673 52.3484 23.5565ZM42.1687 9.86494H39.7237V16.5329H42.1687C43.4726 16.5329 44.4061 16.3996 44.9692 16.1328C45.5619 15.8661 45.8583 15.2586 45.8583 14.3103V12.0876C45.8583 11.1393 45.5619 10.5317 44.9692 10.265C44.4061 9.9983 43.4726 9.86494 42.1687 9.86494Z" fill="#BAC4D1"/>
<path d="M71.0312 29.3799H79.833L81.0776 34.6698H92.3243L83.7004 1.32994H67.2083L58.5844 34.6698H69.831L71.0312 29.3799ZM75.7433 11.5542L77.877 20.8893H72.9872L75.1654 11.5542H75.7433Z" fill="#BAC4D1"/>
<path d="M116.527 25.1124L117.327 34.0919C115.045 35.0106 112.229 35.4699 108.881 35.4699C105.71 35.4699 103.087 35.1291 101.012 34.4475C98.938 33.7363 97.2932 32.6694 96.0781 31.2469C94.8631 29.8244 94.0037 28.0166 93.4999 25.8236C93.0257 23.6306 92.7886 21.0375 92.7886 18.0443C92.7886 15.14 93.0109 12.6062 93.4554 10.4428C93.9296 8.24981 94.7594 6.42723 95.9448 4.9751C97.1302 3.49332 98.7305 2.382 100.746 1.64111C102.791 0.900228 105.369 0.529785 108.481 0.529785C109.162 0.529785 109.918 0.574238 110.748 0.663143C111.607 0.722415 112.437 0.811321 113.237 0.929861C114.067 1.0484 114.837 1.19658 115.549 1.37439C116.289 1.52257 116.882 1.70038 117.327 1.90783L115.726 10.0872C113.356 9.5834 111.237 9.3315 109.37 9.3315C107.443 9.3315 106.11 9.50932 105.369 9.86494C104.628 10.2206 104.258 10.9318 104.258 11.9987V25.957C104.939 26.1052 105.621 26.2237 106.302 26.3126C107.014 26.3719 107.74 26.4015 108.481 26.4015C111.444 26.4015 114.126 25.9718 116.527 25.1124Z" fill="#BAC4D1"/>
<path d="M131.712 34.6698V1.32994H121.043V34.6698H131.712Z" fill="#BAC4D1"/>
<path d="M159.2 25.1124L160 34.0919C157.718 35.0106 154.903 35.4699 151.554 35.4699C148.383 35.4699 145.76 35.1291 143.686 34.4475C141.611 33.7363 139.966 32.6694 138.751 31.2469C137.536 29.8244 136.677 28.0166 136.173 25.8236C135.699 23.6306 135.462 21.0375 135.462 18.0443C135.462 15.14 135.684 12.6062 136.129 10.4428C136.603 8.24981 137.433 6.42723 138.618 4.9751C139.803 3.49332 141.404 2.382 143.419 1.64111C145.464 0.900228 148.042 0.529785 151.154 0.529785C151.835 0.529785 152.591 0.574238 153.421 0.663143C154.28 0.722415 155.11 0.811321 155.91 0.929861C156.74 1.0484 157.511 1.19658 158.222 1.37439C158.963 1.52257 159.555 1.70038 160 1.90783L158.4 10.0872C156.029 9.5834 153.91 9.3315 152.043 9.3315C150.117 9.3315 148.783 9.50932 148.042 9.86494C147.301 10.2206 146.931 10.9318 146.931 11.9987V25.957C147.612 26.1052 148.294 26.2237 148.976 26.3126C149.687 26.3719 150.413 26.4015 151.154 26.4015C154.117 26.4015 156.799 25.9718 159.2 25.1124Z" fill="#BAC4D1"/>
</svg>
