<svg width="20" height="20" viewBox="0 0 20 20" fill="none" xmlns="http://www.w3.org/2000/svg">
<path d="M16.6264 6.6142C16.6366 6.76051 16.6366 6.90683 16.6366 7.0545C16.6366 11.5539 13.1969 16.7431 6.9074 16.7431V16.7404C5.04945 16.7431 3.2301 16.2131 1.66602 15.2138C1.93618 15.2462 2.20769 15.2624 2.47988 15.263C4.01959 15.2644 5.51529 14.7499 6.72661 13.8026C5.26342 13.7749 3.98032 12.8249 3.53209 11.4379C4.04465 11.5364 4.57278 11.5161 5.07586 11.3793C3.48063 11.0583 2.33295 9.66257 2.33295 8.04163V7.99847C2.80827 8.26211 3.34047 8.40843 3.88485 8.42461C2.38238 7.42467 1.91925 5.43423 2.82655 3.87801C4.56262 6.00533 7.12407 7.29858 9.87375 7.43546C9.59817 6.25279 9.97464 5.01348 10.863 4.18211C12.2402 2.89291 14.4062 2.95899 15.7008 4.32977C16.4666 4.17941 17.2006 3.89959 17.8723 3.50312C17.617 4.29134 17.0828 4.96089 16.3691 5.38635C17.0469 5.30679 17.7091 5.12609 18.3327 4.85031C17.8736 5.53537 17.2954 6.1321 16.6264 6.6142Z" fill="#7D8FA9"/>
</svg>
