<svg width="160" height="42" viewBox="0 0 160 42" fill="none" xmlns="http://www.w3.org/2000/svg">
<path d="M26.6407 31.432C26.6407 31.8471 26.5666 32.2325 26.4183 32.5883C26.2701 32.9441 26.0625 33.2554 25.7957 33.5223C25.5437 33.7743 25.2397 33.9745 24.8839 34.1227C24.543 34.271 24.1723 34.3451 23.7721 34.3451H10.6963C9.98471 34.3451 9.22122 34.2635 8.40584 34.1005C7.60528 33.9374 6.81214 33.678 6.02641 33.3222C5.24068 32.9515 4.47718 32.4919 3.73593 31.9434C3.0095 31.3801 2.37202 30.7055 1.82349 29.9198C1.27496 29.1192 0.830206 28.2001 0.489229 27.1623C0.163076 26.1246 0 24.9534 0 23.6488V10.3062H5.78179V23.6488C5.78179 24.4048 5.90781 25.0868 6.15983 25.6946C6.42669 26.2876 6.78249 26.7991 7.22724 27.229C7.67199 27.659 8.19087 27.9925 8.78388 28.2297C9.39171 28.4521 10.044 28.5633 10.7408 28.5633H20.8589V10.3062H26.6407V31.432Z" fill="#BAC4D1"/>
<path d="M58.574 26.2283C58.574 27.2216 58.448 28.1185 58.196 28.9191C57.9439 29.7048 57.6104 30.4016 57.1953 31.0094C56.7802 31.6024 56.2984 32.1139 55.7498 32.5438C55.2013 32.9589 54.6231 33.2999 54.0153 33.5668C53.4223 33.8336 52.8219 34.0338 52.214 34.1672C51.6062 34.2858 51.028 34.3451 50.4795 34.3451H40.05V28.5633H50.4795C51.2504 28.5633 51.8286 28.3632 52.214 27.9629C52.5995 27.5626 52.7922 26.9844 52.7922 26.2283V18.4452C52.7922 17.6446 52.5921 17.0516 52.1918 16.6661C51.8064 16.2807 51.2356 16.088 50.4795 16.088H40.0945C39.3088 16.088 38.7158 16.2881 38.3155 16.6884C37.9152 17.0738 37.7151 17.6446 37.7151 18.4007V41.8614H31.9333V18.4007C31.9333 17.4074 32.0593 16.5179 32.3113 15.7322C32.5634 14.9464 32.8969 14.2571 33.312 13.6641C33.742 13.0562 34.2312 12.5448 34.7797 12.1297C35.3282 11.6997 35.899 11.3513 36.492 11.0845C37.0998 10.8176 37.7077 10.6249 38.3155 10.5063C38.9382 10.3729 39.5163 10.3062 40.05 10.3062H50.4795C51.4728 10.3062 52.3623 10.4322 53.148 10.6842C53.9338 10.9362 54.6231 11.2698 55.2161 11.6849C55.824 12.1 56.3354 12.5818 56.7505 13.1304C57.1805 13.6789 57.5288 14.2571 57.7957 14.8649C58.0625 15.4579 58.2553 16.0583 58.3739 16.6661C58.5073 17.274 58.574 17.8521 58.574 18.4007V26.2283Z" fill="#BAC4D1"/>
<path d="M86.7491 26.2283C86.7491 27.2216 86.6231 28.1185 86.3711 28.9191C86.1191 29.7048 85.7855 30.4016 85.3704 31.0094C84.9553 31.6024 84.4735 32.1139 83.9249 32.5438C83.3764 32.9589 82.7982 33.2999 82.1904 33.5668C81.5974 33.8336 80.9896 34.0338 80.3669 34.1672C79.7591 34.2858 79.1809 34.3451 78.6324 34.3451H62.9771V28.5633H78.5879C79.3736 28.5633 79.9666 28.3632 80.3669 27.9629C80.7672 27.5626 80.9673 26.9844 80.9673 26.2283C80.8932 24.6865 80.1149 23.9156 78.6324 23.9156H69.6706C68.3956 23.9156 67.3134 23.6932 66.4239 23.2485C65.5344 22.8037 64.808 22.2478 64.2446 21.5807C63.6961 20.9135 63.2958 20.1945 63.0438 19.4236C62.8066 18.6527 62.688 17.9337 62.688 17.2666C62.688 15.9768 62.9178 14.8945 63.3773 14.0199C63.8369 13.1304 64.4151 12.4113 65.1119 11.8628C65.8087 11.3143 66.5647 10.9214 67.3801 10.6842C68.1955 10.4322 68.959 10.3062 69.6706 10.3062H83.8805V16.088H69.7151C69.4186 16.088 69.1814 16.125 69.0035 16.1992C68.8404 16.2584 68.7144 16.3474 68.6254 16.466C68.5513 16.5698 68.5068 16.6884 68.492 16.8218C68.4772 16.9404 68.4698 17.059 68.4698 17.1776C68.4846 17.4148 68.5291 17.6001 68.6032 17.7335C68.6773 17.867 68.7663 17.9633 68.87 18.0226C68.9887 18.0819 69.1147 18.119 69.2481 18.1338C69.3963 18.1338 69.5372 18.1338 69.6706 18.1338H78.6324C80.1149 18.1338 81.375 18.4007 82.4128 18.9344C83.4505 19.4681 84.2882 20.1426 84.9256 20.958C85.5631 21.7586 86.0227 22.6332 86.3044 23.5821C86.6009 24.5309 86.7491 25.413 86.7491 26.2283Z" fill="#BAC4D1"/>
<path d="M96.6894 5.36941H90.9076V0.143555H96.6894V5.36941ZM96.6894 34.3451H90.9076V10.3062H96.6894V34.3451Z" fill="#BAC4D1"/>
<path d="M128.623 26.2283C128.623 27.2216 128.497 28.1185 128.245 28.9191C127.993 29.7048 127.659 30.4016 127.244 31.0094C126.829 31.6024 126.347 32.1139 125.798 32.5438C125.25 32.9589 124.672 33.2999 124.064 33.5668C123.471 33.8336 122.863 34.0338 122.24 34.1672C121.633 34.2858 121.054 34.3451 120.506 34.3451H110.076C109.083 34.3451 108.194 34.2191 107.408 33.967C106.622 33.715 105.925 33.3815 105.318 32.9664C104.725 32.5364 104.213 32.0472 103.783 31.4987C103.368 30.9501 103.027 30.3794 102.76 29.7864C102.493 29.1785 102.293 28.5707 102.16 27.9629C102.041 27.3402 101.982 26.762 101.982 26.2283V18.4007C101.982 16.9182 102.249 15.6654 102.782 14.6425C103.331 13.6048 104.006 12.7671 104.806 12.1297C105.621 11.4774 106.504 11.0104 107.452 10.7287C108.401 10.447 109.276 10.3062 110.076 10.3062H120.506V16.088H110.121C109.35 16.088 108.764 16.2881 108.364 16.6884C107.964 17.0738 107.764 17.6446 107.764 18.4007V26.1839C107.764 26.9696 107.956 27.5626 108.342 27.9629C108.742 28.3632 109.32 28.5633 110.076 28.5633H120.506C121.292 28.5633 121.877 28.3632 122.263 27.9629C122.648 27.5626 122.841 26.9844 122.841 26.2283V0.143555H128.623V26.2283Z" fill="#BAC4D1"/>
<path d="M160 18.2673C160 19.0678 159.859 19.9351 159.577 20.8691C159.296 21.7882 158.836 22.6481 158.199 23.4486C157.576 24.2344 156.753 24.8941 155.73 25.4278C154.722 25.9615 153.492 26.2283 152.039 26.2283H141.609V20.7356H152.039C152.825 20.7356 153.432 20.4984 153.862 20.024C154.292 19.5348 154.507 18.9344 154.507 18.2228C154.507 17.4667 154.263 16.8737 153.773 16.4438C153.299 16.0138 152.721 15.7989 152.039 15.7989H141.609C140.824 15.7989 140.216 16.0435 139.786 16.5327C139.356 17.0071 139.141 17.6001 139.141 18.3117V26.384C139.141 27.1549 139.378 27.7553 139.853 28.1853C140.342 28.6152 140.942 28.8301 141.654 28.8301H152.039V34.3451H141.609C140.809 34.3451 139.942 34.2042 139.008 33.9226C138.088 33.6409 137.229 33.1887 136.428 32.5661C135.642 31.9286 134.983 31.1058 134.449 30.0977C133.915 29.0748 133.648 27.8369 133.648 26.384V18.2673C133.648 17.4667 133.789 16.6068 134.071 15.6877C134.353 14.7537 134.805 13.8938 135.427 13.1081C136.065 12.3076 136.888 11.6404 137.896 11.1067C138.919 10.573 140.157 10.3062 141.609 10.3062H152.039C152.839 10.3062 153.699 10.447 154.618 10.7287C155.552 11.0104 156.412 11.4699 157.198 12.1074C157.999 12.7301 158.666 13.5529 159.199 14.5758C159.733 15.5839 160 16.8144 160 18.2673Z" fill="#BAC4D1"/>
</svg>
