<svg width="38" height="13" viewBox="0 0 38 13" fill="none" xmlns="http://www.w3.org/2000/svg">
<path fill-rule="evenodd" clip-rule="evenodd" d="M9.66671 12.4216H6.43575L4.01293 2.90651C3.89793 2.46881 3.65376 2.08187 3.29459 1.89949C2.39824 1.44118 1.41052 1.07644 0.333008 0.892482V0.526152H5.53783C6.25617 0.526152 6.79492 1.07644 6.88472 1.71554L8.14181 8.57907L11.3712 0.526152H14.5124L9.66671 12.4216ZM16.3077 12.4216H13.2563L15.7689 0.526152H18.8203L16.3077 12.4216ZM22.7694 3.81974C22.8592 3.17906 23.3979 2.81273 24.0265 2.81273C25.0142 2.72075 26.0901 2.9047 26.988 3.36143L27.5268 0.800288C26.6289 0.433958 25.6411 0.25 24.7448 0.25C21.7832 0.25 19.6282 1.89769 19.6282 4.18448C19.6282 5.92415 21.1547 6.8376 22.2322 7.38789C23.3979 7.93659 23.8469 8.30292 23.7571 8.85162C23.7571 9.67468 22.8591 10.041 21.9628 10.041C20.8853 10.041 19.8078 9.76666 18.8216 9.30835L18.2829 11.8711C19.3604 12.3278 20.5261 12.5118 21.6036 12.5118C24.9244 12.6021 26.988 10.956 26.988 8.48529C26.988 5.37387 22.7694 5.19149 22.7694 3.81974ZM37.6651 12.4216L35.2423 0.526152H32.6399C32.1012 0.526152 31.5624 0.892482 31.3828 1.44118L26.8963 12.4216H30.0375L30.6645 10.6835H34.524L34.8832 12.4216H37.6651ZM33.0893 3.72827L33.9856 8.21146H31.473L33.0893 3.72827Z" fill="#172B85"/>
</svg>
