<svg width="160" height="54" viewBox="0 0 160 54" fill="none" xmlns="http://www.w3.org/2000/svg">
<path d="M36.7117 22.3467C36.7117 21.1727 36.6316 20.2034 36.4716 19.4385C36.3115 18.6737 36.1336 18.0423 35.938 17.5443C35.7601 17.0284 35.5911 16.6105 35.431 16.2903C35.271 15.9523 35.1909 15.6411 35.1909 15.3565C35.1909 15.0897 35.2976 14.8674 35.5111 14.6895C35.7245 14.5116 35.9735 14.3604 36.2581 14.2359C36.5605 14.1114 36.8629 14.0225 37.1652 13.9691C37.4854 13.9158 37.7433 13.8891 37.939 13.8891C38.4548 13.8891 38.8283 13.9602 39.0595 14.1025C39.2908 14.2448 39.4775 14.5205 39.6198 14.9296C39.7799 15.4454 39.8866 16.1302 39.94 16.984C40.0111 17.8199 40.0467 18.7182 40.0467 19.6787C40.0467 21.0482 39.9667 22.5512 39.8066 24.1876C39.6465 25.8239 39.3886 27.4692 39.0329 29.1234C38.6949 30.7775 38.2502 32.3783 37.6989 33.9258C37.1652 35.4732 36.516 36.8517 35.7512 38.0612C34.9864 39.2529 34.1059 40.2134 33.1099 40.9426C32.1138 41.6541 30.9844 42.0098 29.7215 42.0098C28.7255 42.0098 27.8272 41.8142 27.0268 41.4229C26.2442 41.0138 25.5417 40.4624 24.9191 39.7687C24.2966 39.075 23.7452 38.2657 23.265 37.3408C22.8025 36.3981 22.3934 35.3932 22.0377 34.326C21.6286 35.411 21.1572 36.4248 20.6236 37.3675C20.09 38.2924 19.4942 39.1017 18.8361 39.7954C18.1958 40.4891 17.4843 41.0316 16.7017 41.4229C15.9191 41.8142 15.0742 42.0098 14.1671 42.0098C13.0465 42.0098 12.0505 41.7697 11.1789 41.2895C10.3252 40.7914 9.56923 40.1244 8.91112 39.2885C8.25302 38.4347 7.68384 37.4475 7.2036 36.327C6.72336 35.2064 6.30538 34.0236 5.94964 32.7785C5.61169 31.5335 5.32711 30.2528 5.09588 28.9366C4.86465 27.6204 4.669 26.3487 4.50892 25.1214C4.34884 23.8941 4.21544 22.7469 4.10872 21.6797C4.002 20.6125 3.89528 19.6875 3.78856 18.9049C3.66405 18.1935 3.47729 17.6421 3.22828 17.2508C2.99705 16.8595 2.59685 16.6638 2.02768 16.6638C1.72531 16.6638 1.4674 16.7172 1.25396 16.8239C1.04052 16.9306 0.809294 17.0818 0.56028 17.2775L0 16.6105C0.409093 16.2725 0.862654 15.9435 1.36068 15.6233C1.87649 15.2853 2.42788 14.9919 3.01484 14.7429C3.6018 14.4938 4.23323 14.2893 4.90912 14.1292C5.58501 13.9691 6.29648 13.8891 7.04352 13.8891C8.11072 13.8891 8.97338 14.0759 9.63148 14.4494C10.2896 14.8051 10.8054 15.2587 11.1789 15.8101C11.5702 16.3437 11.8459 16.9217 12.006 17.5443C12.1661 18.1668 12.2817 18.7271 12.3528 19.2251C12.673 21.9109 12.9843 24.2765 13.2866 26.322C13.6068 28.3674 13.9448 30.0839 14.3005 31.4712C14.6562 32.8408 15.0386 33.8813 15.4477 34.5928C15.8746 35.2865 16.3726 35.6333 16.9418 35.6333C17.3153 35.6333 17.68 35.4732 18.0357 35.1531C18.3914 34.8329 18.7294 34.3882 19.0495 33.8191C19.3697 33.2499 19.6721 32.5651 19.9566 31.7647C20.2412 30.9465 20.4902 30.0483 20.7037 29.07C20.5258 28.0917 20.3746 27.1224 20.2501 26.1619C20.1256 25.2014 20.01 24.2854 19.9033 23.4139C19.8144 22.5245 19.7254 21.6974 19.6365 20.9326C19.5476 20.1678 19.4497 19.4919 19.343 18.9049C19.0762 17.233 19.2274 15.979 19.7966 15.1431C20.3835 14.3071 21.5486 13.8891 23.2916 13.8891C24.0565 13.8891 24.6968 13.9602 25.2126 14.1025C25.7462 14.227 26.182 14.4761 26.5199 14.8496C26.8757 15.2053 27.1602 15.7033 27.3737 16.3437C27.5871 16.9662 27.7561 17.7666 27.8806 18.7449C28.2186 21.4129 28.5476 23.7963 28.8678 25.8951C29.1879 27.9939 29.5259 29.7637 29.8816 31.2044C30.2373 32.6451 30.6198 33.7479 31.0288 34.5127C31.4557 35.2598 31.9538 35.6333 32.5229 35.6333C33.1277 35.6333 33.688 35.2598 34.2038 34.5127C34.7196 33.7657 35.1642 32.7785 35.5378 31.5513C35.9113 30.324 36.1959 28.9099 36.3915 27.3091C36.605 25.7083 36.7117 24.0542 36.7117 22.3467Z" fill="#BAC4D1"/>
<path d="M43.5418 27.9228C43.5418 25.5927 43.8797 23.5561 44.5556 21.8131C45.2315 20.0522 46.1297 18.5848 47.2503 17.4109C48.3886 16.2369 49.7049 15.3565 51.1989 14.7695C52.693 14.1826 54.2582 13.8891 55.8946 13.8891C57.531 13.8891 59.0962 14.1648 60.5903 14.7162C62.0844 15.2498 63.3917 16.0769 64.5123 17.1974C65.6506 18.318 66.5577 19.7409 67.2336 21.4662C67.9095 23.1737 68.2475 25.2014 68.2475 27.5493C68.2475 29.8793 67.9095 31.9426 67.2336 33.739C66.5577 35.5355 65.6506 37.0473 64.5123 38.2746C63.3917 39.5019 62.0844 40.4357 60.5903 41.076C59.0962 41.6986 57.531 42.0098 55.8946 42.0098C54.2582 42.0098 52.693 41.7163 51.1989 41.1294C49.7049 40.5246 48.3886 39.6353 47.2503 38.4614C46.1297 37.2875 45.2315 35.8201 44.5556 34.0592C43.8797 32.2983 43.5418 30.2528 43.5418 27.9228ZM59.95 27.656C59.95 26.233 59.8966 24.8635 59.7899 23.5473C59.701 22.2133 59.5142 21.0304 59.2296 19.9988C58.945 18.9672 58.5359 18.149 58.0023 17.5443C57.4687 16.9217 56.7662 16.6105 55.8946 16.6105C55.0231 16.6105 54.3205 16.9395 53.7869 17.5976C53.2533 18.2379 52.8442 19.0917 52.5596 20.1589C52.275 21.2083 52.0883 22.4089 51.9993 23.7607C51.9104 25.1125 51.8659 26.4998 51.8659 27.9228C51.8659 29.3457 51.9104 30.742 51.9993 32.1115C52.0883 33.4633 52.275 34.6728 52.5596 35.74C52.8442 36.8072 53.2533 37.6699 53.7869 38.328C54.3205 38.9683 55.0231 39.2885 55.8946 39.2885C56.7662 39.2885 57.4687 38.9505 58.0023 38.2746C58.5359 37.5987 58.945 36.7094 59.2296 35.6066C59.5142 34.5038 59.701 33.2588 59.7899 31.8714C59.8966 30.4841 59.95 29.0789 59.95 27.656Z" fill="#BAC4D1"/>
<path d="M86.4165 1.90977C85.9185 1.90977 85.4472 2.01649 85.0025 2.22993C84.5578 2.44337 84.1665 2.79021 83.8286 3.27045C83.5084 3.7329 83.2505 4.32876 83.0549 5.05801C82.8592 5.78726 82.7614 6.6677 82.7614 7.69933V14.2626H88.6043V16.1836H82.7614V37.2074C82.7614 39.6264 82.4412 41.8586 81.8009 43.9041C81.1784 45.9496 80.2268 47.7104 78.9461 49.1867C77.6655 50.6808 76.0647 51.8458 74.1437 52.6818C72.2228 53.5178 69.9817 53.9358 67.4204 53.9358C66.5133 53.9358 65.6417 53.8557 64.8057 53.6957C63.9698 53.5534 63.2316 53.3488 62.5913 53.082C61.951 52.8152 61.4441 52.4951 61.0705 52.1215C60.6792 51.7658 60.4836 51.3656 60.4836 50.9209C60.4836 50.6008 60.528 50.2717 60.617 49.9338C60.7059 49.6136 60.8393 49.3201 61.0172 49.0533C61.195 48.7865 61.4174 48.5642 61.6842 48.3863C61.9332 48.2263 62.2267 48.1462 62.5646 48.1462C62.7603 48.1462 62.9381 48.244 63.0982 48.4397C63.2405 48.6354 63.3917 48.8755 63.5518 49.1601C63.7119 49.4446 63.8986 49.7559 64.1121 50.0939C64.3077 50.4496 64.5656 50.7698 64.8858 51.0543C65.2059 51.3389 65.6061 51.579 66.0864 51.7747C66.5488 51.9704 67.118 52.0682 67.7939 52.0682C68.701 52.0682 69.5014 51.8814 70.1951 51.5079C70.8888 51.1522 71.4846 50.6541 71.9827 50.0138C72.4807 49.3735 72.8987 48.6176 73.2366 47.746C73.5746 46.8745 73.8414 45.9407 74.037 44.9446C74.2327 43.9486 74.3661 42.908 74.4372 41.8231C74.5262 40.7381 74.5706 39.6531 74.5706 38.5681V16.1836H69.6615V14.2626H74.5706V11.1411C74.5706 9.57582 74.7574 8.21514 75.1309 7.05901C75.5222 5.88509 76.0291 4.88904 76.6517 4.07085C77.292 3.25266 78.0123 2.58566 78.8127 2.06985C79.6131 1.55403 80.4224 1.14494 81.2406 0.842568C82.0766 0.540194 82.8859 0.335648 83.6685 0.228928C84.4511 0.122208 85.1359 0.0688477 85.7229 0.0688477C86.9857 0.0688477 88.1063 0.166674 89.0845 0.362328C90.0628 0.540194 90.881 0.789208 91.5391 1.10937C92.1972 1.41174 92.6952 1.76747 93.0332 2.17657C93.3711 2.58566 93.5401 3.00365 93.5401 3.43053C93.5401 3.75069 93.4867 4.07974 93.38 4.41769C93.2911 4.73785 93.1577 5.04022 92.9798 5.32481C92.802 5.59161 92.5796 5.81394 92.3128 5.99181C92.0638 6.15189 91.7792 6.23193 91.4591 6.23193C91.2634 6.23193 91.0855 6.12521 90.9255 5.91177C90.7654 5.69833 90.5964 5.43153 90.4185 5.11137C90.2407 4.79121 90.045 4.44437 89.8316 4.07085C89.6181 3.69733 89.3513 3.35049 89.0312 3.03033C88.7288 2.71017 88.3642 2.44337 87.9373 2.22993C87.5104 2.01649 87.0035 1.90977 86.4165 1.90977Z" fill="#BAC4D1"/>
<path d="M102.505 27.7627C102.505 27.318 102.362 26.9801 102.078 26.7489C101.793 26.5176 101.428 26.402 100.984 26.402C100.361 26.402 99.7654 26.5443 99.1963 26.8289C98.6449 27.1135 98.1557 27.5315 97.7289 28.0829C97.302 28.6342 96.964 29.319 96.715 30.1372C96.466 30.9376 96.3415 31.8714 96.3415 32.9386C96.3415 33.9702 96.4127 34.824 96.5549 35.4999C96.715 36.1758 96.9196 36.7183 97.1686 37.1274C97.4354 37.5187 97.7378 37.7944 98.0757 37.9545C98.4137 38.1145 98.7694 38.1946 99.1429 38.1946C99.6054 38.1946 100.041 38.079 100.45 37.8477C100.859 37.5987 101.215 37.2875 101.517 36.9139C101.82 36.5404 102.06 36.1224 102.238 35.66C102.416 35.1975 102.505 34.7351 102.505 34.2726V27.7627ZM98.2625 16.0769C97.6577 16.0769 97.0974 16.148 96.5816 16.2903C96.0658 16.4326 95.6211 16.6105 95.2476 16.8239C94.8741 17.0373 94.5806 17.2775 94.3672 17.5443C94.1537 17.7933 94.047 18.0334 94.047 18.2646C94.047 18.5314 94.1804 18.7271 94.4472 18.8516C94.7318 18.9583 95.0431 19.0917 95.381 19.2518C95.719 19.3941 96.0213 19.6075 96.2881 19.8921C96.5727 20.1589 96.715 20.5769 96.715 21.1461C96.715 21.5196 96.635 21.8664 96.4749 22.1866C96.3326 22.4889 96.1281 22.7646 95.8613 23.0137C95.6123 23.2449 95.3099 23.4316 94.9541 23.5739C94.6162 23.6984 94.2605 23.7607 93.8869 23.7607C92.8909 23.7607 92.0816 23.4227 91.4591 22.7469C90.8543 22.071 90.5519 21.1727 90.5519 20.0522C90.5519 18.9672 90.8365 18.0423 91.4057 17.2775C91.9749 16.4948 92.713 15.8545 93.6201 15.3565C94.5451 14.8585 95.5856 14.4938 96.7417 14.2626C97.8978 14.0136 99.054 13.8891 100.21 13.8891C101.597 13.8891 102.923 14.0403 104.185 14.3427C105.448 14.645 106.56 15.1253 107.52 15.7834C108.499 16.4415 109.272 17.2775 109.842 18.2913C110.429 19.3051 110.722 20.5324 110.722 21.9731V37.0473C110.722 37.2074 110.731 37.3853 110.749 37.5809C110.766 37.7766 110.811 37.9545 110.882 38.1145C110.953 38.2746 111.06 38.408 111.202 38.5147C111.345 38.6215 111.549 38.6748 111.816 38.6748C112.136 38.6748 112.43 38.5592 112.696 38.328C112.981 38.079 113.23 37.83 113.443 37.5809L114.11 38.1412C113.844 38.5147 113.523 38.9238 113.15 39.3685C112.776 39.8132 112.323 40.2312 111.789 40.6225C111.256 41.0138 110.633 41.3428 109.922 41.6096C109.21 41.8764 108.401 42.0098 107.494 42.0098C106.373 42.0098 105.377 41.6808 104.506 41.0227C103.634 40.3468 103.065 39.3151 102.798 37.9278C102.229 38.6926 101.633 39.3329 101.011 39.8487C100.406 40.3646 99.7832 40.7825 99.1429 41.1027C98.5026 41.4229 97.8534 41.6541 97.1953 41.7964C96.5549 41.9387 95.9057 42.0098 95.2476 42.0098C94.3939 42.0098 93.5668 41.8764 92.7664 41.6096C91.966 41.3428 91.2456 40.9248 90.6053 40.3557C89.9828 39.7687 89.4759 39.0128 89.0845 38.0879C88.711 37.163 88.5243 36.0335 88.5243 34.6995C88.5243 33.0809 88.8444 31.7558 89.4847 30.7242C90.1251 29.6925 90.961 28.8299 91.9927 28.1362C93.0421 27.4247 94.2249 26.82 95.5411 26.322C96.8751 25.8239 98.2358 25.2992 99.6231 24.7479C100.655 24.3388 101.402 23.734 101.864 22.9336C102.345 22.1154 102.585 21.2795 102.585 20.4257C102.585 19.1095 102.193 18.0601 101.411 17.2775C100.646 16.4771 99.5965 16.0769 98.2625 16.0769Z" fill="#BAC4D1"/>
<path d="M134.654 23.1204C134.103 23.1204 133.64 23.0403 133.267 22.8803C132.893 22.7024 132.591 22.4712 132.36 22.1866C132.128 21.902 131.959 21.5907 131.853 21.2528C131.746 20.897 131.693 20.5324 131.693 20.1589C131.693 19.6787 131.719 19.2162 131.773 18.7715C131.844 18.3269 131.853 17.9267 131.799 17.5709C131.764 17.2152 131.63 16.9306 131.399 16.7172C131.168 16.5037 130.759 16.397 130.172 16.397C129.549 16.397 128.891 16.5749 128.197 16.9306C127.504 17.2863 126.872 17.8466 126.303 18.6115C125.734 19.3763 125.263 20.3634 124.889 21.5729C124.516 22.7646 124.329 24.2054 124.329 25.8951C124.329 27.7627 124.498 29.4702 124.836 31.0177C125.191 32.5473 125.716 33.8546 126.41 34.9396C127.104 36.0246 127.966 36.8695 128.998 37.4742C130.029 38.0612 131.239 38.3547 132.626 38.3547C133.249 38.3547 133.836 38.2835 134.387 38.1412C134.956 37.9989 135.49 37.8033 135.988 37.5543C136.486 37.3052 136.957 37.0207 137.402 36.7005C137.864 36.3626 138.309 36.0068 138.736 35.6333L139.403 36.2736C138.994 36.825 138.469 37.4298 137.829 38.0879C137.189 38.746 136.415 39.3685 135.508 39.9555C134.601 40.5246 133.542 41.0049 132.333 41.3962C131.123 41.7697 129.745 41.9565 128.197 41.9565C126.65 41.9565 125.138 41.663 123.662 41.076C122.203 40.4713 120.905 39.5997 119.767 38.4614C118.628 37.323 117.712 35.9446 117.019 34.326C116.343 32.6896 116.005 30.8309 116.005 28.7499C116.005 27.1313 116.209 25.6461 116.618 24.2943C117.027 22.9247 117.579 21.6885 118.272 20.5858C118.984 19.483 119.802 18.5136 120.727 17.6777C121.67 16.8417 122.657 16.148 123.689 15.5966C124.72 15.0274 125.77 14.6006 126.837 14.316C127.922 14.0314 128.962 13.8891 129.958 13.8891C131.275 13.8891 132.422 14.0403 133.4 14.3427C134.378 14.645 135.188 15.0452 135.828 15.5433C136.486 16.0413 136.975 16.6193 137.295 17.2775C137.615 17.9178 137.776 18.5848 137.776 19.2785C137.776 19.7943 137.704 20.2923 137.562 20.7725C137.438 21.235 137.242 21.6441 136.975 21.9998C136.726 22.3378 136.406 22.6135 136.015 22.8269C135.623 23.0225 135.17 23.1204 134.654 23.1204Z" fill="#BAC4D1"/>
<path d="M151.649 16.1836V35.9001C151.649 36.8428 151.827 37.5009 152.183 37.8744C152.538 38.2302 153.028 38.408 153.65 38.408C154.13 38.408 154.557 38.2746 154.931 38.0078C155.304 37.741 155.624 37.4386 155.891 37.1007C156.211 36.7272 156.487 36.2914 156.718 35.7934L157.545 36.1669C157.279 36.7361 156.958 37.3586 156.585 38.0345C156.229 38.7104 155.749 39.3418 155.144 39.9288C154.539 40.498 153.775 40.9782 152.85 41.3695C151.943 41.7608 150.795 41.9565 149.408 41.9565C148.625 41.9565 147.869 41.8408 147.14 41.6096C146.429 41.3784 145.788 41.0138 145.219 40.5157C144.668 40.0177 144.223 39.3952 143.885 38.6481C143.547 37.9011 143.378 37.0029 143.378 35.9535V16.1836H140.39V14.2626C140.888 14.2626 141.582 14.1381 142.471 13.8891C143.361 13.6223 144.268 13.1865 145.193 12.5818C146.135 11.977 147.007 11.1677 147.807 10.1539C148.608 9.14005 149.177 7.88609 149.515 6.39201H151.649V14.2626H155.998C157.421 14.2626 158.132 14.0225 158.132 13.5423C158.132 13.3644 158.043 13.2488 157.866 13.1954C157.688 13.1243 157.483 13.0442 157.252 12.9553C157.039 12.8486 156.843 12.7063 156.665 12.5284C156.487 12.3505 156.398 12.0571 156.398 11.648C156.398 11.1499 156.549 10.7586 156.852 10.4741C157.172 10.1895 157.581 10.0472 158.079 10.0472C158.399 10.0472 158.675 10.1183 158.906 10.2606C159.155 10.3851 159.36 10.563 159.52 10.7942C159.68 11.0077 159.795 11.2567 159.867 11.5413C159.956 11.8258 160 12.1104 160 12.395C160 13.5511 159.662 14.4761 158.986 15.1697C158.328 15.8456 157.261 16.1836 155.785 16.1836H151.649Z" fill="#BAC4D1"/>
</svg>
