<?xml version="1.0" encoding="utf-8"?><svg width="224" height="120" viewBox="0 0 224 120" xmlns="http://www.w3.org/2000/svg" xmlns:xlink="http://www.w3.org/1999/xlink"><svg width="15" height="17" viewBox="0 0 18 20" fill="none" id="add-to-cart" x="180" y="60" xmlns="http://www.w3.org/2000/svg"><path fill-rule="evenodd" clip-rule="evenodd" d="M2.204 5h1.797a5 5 0 1 1 10 0h1.796a1 1 0 0 1 .996.915l1.114 13A1 1 0 0 1 16.912 20H1.09a1 1 0 0 1-.996-1.085l1.114-13A1 1 0 0 1 2.204 5Zm6.797-3a3 3 0 0 1 3 3H6a3 3 0 0 1 3-3ZM6 8a3 3 0 1 0 6 0 1 1 0 0 1 2 0A5 5 0 1 1 4 8a1 1 0 0 1 2 0Z" fill="#fff"/></svg><svg width="20" height="20" fill="none" viewBox="0 0 20 20" id="card-view" x="120" y="60" xmlns="http://www.w3.org/2000/svg"><path fill-rule="evenodd" clip-rule="evenodd" d="M0 1a1 1 0 0 1 1-1h3a1 1 0 0 1 1 1v3a1 1 0 0 1-1 1H1a1 1 0 0 1-1-1V1Zm0 7.5a1 1 0 0 1 1-1h3a1 1 0 0 1 1 1v3a1 1 0 0 1-1 1H1a1 1 0 0 1-1-1v-3ZM1 15a1 1 0 0 0-1 1v3a1 1 0 0 0 1 1h3a1 1 0 0 0 1-1v-3a1 1 0 0 0-1-1H1ZM15 1a1 1 0 0 1 1-1h3a1 1 0 0 1 1 1v3a1 1 0 0 1-1 1h-3a1 1 0 0 1-1-1V1Zm1 6.5a1 1 0 0 0-1 1v3a1 1 0 0 0 1 1h3a1 1 0 0 0 1-1v-3a1 1 0 0 0-1-1h-3ZM15 16a1 1 0 0 1 1-1h3a1 1 0 0 1 1 1v3a1 1 0 0 1-1 1h-3a1 1 0 0 1-1-1v-3ZM8.5 0a1 1 0 0 0-1 1v3a1 1 0 0 0 1 1h3a1 1 0 0 0 1-1V1a1 1 0 0 0-1-1h-3Zm-1 8.5a1 1 0 0 1 1-1h3a1 1 0 0 1 1 1v3a1 1 0 0 1-1 1h-3a1 1 0 0 1-1-1v-3Zm1 6.5a1 1 0 0 0-1 1v3a1 1 0 0 0 1 1h3a1 1 0 0 0 1-1v-3a1 1 0 0 0-1-1h-3Z" fill="#3B4758"/></svg><svg width="60" height="60" viewBox="0 0 30 30" fill="none" id="cart" y="60" xmlns="http://www.w3.org/2000/svg"><path fill-rule="evenodd" clip-rule="evenodd" d="M10.832 10.834H9.336a.833.833 0 0 0-.83.762l-.929 10.833a.833.833 0 0 0 .83.905h13.185a.833.833 0 0 0 .83-.905l-.928-10.833a.833.833 0 0 0-.83-.762h-1.498a4.167 4.167 0 1 0-8.334 0Zm1.667 0h5a2.5 2.5 0 1 0-5 0Zm2.499 6.666a4.167 4.167 0 0 0 4.168-4.166.833.833 0 1 0-1.667 0h-.001a2.5 2.5 0 0 1-4.999 0 .833.833 0 1 0-1.667 0v-.075.075a4.167 4.167 0 0 0 4.166 4.166Z" fill="#586A84"/></svg><svg width="12" height="12" fill="none" viewBox="0 0 12 12" id="delete" x="195" y="60" xmlns="http://www.w3.org/2000/svg"><path fill-rule="evenodd" clip-rule="evenodd" d="M10.667.667H8A.667.667 0 0 0 7.333 0H4.667A.667.667 0 0 0 4 .667H1.334a.667.667 0 1 0 0 1.333h9.333a.667.667 0 1 0 0-1.333ZM1.334 3.333h9.333v7.334c0 .736-.597 1.333-1.333 1.333H2.667a1.333 1.333 0 0 1-1.333-1.333V3.333Zm3.332 2A.667.667 0 0 0 4 6v3.333a.667.667 0 0 0 1.333 0V6a.667.667 0 0 0-.667-.667Zm2.667 0A.667.667 0 0 0 6.666 6v3.333a.667.667 0 0 0 1.333 0V6a.667.667 0 0 0-.666-.667Z" fill="#586A84"/></svg><svg width="10" height="10" fill="none" viewBox="0 0 10 10" id="delete-cross" x="207" y="60" xmlns="http://www.w3.org/2000/svg"><path d="M.566 1.302c.016.146.08.287.191.398l3.3 3.3-3.3 3.3a.666.666 0 1 0 .943.943l3.3-3.3 3.3 3.3a.666.666 0 1 0 .942-.943L5.942 5l3.3-3.3A.666.666 0 1 0 8.3.757L5 4.057 1.7.757a.666.666 0 0 0-1.134.545Z" fill="#586A84"/></svg><svg width="60" height="60" viewBox="0 -6 20 30" fill="none" id="profile" x="60" y="60" xmlns="http://www.w3.org/2000/svg"><path d="M9.334 3.833a3.333 3.333 0 1 1-6.667 0 3.333 3.333 0 0 1 6.667 0ZM.167 13.833a5.834 5.834 0 0 1 11.667 0v.834c0 .46-.373.833-.834.833H1a.833.833 0 0 1-.833-.833v-.834Z" fill="#586A84"/></svg><svg width="20" height="20" fill="none" viewBox="0 0 20 20" id="row-view" x="140" y="60" xmlns="http://www.w3.org/2000/svg"><path fill-rule="evenodd" clip-rule="evenodd" d="M1 0a1 1 0 0 0-1 1v3a1 1 0 0 0 1 1h3a1 1 0 0 0 1-1V1a1 1 0 0 0-1-1H1Zm0 7.5a1 1 0 0 0-1 1v3a1 1 0 0 0 1 1h3a1 1 0 0 0 1-1v-3a1 1 0 0 0-1-1H1ZM0 16a1 1 0 0 1 1-1h3a1 1 0 0 1 1 1v3a1 1 0 0 1-1 1H1a1 1 0 0 1-1-1v-3ZM8 0a1 1 0 0 0-1 1v3a1 1 0 0 0 1 1h11a1 1 0 0 0 1-1V1a1 1 0 0 0-1-1H8ZM7 8.5a1 1 0 0 1 1-1h11a1 1 0 0 1 1 1v3a1 1 0 0 1-1 1H8a1 1 0 0 1-1-1v-3ZM8 15a1 1 0 0 0-1 1v3a1 1 0 0 0 1 1h11a1 1 0 0 0 1-1v-3a1 1 0 0 0-1-1H8Z" fill="#3B4758"/></svg><svg width="20" height="20" fill="none" viewBox="0 0 20 20" id="search" x="160" y="60" xmlns="http://www.w3.org/2000/svg"><path fill-rule="evenodd" clip-rule="evenodd" d="M13.81 15.223a8 8 0 1 1 1.414-1.414l3.58 3.58a.997.997 0 0 1 0 1.414 1 1 0 0 1-1.414 0l-3.58-3.58Zm-.663-10.562a6 6 0 1 1-8.485 8.485 6 6 0 1 1 8.485-8.485Z" fill="#fff"/></svg><svg width="224" height="60" fill="none" viewBox="0 0 224 60" id="shoperz-logo" xmlns="http://www.w3.org/2000/svg"><path d="M10.75 37.086a70.7 70.7 0 0 1-4.365-1.64C5.075 34.862 3.947 34.17 3 33.368a8.913 8.913 0 0 1-2.237-2.844C.254 29.394 0 28.026 0 26.422c0-3.099 1.182-5.578 3.547-7.437 2.401-1.86 5.748-2.79 10.041-2.79 1.565 0 3.02.11 4.366.329 1.346.219 2.492.565 3.438 1.039.982.437 1.746 1.02 2.292 1.75.545.693.818 1.513.818 2.46 0 .949-.218 1.77-.655 2.462a7.016 7.016 0 0 1-1.582 1.695c-.8-.51-1.874-.948-3.22-1.312-1.346-.401-2.82-.602-4.42-.602-1.637 0-2.838.237-3.602.71-.764.438-1.146 1.004-1.146 1.696 0 .547.237 1.003.71 1.367.473.328 1.182.638 2.128.93l2.892.93c3.42 1.093 6.04 2.497 7.858 4.21 1.856 1.678 2.784 3.975 2.784 6.891 0 3.1-1.22 5.615-3.657 7.547-2.437 1.896-6.02 2.844-10.75 2.844-1.674 0-3.238-.146-4.693-.438-1.42-.255-2.674-.638-3.766-1.148-1.055-.547-1.891-1.203-2.51-1.969C.291 46.784 0 45.873 0 44.852c0-1.057.31-1.95.928-2.68.618-.765 1.291-1.349 2.019-1.75 1.018.802 2.255 1.495 3.71 2.078 1.492.584 3.111.875 4.857.875 1.783 0 3.038-.273 3.766-.82.727-.547 1.091-1.185 1.091-1.914 0-.73-.29-1.276-.873-1.64-.582-.402-1.4-.785-2.456-1.15l-2.292-.765ZM56.905 50.211c-.364.11-.946.219-1.746.328-.764.11-1.564.164-2.401.164-.8 0-1.528-.054-2.183-.164-.618-.11-1.146-.328-1.583-.656a3.4 3.4 0 0 1-1.036-1.313c-.219-.583-.328-1.33-.328-2.242v-12.14c0-1.495-.382-2.534-1.146-3.117-.727-.62-1.637-.93-2.728-.93a7.7 7.7 0 0 0-2.074.273c-.655.183-1.182.401-1.583.657v19.14c-.363.11-.945.219-1.746.328-.764.11-1.564.164-2.4.164-.801 0-1.529-.054-2.184-.164-.618-.11-1.146-.328-1.582-.656a3.4 3.4 0 0 1-1.037-1.313c-.218-.583-.328-1.33-.328-2.242V14.61c.4-.073.983-.164 1.747-.274.8-.145 1.6-.218 2.4-.218.801 0 1.51.054 2.13.164.654.11 1.2.328 1.636.656.437.328.764.784.983 1.367.254.547.381 1.276.381 2.188v5.359c.473-.182 1.183-.383 2.129-.602.982-.255 2.055-.382 3.22-.382 3.601 0 6.402.911 8.403 2.734 2.038 1.786 3.056 4.466 3.056 8.039v16.57ZM90.082 36.977c0 2.26-.345 4.284-1.037 6.07-.691 1.75-1.673 3.227-2.947 4.43-1.236 1.203-2.728 2.114-4.474 2.734-1.747.62-3.693.93-5.84.93-2.146 0-4.092-.328-5.839-.985-1.746-.656-3.255-1.585-4.529-2.789-1.237-1.24-2.2-2.734-2.892-4.484-.691-1.75-1.037-3.719-1.037-5.906 0-2.151.346-4.102 1.037-5.852s1.655-3.226 2.892-4.43c1.273-1.239 2.783-2.187 4.53-2.843 1.746-.656 3.692-.984 5.839-.984 2.146 0 4.092.346 5.839 1.039 1.746.656 3.238 1.604 4.474 2.843 1.274 1.203 2.256 2.68 2.947 4.43.692 1.75 1.037 3.682 1.037 5.797Zm-19.1 0c0 2.224.419 3.937 1.255 5.14.874 1.167 2.074 1.75 3.602 1.75s2.692-.601 3.493-1.804c.836-1.203 1.255-2.899 1.255-5.086 0-2.188-.419-3.865-1.255-5.031-.837-1.204-2.02-1.805-3.547-1.805-1.528 0-2.71.602-3.547 1.805-.837 1.166-1.256 2.843-1.256 5.03ZM106.777 22.868c2.183 0 4.202.291 6.058.875 1.891.546 3.51 1.403 4.856 2.57 1.347 1.167 2.402 2.643 3.166 4.43.764 1.75 1.146 3.846 1.146 6.289 0 2.333-.328 4.375-.983 6.124-.655 1.75-1.582 3.227-2.783 4.43-1.2 1.167-2.656 2.042-4.365 2.625-1.674.583-3.548.875-5.621.875-1.565 0-3.02-.237-4.366-.71v9.077c-.364.11-.946.219-1.746.328-.801.146-1.619.219-2.456.219-.8 0-1.528-.055-2.183-.164-.618-.11-1.146-.328-1.582-.656-.437-.328-.764-.784-.983-1.367-.218-.547-.327-1.277-.327-2.188v-26.25c0-.984.2-1.786.6-2.406.437-.62 1.019-1.185 1.747-1.695 1.127-.73 2.528-1.313 4.202-1.75 1.673-.438 3.547-.656 5.62-.656Zm.109 20.89c3.748 0 5.621-2.242 5.621-6.727 0-2.333-.473-4.065-1.419-5.195-.909-1.13-2.237-1.695-3.983-1.695-.691 0-1.31.091-1.856.273a6.434 6.434 0 0 0-1.419.547v12.031c.437.22.91.401 1.419.547.51.146 1.055.219 1.637.219ZM140.554 51.14c-2.146 0-4.147-.29-6.002-.874-1.819-.62-3.42-1.532-4.803-2.735-1.346-1.203-2.419-2.716-3.219-4.539-.764-1.822-1.146-3.955-1.146-6.398 0-2.406.382-4.466 1.146-6.18.8-1.75 1.837-3.172 3.11-4.265a11.793 11.793 0 0 1 4.366-2.461 15.746 15.746 0 0 1 5.02-.82c1.929 0 3.675.291 5.239.875 1.601.583 2.965 1.385 4.093 2.406a10.251 10.251 0 0 1 2.674 3.664c.655 1.422.982 2.971.982 4.648 0 1.24-.345 2.188-1.037 2.844-.691.656-1.655 1.075-2.892 1.258l-13.479 2.023c.4 1.203 1.219 2.115 2.456 2.735 1.237.583 2.656.875 4.256.875 1.492 0 2.893-.183 4.202-.547 1.346-.401 2.438-.857 3.275-1.367.582.364 1.073.874 1.473 1.53.4.657.6 1.35.6 2.079 0 1.64-.764 2.862-2.292 3.664-1.164.62-2.474 1.039-3.929 1.258a27.6 27.6 0 0 1-4.093.328Zm-1.528-21.491c-.873 0-1.637.146-2.292.437a4.459 4.459 0 0 0-1.528 1.149c-.4.437-.709.948-.927 1.53a6.686 6.686 0 0 0-.328 1.696l9.332-1.531c-.109-.73-.509-1.458-1.201-2.188-.691-.729-1.709-1.093-3.056-1.093ZM165.757 50.211c-.364.11-.946.219-1.747.328-.764.11-1.564.164-2.401.164-.8 0-1.528-.054-2.183-.164-.618-.11-1.145-.328-1.582-.656a3.4 3.4 0 0 1-1.037-1.313c-.218-.583-.327-1.33-.327-2.242V29.922c0-.838.145-1.55.436-2.133a5.301 5.301 0 0 1 1.365-1.64c.582-.474 1.291-.893 2.128-1.258a20.94 20.94 0 0 1 5.839-1.695 18.556 18.556 0 0 1 3.165-.274c1.746 0 3.129.347 4.147 1.04 1.019.656 1.528 1.75 1.528 3.28 0 .511-.072 1.021-.218 1.532a7.078 7.078 0 0 1-.546 1.312c-.764 0-1.546.037-2.346.11-.801.073-1.583.182-2.347.328-.764.146-1.491.31-2.183.492a8.415 8.415 0 0 0-1.691.547V50.21ZM180.003 50.266a6.24 6.24 0 0 1-1.419-1.805c-.327-.693-.491-1.477-.491-2.352 0-.729.164-1.44.491-2.132.364-.73.801-1.404 1.31-2.024l9.386-11.046h-10.041a10.679 10.679 0 0 1-.655-1.532 7.156 7.156 0 0 1-.273-2.023c0-1.276.273-2.188.819-2.734.582-.584 1.346-.875 2.292-.875h17.19a5.516 5.516 0 0 1 1.364 1.804c.364.693.546 1.477.546 2.352 0 .729-.182 1.458-.546 2.187a9.507 9.507 0 0 1-1.255 1.969l-9.168 11.047h10.696c.218.4.418.911.6 1.531.218.62.327 1.294.327 2.023 0 1.276-.291 2.206-.873 2.79-.545.546-1.291.82-2.237.82h-18.063Z" fill="#3B4758"/><path d="M194.975 3.53a3.53 3.53 0 0 1 7.059 0v7.058a3.53 3.53 0 1 1-7.059 0V3.53ZM181.034 12.228a3.529 3.529 0 1 1 4.991-4.991l4.991 4.99a3.529 3.529 0 1 1-4.991 4.991l-4.991-4.99ZM205.991 37.184a3.53 3.53 0 0 1 4.992-4.991l4.991 4.991a3.53 3.53 0 0 1-4.991 4.992l-4.992-4.992ZM212.622 28.235a3.53 3.53 0 0 1 0-7.058h7.059a3.53 3.53 0 0 1 0 7.058h-7.059ZM210.982 17.219a3.529 3.529 0 1 1-4.991-4.991l4.991-4.992a3.529 3.529 0 1 1 4.991 4.992l-4.991 4.991Z" fill="#FFC045"/></svg></svg>