<?xml version="1.0" encoding="utf-8"?><svg width="224" height="168" viewBox="0 0 224 168" xmlns="http://www.w3.org/2000/svg" xmlns:xlink="http://www.w3.org/1999/xlink"><svg width="15" height="17" viewBox="0 0 18 20" fill="none" id="add-to-cart" x="140" y="108" xmlns="http://www.w3.org/2000/svg"><path fill-rule="evenodd" clip-rule="evenodd" d="M2.204 5h1.797a5 5 0 1 1 10 0h1.796a1 1 0 0 1 .996.915l1.114 13A1 1 0 0 1 16.912 20H1.09a1 1 0 0 1-.996-1.085l1.114-13A1 1 0 0 1 2.204 5Zm6.797-3a3 3 0 0 1 3 3H6a3 3 0 0 1 3-3ZM6 8a3 3 0 1 0 6 0 1 1 0 0 1 2 0A5 5 0 1 1 4 8a1 1 0 0 1 2 0Z" fill="#fff"/></svg><svg width="20" height="20" fill="none" viewBox="0 0 20 20" id="card-view" x="70" y="84" xmlns="http://www.w3.org/2000/svg"><path fill-rule="evenodd" clip-rule="evenodd" d="M0 1a1 1 0 0 1 1-1h3a1 1 0 0 1 1 1v3a1 1 0 0 1-1 1H1a1 1 0 0 1-1-1V1Zm0 7.5a1 1 0 0 1 1-1h3a1 1 0 0 1 1 1v3a1 1 0 0 1-1 1H1a1 1 0 0 1-1-1v-3ZM1 15a1 1 0 0 0-1 1v3a1 1 0 0 0 1 1h3a1 1 0 0 0 1-1v-3a1 1 0 0 0-1-1H1ZM15 1a1 1 0 0 1 1-1h3a1 1 0 0 1 1 1v3a1 1 0 0 1-1 1h-3a1 1 0 0 1-1-1V1Zm1 6.5a1 1 0 0 0-1 1v3a1 1 0 0 0 1 1h3a1 1 0 0 0 1-1v-3a1 1 0 0 0-1-1h-3ZM15 16a1 1 0 0 1 1-1h3a1 1 0 0 1 1 1v3a1 1 0 0 1-1 1h-3a1 1 0 0 1-1-1v-3ZM8.5 0a1 1 0 0 0-1 1v3a1 1 0 0 0 1 1h3a1 1 0 0 0 1-1V1a1 1 0 0 0-1-1h-3Zm-1 8.5a1 1 0 0 1 1-1h3a1 1 0 0 1 1 1v3a1 1 0 0 1-1 1h-3a1 1 0 0 1-1-1v-3Zm1 6.5a1 1 0 0 0-1 1v3a1 1 0 0 0 1 1h3a1 1 0 0 0 1-1v-3a1 1 0 0 0-1-1h-3Z" fill="#3B4758"/></svg><svg width="60" height="60" viewBox="0 0 30 30" fill="none" id="cart" y="108" xmlns="http://www.w3.org/2000/svg"><path fill-rule="evenodd" clip-rule="evenodd" d="M10.832 10.834H9.336a.833.833 0 0 0-.83.762l-.929 10.833a.833.833 0 0 0 .83.905h13.185a.833.833 0 0 0 .83-.905l-.928-10.833a.833.833 0 0 0-.83-.762h-1.498a4.167 4.167 0 1 0-8.334 0Zm1.667 0h5a2.5 2.5 0 1 0-5 0Zm2.499 6.666a4.167 4.167 0 0 0 4.168-4.166.833.833 0 1 0-1.667 0h-.001a2.5 2.5 0 0 1-4.999 0 .833.833 0 1 0-1.667 0v-.075.075a4.167 4.167 0 0 0 4.166 4.166Z" fill="#586A84"/></svg><svg width="12" height="12" fill="none" viewBox="0 0 12 12" id="delete" x="210" y="60" xmlns="http://www.w3.org/2000/svg"><path fill-rule="evenodd" clip-rule="evenodd" d="M10.667.667H8A.667.667 0 0 0 7.333 0H4.667A.667.667 0 0 0 4 .667H1.334a.667.667 0 1 0 0 1.333h9.333a.667.667 0 1 0 0-1.333ZM1.334 3.333h9.333v7.334c0 .736-.597 1.333-1.333 1.333H2.667a1.333 1.333 0 0 1-1.333-1.333V3.333Zm3.332 2A.667.667 0 0 0 4 6v3.333a.667.667 0 0 0 1.333 0V6a.667.667 0 0 0-.667-.667Zm2.667 0A.667.667 0 0 0 6.666 6v3.333a.667.667 0 0 0 1.333 0V6a.667.667 0 0 0-.666-.667Z" fill="#586A84"/></svg><svg width="10" height="10" fill="none" viewBox="0 0 10 10" id="delete-cross" x="210" y="72" xmlns="http://www.w3.org/2000/svg"><path d="M.566 1.302c.016.146.08.287.191.398l3.3 3.3-3.3 3.3a.666.666 0 1 0 .943.943l3.3-3.3 3.3 3.3a.666.666 0 1 0 .942-.943L5.942 5l3.3-3.3A.666.666 0 1 0 8.3.757L5 4.057 1.7.757a.666.666 0 0 0-1.134.545Z" fill="#586A84"/></svg><svg width="20" height="20" fill="none" viewBox="0 0 20 20" id="facebook-logo" x="90" y="84" xmlns="http://www.w3.org/2000/svg"><path d="m13.83 10.88.466-2.899h-2.743V5.963c0-.829.31-1.45 1.553-1.45h1.345v-2.64c-.724-.103-1.552-.206-2.277-.206-2.38 0-4.037 1.449-4.037 4.037V7.98H5.549v2.899h2.588v7.298a9.532 9.532 0 0 0 3.416 0V10.88h2.277Z" fill="#7D8FA9"/></svg><svg width="20" height="20" fill="none" viewBox="0 0 20 20" id="instagram-logo" x="110" y="84" xmlns="http://www.w3.org/2000/svg"><path fill-rule="evenodd" clip-rule="evenodd" d="M13.333 3.333H6.666a3.333 3.333 0 0 0-3.333 3.334v6.666a3.333 3.333 0 0 0 3.333 3.334h6.667a3.333 3.333 0 0 0 3.333-3.334V6.667a3.333 3.333 0 0 0-3.333-3.334ZM6.666 1.667a5 5 0 0 0-5 5v6.666a5 5 0 0 0 5 5h6.667a5 5 0 0 0 5-5V6.667a5 5 0 0 0-5-5H6.666ZM9.999 12.5a2.5 2.5 0 1 0 0-5 2.5 2.5 0 0 0 0 5Zm0 1.667a4.167 4.167 0 1 0 0-8.334 4.167 4.167 0 0 0 0 8.334ZM14.166 7a1.167 1.167 0 1 0 0-2.333 1.167 1.167 0 0 0 0 2.333Z" fill="#7D8FA9"/></svg><svg width="20" height="20" fill="none" viewBox="0 0 20 20" id="linkedin-logo" x="130" y="84" xmlns="http://www.w3.org/2000/svg"><path d="M5.25 6.383v11.95H2.058V6.383H5.25ZM1.86 3.268c0-.464.161-.847.485-1.148.324-.302.759-.453 1.304-.453.537 0 .968.15 1.292.453.331.301.497.684.497 1.148 0 .464-.166.847-.497 1.149-.324.302-.755.453-1.292.453-.545 0-.98-.151-1.304-.453a1.502 1.502 0 0 1-.486-1.149ZM10.993 8.934v9.4h-3.18V6.382h2.982l.198 2.551Zm-.463 3.005h-.862c0-.884.114-1.68.343-2.386.228-.714.548-1.322.96-1.823a4.128 4.128 0 0 1 1.47-1.16c.574-.272 1.214-.408 1.921-.408.56 0 1.072.081 1.535.243.464.162.862.42 1.193.773.339.354.597.821.773 1.403.184.582.277 1.292.277 2.132v7.62h-3.204v-7.632c0-.53-.073-.942-.22-1.237a1.24 1.24 0 0 0-.652-.618c-.28-.125-.626-.188-1.038-.188-.427 0-.8.085-1.116.254-.31.17-.567.405-.773.707-.199.295-.35.64-.453 1.038a5.091 5.091 0 0 0-.154 1.281Z" fill="#7D8FA9"/></svg><svg width="70" height="24" fill="none" viewBox="0 0 70 24" id="mastercard-logo" y="60" xmlns="http://www.w3.org/2000/svg"><path d="M39.102 4.337H30.9v14.74h8.202V4.337Z" fill="#FF5F00"/><path d="M31.42 11.707A9.357 9.357 0 0 1 35 4.337a9.374 9.374 0 1 0 0 14.74 9.357 9.357 0 0 1-3.58-7.37Z" fill="#EB001B"/><path d="M50.167 11.707a9.372 9.372 0 0 1-15.166 7.37 9.374 9.374 0 0 0 0-14.74 9.374 9.374 0 0 1 15.166 7.37Z" fill="#F79E1B"/></svg><svg width="70" height="24" fill="none" viewBox="0 0 70 24" id="paypal-logo" x="70" y="60" xmlns="http://www.w3.org/2000/svg"><path d="M28.706 10.587c-.132.988-.923.988-1.648.988h-.395l.33-1.91c0-.132.131-.198.263-.198h.198c.527 0 .988 0 1.252.263v.857Zm-.33-2.636h-2.833c-.198 0-.33.132-.395.33l-1.12 7.248c0 .132.065.263.263.263h1.318c.197 0 .33-.131.395-.33l.33-1.976c0-.197.197-.33.395-.33h.922c1.845 0 2.9-.922 3.229-2.7.132-.791 0-1.384-.33-1.846-.527-.395-1.252-.659-2.174-.659ZM34.9 13.223c-.132.79-.725 1.317-1.516 1.317-.395 0-.725-.131-.922-.395-.198-.263-.264-.593-.198-.922.132-.791.725-1.318 1.515-1.318.396 0 .725.132.923.395.132.198.263.527.198.923Zm1.844-2.636h-1.317c-.132 0-.198.066-.264.198l-.066.395-.066-.132c-.263-.395-.922-.593-1.581-.593-1.516 0-2.768 1.12-3.031 2.702-.132.79.066 1.515.527 2.042.395.462.988.66 1.713.66 1.186 0 1.845-.791 1.845-.791l-.066.395c0 .132.066.264.264.264h1.186c.198 0 .33-.132.395-.33l.725-4.612c0-.066-.066-.198-.264-.198ZM43.925 10.587h-1.383a.362.362 0 0 0-.33.198l-1.845 2.767-.79-2.636c-.066-.197-.198-.263-.396-.263h-1.317c-.132 0-.264.132-.198.33l1.515 4.348-1.383 1.977c-.132.131 0 .395.197.395h1.384a.362.362 0 0 0 .33-.198l4.48-6.523c.066-.197-.066-.395-.264-.395Z" fill="#263577"/><path d="M48.737 10.587c-.132.988-.923.988-1.648.988h-.395l.33-1.91c0-.132.131-.198.263-.198h.198c.527 0 .988 0 1.252.263.066.264.066.527 0 .857Zm-.33-2.636h-2.833c-.198 0-.33.132-.395.33l-1.12 7.248c0 .132.066.263.263.263h1.45c.132 0 .263-.066.263-.263l.33-2.043c0-.197.197-.33.395-.33h.922c1.845 0 2.9-.922 3.23-2.7.13-.791 0-1.384-.33-1.846-.462-.395-1.186-.659-2.175-.659ZM54.995 13.223c-.132.79-.725 1.317-1.515 1.317-.396 0-.725-.131-.923-.395-.197-.263-.263-.593-.197-.922.131-.791.724-1.318 1.515-1.318.395 0 .725.132.922.395.132.198.264.527.198.923Zm1.845-2.636h-1.318c-.131 0-.197.066-.263.198l-.066.395-.066-.132c-.264-.395-.922-.593-1.581-.593-1.516 0-2.768 1.12-3.031 2.702-.132.79.066 1.515.527 2.042.395.462.988.66 1.713.66 1.186 0 1.845-.791 1.845-.791l-.066.395c0 .132.066.264.264.264h1.185c.198 0 .33-.132.396-.33l.725-4.612c0-.066-.132-.198-.264-.198ZM58.422 8.15l-1.186 7.379c0 .132.066.263.264.263h1.186c.198 0 .33-.131.395-.33l1.12-7.247c0-.132-.066-.264-.263-.264H58.62c-.066 0-.132.132-.198.198Z" fill="#2199D6"/><path d="m12.298 17.176.198-1.384H9.729l1.58-10.08s0-.067.067-.067h3.953c1.252 0 2.174.264 2.636.79.197.264.33.528.395.792.066.33.066.659 0 1.12v.263l.198.132c.197.066.33.198.46.33.199.197.33.46.33.79.066.33.066.725-.066 1.186-.131.527-.263.923-.46 1.318-.198.33-.462.593-.726.857-.263.197-.658.329-.988.46-.395.067-.79.133-1.252.133h-.33c-.197 0-.394.065-.592.197-.132.132-.264.33-.33.527v.132l-.395 2.438v.132h-1.911v-.066Z" fill="#263577"/><path d="M18.823 8.347c0 .066 0 .131-.066.197-.527 2.636-2.24 3.492-4.48 3.492h-1.12c-.264 0-.528.198-.528.462l-.593 3.69-.132 1.054c0 .197.132.33.264.33h2.042c.264 0 .462-.198.462-.396v-.132l.395-2.372v-.132c.066-.263.264-.395.461-.395h.33c1.976 0 3.492-.79 3.887-3.097.198-.988.066-1.779-.395-2.306-.132-.132-.33-.264-.527-.395Z" fill="#2199D6"/><path d="M18.295 8.15c-.066 0-.131-.067-.263-.067-.066 0-.198-.066-.264-.066-.33-.066-.659-.066-.988-.066h-3.031c-.066 0-.132 0-.198.066-.131.066-.263.198-.263.33l-.66 4.085v.132c.067-.264.264-.462.528-.462h1.12c2.24 0 3.954-.922 4.48-3.492 0-.066 0-.131.067-.197l-.396-.198a.204.204 0 0 0-.132-.066Z" fill="#252C5E"/><path d="M13.287 8.347c0-.132.132-.264.264-.33.066 0 .132-.066.198-.066h3.03c.33 0 .725 0 .989.066.066 0 .197 0 .263.066.066 0 .132.066.264.066.066 0 .066 0 .132.066l.395.198c.132-.989 0-1.648-.527-2.24-.593-.66-1.647-.923-2.965-.923h-3.888c-.263 0-.527.198-.527.461L9.334 15.858c0 .198.132.395.33.395h2.371l.594-3.821.658-4.085Z" fill="#263577"/></svg><svg width="60" height="60" viewBox="0 -6 20 30" fill="none" id="profile" x="60" y="108" xmlns="http://www.w3.org/2000/svg"><path d="M9.334 3.833a3.333 3.333 0 1 1-6.667 0 3.333 3.333 0 0 1 6.667 0ZM.167 13.833a5.834 5.834 0 0 1 11.667 0v.834c0 .46-.373.833-.834.833H1a.833.833 0 0 1-.833-.833v-.834Z" fill="#586A84"/></svg><svg width="20" height="20" fill="none" viewBox="0 0 20 20" id="row-view" x="150" y="84" xmlns="http://www.w3.org/2000/svg"><path fill-rule="evenodd" clip-rule="evenodd" d="M1 0a1 1 0 0 0-1 1v3a1 1 0 0 0 1 1h3a1 1 0 0 0 1-1V1a1 1 0 0 0-1-1H1Zm0 7.5a1 1 0 0 0-1 1v3a1 1 0 0 0 1 1h3a1 1 0 0 0 1-1v-3a1 1 0 0 0-1-1H1ZM0 16a1 1 0 0 1 1-1h3a1 1 0 0 1 1 1v3a1 1 0 0 1-1 1H1a1 1 0 0 1-1-1v-3ZM8 0a1 1 0 0 0-1 1v3a1 1 0 0 0 1 1h11a1 1 0 0 0 1-1V1a1 1 0 0 0-1-1H8ZM7 8.5a1 1 0 0 1 1-1h11a1 1 0 0 1 1 1v3a1 1 0 0 1-1 1H8a1 1 0 0 1-1-1v-3ZM8 15a1 1 0 0 0-1 1v3a1 1 0 0 0 1 1h11a1 1 0 0 0 1-1v-3a1 1 0 0 0-1-1H8Z" fill="#3B4758"/></svg><svg width="20" height="20" fill="none" viewBox="0 0 20 20" id="search" x="170" y="84" xmlns="http://www.w3.org/2000/svg"><path fill-rule="evenodd" clip-rule="evenodd" d="M13.81 15.223a8 8 0 1 1 1.414-1.414l3.58 3.58a.997.997 0 0 1 0 1.414 1 1 0 0 1-1.414 0l-3.58-3.58Zm-.663-10.562a6 6 0 1 1-8.485 8.485 6 6 0 1 1 8.485-8.485Z" fill="#fff"/></svg><svg width="224" height="60" fill="none" viewBox="0 0 224 60" id="shoperz-logo" xmlns="http://www.w3.org/2000/svg"><path d="M10.75 37.086a70.7 70.7 0 0 1-4.365-1.64C5.075 34.862 3.947 34.17 3 33.368a8.913 8.913 0 0 1-2.237-2.844C.254 29.394 0 28.026 0 26.422c0-3.099 1.182-5.578 3.547-7.437 2.401-1.86 5.748-2.79 10.041-2.79 1.565 0 3.02.11 4.366.329 1.346.219 2.492.565 3.438 1.039.982.437 1.746 1.02 2.292 1.75.545.693.818 1.513.818 2.46 0 .949-.218 1.77-.655 2.462a7.016 7.016 0 0 1-1.582 1.695c-.8-.51-1.874-.948-3.22-1.312-1.346-.401-2.82-.602-4.42-.602-1.637 0-2.838.237-3.602.71-.764.438-1.146 1.004-1.146 1.696 0 .547.237 1.003.71 1.367.473.328 1.182.638 2.128.93l2.892.93c3.42 1.093 6.04 2.497 7.858 4.21 1.856 1.678 2.784 3.975 2.784 6.891 0 3.1-1.22 5.615-3.657 7.547-2.437 1.896-6.02 2.844-10.75 2.844-1.674 0-3.238-.146-4.693-.438-1.42-.255-2.674-.638-3.766-1.148-1.055-.547-1.891-1.203-2.51-1.969C.291 46.784 0 45.873 0 44.852c0-1.057.31-1.95.928-2.68.618-.765 1.291-1.349 2.019-1.75 1.018.802 2.255 1.495 3.71 2.078 1.492.584 3.111.875 4.857.875 1.783 0 3.038-.273 3.766-.82.727-.547 1.091-1.185 1.091-1.914 0-.73-.29-1.276-.873-1.64-.582-.402-1.4-.785-2.456-1.15l-2.292-.765ZM56.905 50.211c-.364.11-.946.219-1.746.328-.764.11-1.564.164-2.401.164-.8 0-1.528-.054-2.183-.164-.618-.11-1.146-.328-1.583-.656a3.4 3.4 0 0 1-1.036-1.313c-.219-.583-.328-1.33-.328-2.242v-12.14c0-1.495-.382-2.534-1.146-3.117-.727-.62-1.637-.93-2.728-.93a7.7 7.7 0 0 0-2.074.273c-.655.183-1.182.401-1.583.657v19.14c-.363.11-.945.219-1.746.328-.764.11-1.564.164-2.4.164-.801 0-1.529-.054-2.184-.164-.618-.11-1.146-.328-1.582-.656a3.4 3.4 0 0 1-1.037-1.313c-.218-.583-.328-1.33-.328-2.242V14.61c.4-.073.983-.164 1.747-.274.8-.145 1.6-.218 2.4-.218.801 0 1.51.054 2.13.164.654.11 1.2.328 1.636.656.437.328.764.784.983 1.367.254.547.381 1.276.381 2.188v5.359c.473-.182 1.183-.383 2.129-.602.982-.255 2.055-.382 3.22-.382 3.601 0 6.402.911 8.403 2.734 2.038 1.786 3.056 4.466 3.056 8.039v16.57ZM90.082 36.977c0 2.26-.345 4.284-1.037 6.07-.691 1.75-1.673 3.227-2.947 4.43-1.236 1.203-2.728 2.114-4.474 2.734-1.747.62-3.693.93-5.84.93-2.146 0-4.092-.328-5.839-.985-1.746-.656-3.255-1.585-4.529-2.789-1.237-1.24-2.2-2.734-2.892-4.484-.691-1.75-1.037-3.719-1.037-5.906 0-2.151.346-4.102 1.037-5.852s1.655-3.226 2.892-4.43c1.273-1.239 2.783-2.187 4.53-2.843 1.746-.656 3.692-.984 5.839-.984 2.146 0 4.092.346 5.839 1.039 1.746.656 3.238 1.604 4.474 2.843 1.274 1.203 2.256 2.68 2.947 4.43.692 1.75 1.037 3.682 1.037 5.797Zm-19.1 0c0 2.224.419 3.937 1.255 5.14.874 1.167 2.074 1.75 3.602 1.75s2.692-.601 3.493-1.804c.836-1.203 1.255-2.899 1.255-5.086 0-2.188-.419-3.865-1.255-5.031-.837-1.204-2.02-1.805-3.547-1.805-1.528 0-2.71.602-3.547 1.805-.837 1.166-1.256 2.843-1.256 5.03ZM106.777 22.868c2.183 0 4.202.291 6.058.875 1.891.546 3.51 1.403 4.856 2.57 1.347 1.167 2.402 2.643 3.166 4.43.764 1.75 1.146 3.846 1.146 6.289 0 2.333-.328 4.375-.983 6.124-.655 1.75-1.582 3.227-2.783 4.43-1.2 1.167-2.656 2.042-4.365 2.625-1.674.583-3.548.875-5.621.875-1.565 0-3.02-.237-4.366-.71v9.077c-.364.11-.946.219-1.746.328-.801.146-1.619.219-2.456.219-.8 0-1.528-.055-2.183-.164-.618-.11-1.146-.328-1.582-.656-.437-.328-.764-.784-.983-1.367-.218-.547-.327-1.277-.327-2.188v-26.25c0-.984.2-1.786.6-2.406.437-.62 1.019-1.185 1.747-1.695 1.127-.73 2.528-1.313 4.202-1.75 1.673-.438 3.547-.656 5.62-.656Zm.109 20.89c3.748 0 5.621-2.242 5.621-6.727 0-2.333-.473-4.065-1.419-5.195-.909-1.13-2.237-1.695-3.983-1.695-.691 0-1.31.091-1.856.273a6.434 6.434 0 0 0-1.419.547v12.031c.437.22.91.401 1.419.547.51.146 1.055.219 1.637.219ZM140.554 51.14c-2.146 0-4.147-.29-6.002-.874-1.819-.62-3.42-1.532-4.803-2.735-1.346-1.203-2.419-2.716-3.219-4.539-.764-1.822-1.146-3.955-1.146-6.398 0-2.406.382-4.466 1.146-6.18.8-1.75 1.837-3.172 3.11-4.265a11.793 11.793 0 0 1 4.366-2.461 15.746 15.746 0 0 1 5.02-.82c1.929 0 3.675.291 5.239.875 1.601.583 2.965 1.385 4.093 2.406a10.251 10.251 0 0 1 2.674 3.664c.655 1.422.982 2.971.982 4.648 0 1.24-.345 2.188-1.037 2.844-.691.656-1.655 1.075-2.892 1.258l-13.479 2.023c.4 1.203 1.219 2.115 2.456 2.735 1.237.583 2.656.875 4.256.875 1.492 0 2.893-.183 4.202-.547 1.346-.401 2.438-.857 3.275-1.367.582.364 1.073.874 1.473 1.53.4.657.6 1.35.6 2.079 0 1.64-.764 2.862-2.292 3.664-1.164.62-2.474 1.039-3.929 1.258a27.6 27.6 0 0 1-4.093.328Zm-1.528-21.491c-.873 0-1.637.146-2.292.437a4.459 4.459 0 0 0-1.528 1.149c-.4.437-.709.948-.927 1.53a6.686 6.686 0 0 0-.328 1.696l9.332-1.531c-.109-.73-.509-1.458-1.201-2.188-.691-.729-1.709-1.093-3.056-1.093ZM165.757 50.211c-.364.11-.946.219-1.747.328-.764.11-1.564.164-2.401.164-.8 0-1.528-.054-2.183-.164-.618-.11-1.145-.328-1.582-.656a3.4 3.4 0 0 1-1.037-1.313c-.218-.583-.327-1.33-.327-2.242V29.922c0-.838.145-1.55.436-2.133a5.301 5.301 0 0 1 1.365-1.64c.582-.474 1.291-.893 2.128-1.258a20.94 20.94 0 0 1 5.839-1.695 18.556 18.556 0 0 1 3.165-.274c1.746 0 3.129.347 4.147 1.04 1.019.656 1.528 1.75 1.528 3.28 0 .511-.072 1.021-.218 1.532a7.078 7.078 0 0 1-.546 1.312c-.764 0-1.546.037-2.346.11-.801.073-1.583.182-2.347.328-.764.146-1.491.31-2.183.492a8.415 8.415 0 0 0-1.691.547V50.21ZM180.003 50.266a6.24 6.24 0 0 1-1.419-1.805c-.327-.693-.491-1.477-.491-2.352 0-.729.164-1.44.491-2.132.364-.73.801-1.404 1.31-2.024l9.386-11.046h-10.041a10.679 10.679 0 0 1-.655-1.532 7.156 7.156 0 0 1-.273-2.023c0-1.276.273-2.188.819-2.734.582-.584 1.346-.875 2.292-.875h17.19a5.516 5.516 0 0 1 1.364 1.804c.364.693.546 1.477.546 2.352 0 .729-.182 1.458-.546 2.187a9.507 9.507 0 0 1-1.255 1.969l-9.168 11.047h10.696c.218.4.418.911.6 1.531.218.62.327 1.294.327 2.023 0 1.276-.291 2.206-.873 2.79-.545.546-1.291.82-2.237.82h-18.063Z" fill="#3B4758"/><path d="M194.975 3.53a3.53 3.53 0 0 1 7.059 0v7.058a3.53 3.53 0 1 1-7.059 0V3.53ZM181.034 12.228a3.529 3.529 0 1 1 4.991-4.991l4.991 4.99a3.529 3.529 0 1 1-4.991 4.991l-4.991-4.99ZM205.991 37.184a3.53 3.53 0 0 1 4.992-4.991l4.991 4.991a3.53 3.53 0 0 1-4.991 4.992l-4.992-4.992ZM212.622 28.235a3.53 3.53 0 0 1 0-7.058h7.059a3.53 3.53 0 0 1 0 7.058h-7.059ZM210.982 17.219a3.529 3.529 0 1 1-4.991-4.991l4.991-4.992a3.529 3.529 0 1 1 4.991 4.992l-4.991 4.991Z" fill="#FFC045"/></svg><svg width="70" height="24" fill="none" viewBox="0 0 70 24" id="skrill-logo" x="140" y="60" xmlns="http://www.w3.org/2000/svg"><path d="M42.032 6.35c0-.93.729-1.683 1.627-1.683.9 0 1.628.753 1.628 1.682 0 .93-.729 1.682-1.628 1.682-.898 0-1.627-.752-1.627-1.682ZM46.71 6.043l3.3-.61v13.093h-3.3V6.043ZM51.53 6.043v12.483h3.303V5.432l-3.303.61ZM42.009 8.95v9.576h3.302V8.95h-3.302ZM35.546 13.139c0-2.813 1.55-4.229 4.6-4.33 0 0 .551-.022.877.05v2.799c-1.934.069-2.148.79-2.148 2.474v4.394h-3.33V13.14ZM31.172 8.983c-.119.321-.657 1.78-1.864 3.29v-6.84l-3.407.696v12.397h3.407v-3.832c.987 1.53 1.474 3.832 1.474 3.832h4.081c-.403-1.734-2.169-4.931-2.169-4.931 1.585-2.078 2.28-4.29 2.392-4.657h-3.897l-.017.045ZM18.803 9.312c0 .899.966.964 1.383.992 3.06.212 4.884 1.76 4.884 4.142 0 2.101-1.63 4.22-5.268 4.22-1.687 0-3.127-.17-4.403-.518V15.09c.852.363 2.257.743 3.703.743 1.32 0 2.106-.452 2.106-1.219 0-.925-.952-.986-1.317-1.009h-.004c-4.262-.3-4.721-2.905-4.721-4.011 0-1.92 1.319-4.16 5.041-4.16 2.16 0 3.323.347 4.326.71l.05.016v2.97l-.038-.01c-.402-.176-.875-.35-.875-.35-.85-.262-2.037-.542-2.955-.542-.522 0-1.912 0-1.912 1.085Z" fill="#862165"/></svg><svg width="20" height="20" fill="none" viewBox="0 0 20 20" id="twitter-logo" x="190" y="84" xmlns="http://www.w3.org/2000/svg"><path d="M16.626 6.614c.01.147.01.293.01.44 0 4.5-3.44 9.69-9.729 9.69v-.004a9.71 9.71 0 0 1-5.241-1.526 6.884 6.884 0 0 0 5.06-1.411 3.422 3.422 0 0 1-3.194-2.365c.513.098 1.04.078 1.544-.059a3.41 3.41 0 0 1-2.743-3.337v-.044c.475.264 1.007.41 1.552.427a3.4 3.4 0 0 1-1.058-4.547 9.719 9.719 0 0 0 7.047 3.557 3.398 3.398 0 0 1 .989-3.253 3.433 3.433 0 0 1 4.838.148 6.88 6.88 0 0 0 2.171-.827 3.42 3.42 0 0 1-1.503 1.883c.678-.08 1.34-.26 1.964-.536a6.93 6.93 0 0 1-1.707 1.764Z" fill="#7D8FA9"/></svg><svg width="70" height="24" fill="none" viewBox="0 0 70 24" id="visa-logo" y="84" xmlns="http://www.w3.org/2000/svg"><path fill-rule="evenodd" clip-rule="evenodd" d="M25.668 17.422h-3.231l-2.423-9.515c-.115-.438-.36-.825-.718-1.008a10.311 10.311 0 0 0-2.962-1.007v-.366h5.205c.718 0 1.257.55 1.347 1.19l1.257 6.863 3.23-8.053h3.14l-4.845 11.896Zm6.64 0h-3.05L31.77 5.526h3.051L32.31 17.422ZM38.77 8.82c.09-.64.629-1.007 1.257-1.007.988-.092 2.064.092 2.962.548l.539-2.56a7.531 7.531 0 0 0-2.782-.551c-2.962 0-5.117 1.648-5.117 3.934 0 1.74 1.527 2.654 2.604 3.204 1.166.549 1.615.915 1.525 1.464 0 .823-.898 1.189-1.794 1.189-1.078 0-2.155-.274-3.141-.733l-.54 2.563c1.078.457 2.244.64 3.322.64 3.32.091 5.384-1.555 5.384-4.026 0-3.111-4.219-3.293-4.219-4.665Zm14.896 8.602L51.243 5.526h-2.602c-.539 0-1.078.366-1.257.915l-4.487 10.98h3.142l.627-1.737h3.859l.36 1.738h2.781ZM49.09 8.728l.897 4.483h-2.513l1.616-4.483Z" fill="#172B85"/></svg><svg width="20" height="20" fill="none" viewBox="0 0 20 20" id="youtube-logo" x="120" y="108" xmlns="http://www.w3.org/2000/svg"><path d="M14.872 4.132H5.126a3.453 3.453 0 0 0-3.462 3.444v4.847a3.453 3.453 0 0 0 3.462 3.445h9.746a3.453 3.453 0 0 0 3.462-3.445V7.576a3.453 3.453 0 0 0-3.462-3.444Zm-2.341 6.104-4.559 2.163a.183.183 0 0 1-.262-.165v-4.46c0-.136.144-.224.266-.163l4.558 2.298a.182.182 0 0 1-.004.327Z" fill="#7D8FA9"/></svg></svg>